%
M48
M72
T01C0.0120
T02C0.0276
T03C0.0866
%
T01
X1040Y8665
X1640Y8665
X2240Y8665
X2940Y4765
X2940Y4165
X2940Y3565
X2940Y2965
X2540Y2565
X2040Y2265
X1340Y2265
X640Y2265
X2840Y8665
X3040Y7665
X3040Y7065
X3040Y6465
X3040Y5865
X1040Y9265
X1040Y9865
X1040Y10465
X640Y10765
X640Y11265
X4540Y2665
X4540Y3665
X4540Y4665
X4540Y5665
X5540Y2665
X5540Y3665
X5540Y4665
X5540Y5665
X6540Y5665
X6540Y4665
X6540Y3665
X6540Y2665
X12440Y3265
X6240Y13365
X5640Y13365
X4990Y12165
X3540Y10865
X6940Y9765
X5640Y7065
X13690Y6465
X11210Y8265
X11690Y3265
X12590Y5415
X7780Y7365
X13590Y8865
X4490Y8965
X5190Y8965
X12940Y8265
X10140Y11965
X8640Y11965
X8940Y8765
X12690Y17065
X13390Y18465
X11890Y18865
X13490Y12165
X4090Y12765
X11690Y12065
X8040Y3315
X11260Y7245
X8040Y2965
X11090Y6985
X13540Y14965
X11140Y14465
X9130Y2885
X10040Y4265
X7840Y9165
X6340Y8765
X13540Y11565
X11040Y5535
X8080Y8785
X3740Y7665
X11540Y6865
X10380Y4325
X11140Y7865
X8940Y8165
X11040Y4865
X4340Y11965
X5640Y12865
X11040Y4465
X10740Y4365
X6240Y11665
X5640Y11065
X7670Y6195
X8240Y5065
X7540Y9465
X6040Y9265
X11060Y5205
X12840Y14465
X11840Y15065
X12540Y15765
X11840Y15765
X12440Y8265
X13440Y8265
T02
X13034Y3965
X12246Y3965
T03
X2047Y19668
X2047Y9825
M30
