G75*
G70*
%OFA0B0*%
%FSLAX24Y24*%
%IPPOS*%
%LPD*%
%AMOC8*
5,1,8,0,0,1.08239X$1,22.5*
%
%ADD10C,0.1500*%
%ADD11R,0.0315X0.0098*%
%ADD12R,0.0098X0.0315*%
%ADD13R,0.0500X0.0220*%
%ADD14C,0.0570*%
%ADD15R,0.0433X0.0394*%
%ADD16R,0.0394X0.1063*%
%ADD17R,0.0669X0.0984*%
%ADD18R,0.0276X0.0354*%
%ADD19R,0.0217X0.0472*%
%ADD20R,0.0300X0.0300*%
%ADD21R,0.0354X0.0276*%
%ADD22R,0.0709X0.0709*%
%ADD23R,0.0327X0.0248*%
%ADD24R,0.0870X0.0240*%
%ADD25C,0.0240*%
%ADD26C,0.0070*%
%ADD27C,0.0080*%
%ADD28C,0.0090*%
%ADD29C,0.0200*%
%ADD30C,0.0150*%
%ADD31C,0.0160*%
D10*
X002047Y009825D03*
X002047Y019668D03*
D11*
X005056Y013658D03*
X005056Y013461D03*
X005056Y013264D03*
X005056Y013067D03*
X005056Y012870D03*
X005056Y012673D03*
X007024Y012673D03*
X007024Y012870D03*
X007024Y013067D03*
X007024Y013264D03*
X007024Y013461D03*
X007024Y013658D03*
D12*
X006729Y013953D03*
X006532Y013953D03*
X006335Y013953D03*
X006138Y013953D03*
X005942Y013953D03*
X005745Y013953D03*
X005548Y013953D03*
X005351Y013953D03*
X005351Y012378D03*
X005548Y012378D03*
X005745Y012378D03*
X005942Y012378D03*
X006138Y012378D03*
X006335Y012378D03*
X006532Y012378D03*
X006729Y012378D03*
D13*
X011460Y018485D03*
X011460Y019245D03*
X012420Y019245D03*
X012420Y018865D03*
X012420Y018485D03*
D14*
X012246Y003965D03*
X013034Y003965D03*
D15*
X011375Y009165D03*
X010705Y009165D03*
X010705Y011365D03*
X011375Y011365D03*
X008975Y011365D03*
X008305Y011365D03*
X008305Y009165D03*
X008975Y009165D03*
X010205Y017865D03*
X010875Y017865D03*
X011605Y017865D03*
X012275Y017865D03*
X010775Y019265D03*
X010105Y019265D03*
D16*
X011546Y020265D03*
X012334Y020265D03*
D17*
X013434Y019250D03*
X013434Y017675D03*
D18*
X012196Y017265D03*
X012196Y016665D03*
X011684Y016665D03*
X011684Y017265D03*
X010696Y018565D03*
X010184Y018565D03*
X006596Y014465D03*
X006084Y014465D03*
X009584Y011365D03*
X009584Y010765D03*
X010096Y010765D03*
X010096Y011365D03*
X010096Y009865D03*
X010096Y009165D03*
X009584Y009165D03*
X009584Y009865D03*
D19*
X009014Y009754D03*
X008640Y009754D03*
X008266Y009754D03*
X008266Y010777D03*
X009014Y010777D03*
X010666Y010777D03*
X011414Y010777D03*
X011414Y009754D03*
X011040Y009754D03*
X010666Y009754D03*
D20*
X000740Y011965D03*
X000740Y012465D03*
X000740Y012965D03*
X000740Y013465D03*
X000740Y013965D03*
X000740Y014465D03*
D21*
X004040Y011621D03*
X004040Y011110D03*
X007540Y012410D03*
X007540Y012921D03*
X007540Y013410D03*
X007540Y013921D03*
X011940Y010821D03*
X011940Y010310D03*
X011940Y009521D03*
X011940Y009010D03*
X012140Y002921D03*
X012140Y002410D03*
X012640Y002410D03*
X012640Y002921D03*
X013140Y002921D03*
X013140Y002410D03*
D22*
X013540Y004963D03*
X013540Y010967D03*
D23*
X012640Y011118D03*
X012640Y010213D03*
X012640Y009718D03*
X012640Y008813D03*
D24*
X006970Y010115D03*
X006970Y010615D03*
X006970Y011115D03*
X006970Y011615D03*
X004910Y011615D03*
X004910Y011115D03*
X004910Y010615D03*
X004910Y010115D03*
D25*
X005190Y008965D03*
X004490Y008965D03*
X003740Y007665D03*
X003040Y007665D03*
X003040Y007065D03*
X003040Y006465D03*
X003040Y005865D03*
X002940Y004765D03*
X002940Y004165D03*
X002940Y003565D03*
X002940Y002965D03*
X002540Y002565D03*
X002040Y002265D03*
X001340Y002265D03*
X000640Y002265D03*
X004540Y002665D03*
X004540Y003665D03*
X004540Y004665D03*
X004540Y005665D03*
X005540Y005665D03*
X005540Y004665D03*
X005540Y003665D03*
X005540Y002665D03*
X006540Y002665D03*
X006540Y003665D03*
X006540Y004665D03*
X006540Y005665D03*
X005640Y007065D03*
X006340Y008765D03*
X006040Y009265D03*
X006940Y009765D03*
X007540Y009465D03*
X007840Y009165D03*
X008080Y008785D03*
X008940Y008765D03*
X008940Y008165D03*
X007780Y007365D03*
X007670Y006195D03*
X008240Y005065D03*
X008040Y003315D03*
X008040Y002965D03*
X009130Y002885D03*
X010040Y004265D03*
X010380Y004325D03*
X010740Y004365D03*
X011040Y004465D03*
X011040Y004865D03*
X011060Y005205D03*
X011040Y005535D03*
X011540Y006865D03*
X011260Y007245D03*
X011090Y006985D03*
X011140Y007865D03*
X011210Y008265D03*
X012440Y008265D03*
X012940Y008265D03*
X013440Y008265D03*
X013590Y008865D03*
X013690Y006465D03*
X012590Y005415D03*
X012440Y003265D03*
X011690Y003265D03*
X013540Y011565D03*
X013490Y012165D03*
X012840Y014465D03*
X013540Y014965D03*
X012540Y015765D03*
X011840Y015765D03*
X011840Y015065D03*
X011140Y014465D03*
X011690Y012065D03*
X010140Y011965D03*
X008640Y011965D03*
X006240Y011665D03*
X005640Y011065D03*
X004990Y012165D03*
X004340Y011965D03*
X004090Y012765D03*
X003540Y010865D03*
X002840Y008665D03*
X002240Y008665D03*
X001640Y008665D03*
X001040Y008665D03*
X001040Y009265D03*
X001040Y009865D03*
X001040Y010465D03*
X000640Y010765D03*
X000640Y011265D03*
X005640Y012865D03*
X005640Y013365D03*
X006240Y013365D03*
X011890Y018865D03*
X013390Y018465D03*
X012690Y017065D03*
D26*
X011375Y010817D02*
X011414Y010777D01*
X012440Y003265D02*
X012640Y003065D01*
X012640Y002921D01*
X012140Y002921D01*
D27*
X000919Y002035D02*
X000731Y002113D01*
X000588Y002257D01*
X000510Y002444D01*
X000500Y002545D01*
X000500Y002680D01*
X002417Y002680D01*
X002525Y002789D01*
X002525Y008505D01*
X002417Y008613D01*
X000962Y008613D01*
X000962Y010442D01*
X000854Y010550D01*
X000500Y010550D01*
X000500Y011707D01*
X000504Y011703D01*
X000536Y011685D01*
X000572Y011675D01*
X000705Y011675D01*
X000705Y011930D01*
X000775Y011930D01*
X000775Y011675D01*
X000908Y011675D01*
X000944Y011685D01*
X000976Y011703D01*
X001002Y011729D01*
X001020Y011761D01*
X001030Y011797D01*
X001030Y011930D01*
X000775Y011930D01*
X000775Y012000D01*
X001030Y012000D01*
X001030Y012134D01*
X001020Y012169D01*
X001002Y012201D01*
X001012Y012211D01*
X003540Y009683D01*
X003540Y007861D01*
X003503Y007824D01*
X003460Y007721D01*
X003460Y007610D01*
X003503Y007507D01*
X003581Y007428D01*
X003684Y007385D01*
X003796Y007385D01*
X003899Y007428D01*
X003977Y007507D01*
X004020Y007610D01*
X004020Y007721D01*
X003977Y007824D01*
X003940Y007861D01*
X003940Y009848D01*
X003623Y010165D01*
X004040Y010165D01*
X004040Y009683D01*
X004157Y009565D01*
X004357Y009365D01*
X005778Y009365D01*
X005760Y009321D01*
X005760Y009210D01*
X005803Y009107D01*
X005881Y009028D01*
X005984Y008985D01*
X006096Y008985D01*
X006199Y009028D01*
X006236Y009065D01*
X006357Y009065D01*
X006377Y009045D01*
X006284Y009045D01*
X006181Y009003D01*
X006103Y008924D01*
X006060Y008821D01*
X006060Y008710D01*
X006103Y008607D01*
X006140Y008569D01*
X006140Y008083D01*
X007740Y006483D01*
X007740Y006470D01*
X007726Y006475D01*
X007614Y006475D01*
X007511Y006433D01*
X007433Y006354D01*
X007390Y006251D01*
X007390Y006140D01*
X007433Y006037D01*
X007440Y006029D01*
X007440Y002883D01*
X007557Y002765D01*
X008297Y002025D01*
X001020Y002025D01*
X000919Y002035D01*
X000760Y002101D02*
X008222Y002101D01*
X008143Y002179D02*
X000665Y002179D01*
X000587Y002258D02*
X008065Y002258D01*
X007986Y002336D02*
X000555Y002336D01*
X000522Y002415D02*
X007908Y002415D01*
X007829Y002493D02*
X000505Y002493D01*
X000500Y002572D02*
X007751Y002572D01*
X007672Y002650D02*
X000500Y002650D01*
X002465Y002729D02*
X007594Y002729D01*
X007515Y002807D02*
X002525Y002807D01*
X002525Y002886D02*
X007440Y002886D01*
X007440Y002964D02*
X002525Y002964D01*
X002525Y003043D02*
X007440Y003043D01*
X007440Y003121D02*
X002525Y003121D01*
X002525Y003200D02*
X007440Y003200D01*
X007440Y003278D02*
X002525Y003278D01*
X002525Y003357D02*
X007440Y003357D01*
X007440Y003435D02*
X002525Y003435D01*
X002525Y003514D02*
X007440Y003514D01*
X007440Y003592D02*
X002525Y003592D01*
X002525Y003671D02*
X007440Y003671D01*
X007440Y003749D02*
X002525Y003749D01*
X002525Y003828D02*
X007440Y003828D01*
X007440Y003906D02*
X002525Y003906D01*
X002525Y003985D02*
X007440Y003985D01*
X007440Y004063D02*
X002525Y004063D01*
X002525Y004142D02*
X007440Y004142D01*
X007440Y004220D02*
X002525Y004220D01*
X002525Y004299D02*
X007440Y004299D01*
X007440Y004377D02*
X002525Y004377D01*
X002525Y004456D02*
X007440Y004456D01*
X007440Y004534D02*
X002525Y004534D01*
X002525Y004613D02*
X007440Y004613D01*
X007440Y004691D02*
X002525Y004691D01*
X002525Y004770D02*
X007440Y004770D01*
X007440Y004848D02*
X002525Y004848D01*
X002525Y004927D02*
X007440Y004927D01*
X007440Y005005D02*
X002525Y005005D01*
X002525Y005084D02*
X007440Y005084D01*
X007440Y005162D02*
X002525Y005162D01*
X002525Y005241D02*
X007440Y005241D01*
X007440Y005319D02*
X002525Y005319D01*
X002525Y005398D02*
X007440Y005398D01*
X007440Y005476D02*
X002525Y005476D01*
X002525Y005555D02*
X007440Y005555D01*
X007440Y005633D02*
X002525Y005633D01*
X002525Y005712D02*
X007440Y005712D01*
X007440Y005790D02*
X002525Y005790D01*
X002525Y005869D02*
X007440Y005869D01*
X007440Y005947D02*
X002525Y005947D01*
X002525Y006026D02*
X007440Y006026D01*
X007405Y006104D02*
X002525Y006104D01*
X002525Y006183D02*
X007390Y006183D01*
X007394Y006261D02*
X002525Y006261D01*
X002525Y006340D02*
X007427Y006340D01*
X007497Y006418D02*
X002525Y006418D01*
X002525Y006497D02*
X007726Y006497D01*
X007647Y006575D02*
X002525Y006575D01*
X002525Y006654D02*
X007569Y006654D01*
X007490Y006732D02*
X002525Y006732D01*
X002525Y006811D02*
X007412Y006811D01*
X007333Y006889D02*
X002525Y006889D01*
X002525Y006968D02*
X007255Y006968D01*
X007176Y007046D02*
X002525Y007046D01*
X002525Y007125D02*
X007098Y007125D01*
X007019Y007203D02*
X002525Y007203D01*
X002525Y007282D02*
X006941Y007282D01*
X006862Y007360D02*
X002525Y007360D01*
X002525Y007439D02*
X003571Y007439D01*
X003498Y007517D02*
X002525Y007517D01*
X002525Y007596D02*
X003466Y007596D01*
X003460Y007674D02*
X002525Y007674D01*
X002525Y007753D02*
X003473Y007753D01*
X003510Y007831D02*
X002525Y007831D01*
X002525Y007910D02*
X003540Y007910D01*
X003540Y007988D02*
X002525Y007988D01*
X002525Y008067D02*
X003540Y008067D01*
X003540Y008145D02*
X002525Y008145D01*
X002525Y008224D02*
X003540Y008224D01*
X003540Y008302D02*
X002525Y008302D01*
X002525Y008381D02*
X003540Y008381D01*
X003540Y008459D02*
X002525Y008459D01*
X002492Y008538D02*
X003540Y008538D01*
X003540Y008616D02*
X000962Y008616D01*
X000962Y008695D02*
X003540Y008695D01*
X003540Y008773D02*
X000962Y008773D01*
X000962Y008852D02*
X003540Y008852D01*
X003540Y008930D02*
X000962Y008930D01*
X000962Y009009D02*
X001692Y009009D01*
X001653Y009025D02*
X001760Y008981D01*
X001873Y008951D01*
X001989Y008935D01*
X002007Y008935D01*
X002007Y009785D01*
X002087Y009785D01*
X002087Y008935D01*
X002105Y008935D01*
X002221Y008951D01*
X002334Y008981D01*
X002442Y009025D01*
X002543Y009084D01*
X002635Y009155D01*
X002718Y009237D01*
X002789Y009330D01*
X002847Y009431D01*
X002892Y009539D01*
X002922Y009651D01*
X002937Y009767D01*
X002937Y009785D01*
X002087Y009785D01*
X002087Y009865D01*
X002937Y009865D01*
X002937Y009884D01*
X002922Y009999D01*
X002892Y010112D01*
X002847Y010220D01*
X002789Y010321D01*
X002718Y010413D01*
X002635Y010496D01*
X002543Y010567D01*
X002442Y010625D01*
X002334Y010670D01*
X002221Y010700D01*
X002105Y010715D01*
X002087Y010715D01*
X002087Y009865D01*
X002007Y009865D01*
X002007Y009785D01*
X001157Y009785D01*
X001157Y009767D01*
X001172Y009651D01*
X001203Y009539D01*
X001247Y009431D01*
X001306Y009330D01*
X001377Y009237D01*
X001459Y009155D01*
X001552Y009084D01*
X001653Y009025D01*
X001547Y009087D02*
X000962Y009087D01*
X000962Y009166D02*
X001448Y009166D01*
X001371Y009244D02*
X000962Y009244D01*
X000962Y009323D02*
X001311Y009323D01*
X001264Y009401D02*
X000962Y009401D01*
X000962Y009480D02*
X001227Y009480D01*
X001197Y009558D02*
X000962Y009558D01*
X000962Y009637D02*
X001176Y009637D01*
X001164Y009715D02*
X000962Y009715D01*
X000962Y009794D02*
X002007Y009794D01*
X002007Y009865D02*
X001157Y009865D01*
X001157Y009884D01*
X001172Y009999D01*
X001203Y010112D01*
X001247Y010220D01*
X001306Y010321D01*
X001377Y010413D01*
X001459Y010496D01*
X001552Y010567D01*
X001653Y010625D01*
X001760Y010670D01*
X001873Y010700D01*
X001989Y010715D01*
X002007Y010715D01*
X002007Y009865D01*
X002007Y009872D02*
X002087Y009872D01*
X002087Y009794D02*
X003429Y009794D01*
X003507Y009715D02*
X002930Y009715D01*
X002918Y009637D02*
X003540Y009637D01*
X003540Y009558D02*
X002897Y009558D01*
X002867Y009480D02*
X003540Y009480D01*
X003540Y009401D02*
X002830Y009401D01*
X002783Y009323D02*
X003540Y009323D01*
X003540Y009244D02*
X002723Y009244D01*
X002646Y009166D02*
X003540Y009166D01*
X003540Y009087D02*
X002548Y009087D01*
X002402Y009009D02*
X003540Y009009D01*
X003940Y009009D02*
X005928Y009009D01*
X005822Y009087D02*
X003940Y009087D01*
X003940Y009166D02*
X005778Y009166D01*
X005760Y009244D02*
X003940Y009244D01*
X003940Y009323D02*
X005761Y009323D01*
X006040Y009265D02*
X006440Y009265D01*
X008240Y007465D01*
X008240Y005065D01*
X007940Y004065D02*
X009130Y002885D01*
X009150Y002865D01*
X009440Y002865D01*
X010040Y003465D01*
X010040Y004265D01*
X010380Y004325D02*
X010740Y003965D01*
X011040Y003965D01*
X011540Y004465D01*
X011540Y006865D01*
X011840Y006965D02*
X011540Y007265D01*
X011280Y007265D01*
X011260Y007245D01*
X011090Y006985D02*
X010940Y006965D01*
X010840Y007065D01*
X010840Y007365D01*
X010940Y007465D01*
X011540Y007465D01*
X012040Y006965D01*
X012040Y004465D01*
X009840Y002265D01*
X008740Y002265D01*
X008040Y002965D01*
X008040Y003315D02*
X008940Y002465D01*
X009840Y002465D01*
X011840Y004465D01*
X011840Y006965D01*
X012006Y007282D02*
X012234Y007282D01*
X012312Y007203D02*
X012085Y007203D01*
X012123Y007165D02*
X011740Y007548D01*
X011740Y007548D01*
X011623Y007665D01*
X011336Y007665D01*
X011377Y007707D01*
X011420Y007810D01*
X011420Y007921D01*
X011377Y008024D01*
X011299Y008103D01*
X011196Y008145D01*
X011084Y008145D01*
X010981Y008103D01*
X010903Y008024D01*
X010860Y007921D01*
X010860Y007868D01*
X010857Y007865D01*
X009523Y007865D01*
X009220Y008168D01*
X009220Y008221D01*
X009181Y008315D01*
X011187Y008315D01*
X011189Y008311D01*
X011216Y008300D01*
X013340Y006176D01*
X013340Y005533D01*
X013285Y005478D01*
X013119Y005478D01*
X013026Y005384D01*
X013026Y004543D01*
X013119Y004449D01*
X013207Y004449D01*
X013220Y004418D01*
X013580Y004058D01*
X013580Y003773D01*
X013432Y003625D01*
X013289Y003625D01*
X013311Y003641D01*
X013358Y003689D01*
X013397Y003743D01*
X013428Y003802D01*
X013448Y003866D01*
X013459Y003932D01*
X013459Y003937D01*
X013063Y003937D01*
X013063Y003994D01*
X013459Y003994D01*
X013459Y003999D01*
X013448Y004065D01*
X013428Y004129D01*
X013397Y004188D01*
X013358Y004242D01*
X013311Y004290D01*
X013256Y004329D01*
X013197Y004359D01*
X013133Y004380D01*
X013067Y004390D01*
X013063Y004390D01*
X013063Y003994D01*
X013005Y003994D01*
X013005Y004390D01*
X013000Y004390D01*
X012934Y004380D01*
X012871Y004359D01*
X012811Y004329D01*
X012757Y004290D01*
X012710Y004242D01*
X012670Y004188D01*
X012651Y004151D01*
X012624Y004218D01*
X012498Y004343D01*
X012335Y004410D01*
X012240Y004410D01*
X012240Y007048D01*
X012123Y007165D01*
X012123Y007165D01*
X012163Y007125D02*
X012391Y007125D01*
X012469Y007046D02*
X012240Y007046D01*
X012240Y006968D02*
X012548Y006968D01*
X012626Y006889D02*
X012240Y006889D01*
X012240Y006811D02*
X012705Y006811D01*
X012640Y006865D02*
X011210Y008265D01*
X011209Y008302D02*
X009186Y008302D01*
X009219Y008224D02*
X011292Y008224D01*
X011370Y008145D02*
X009243Y008145D01*
X009321Y008067D02*
X010946Y008067D01*
X010888Y007988D02*
X009400Y007988D01*
X009478Y007910D02*
X010860Y007910D01*
X010940Y007665D02*
X009440Y007665D01*
X008940Y008165D01*
X008640Y008515D02*
X008305Y008850D01*
X008305Y009165D01*
X008266Y009205D01*
X008266Y009754D01*
X008626Y009739D02*
X008626Y009485D01*
X008654Y009456D01*
X008654Y009739D01*
X008626Y009739D01*
X008640Y009754D02*
X008640Y009500D01*
X008975Y009165D01*
X008935Y009125D02*
X009015Y009125D01*
X009015Y008829D01*
X009210Y008829D01*
X009245Y008838D01*
X009277Y008857D01*
X009303Y008883D01*
X009311Y008897D01*
X009380Y008828D01*
X009788Y008828D01*
X009840Y008880D01*
X009892Y008828D01*
X010300Y008828D01*
X010369Y008897D01*
X010377Y008883D01*
X010403Y008857D01*
X010435Y008838D01*
X010470Y008829D01*
X010665Y008829D01*
X010665Y009125D01*
X010745Y009125D01*
X010745Y008829D01*
X010940Y008829D01*
X010976Y008838D01*
X011008Y008857D01*
X011026Y008875D01*
X011092Y008809D01*
X011240Y008809D01*
X011240Y008715D01*
X008723Y008715D01*
X008609Y008829D01*
X008654Y008875D01*
X008672Y008857D01*
X008704Y008838D01*
X008740Y008829D01*
X008935Y008829D01*
X008935Y009125D01*
X008935Y009087D02*
X009015Y009087D01*
X009015Y009009D02*
X008935Y009009D01*
X008935Y008930D02*
X009015Y008930D01*
X009015Y008852D02*
X008935Y008852D01*
X008680Y008852D02*
X008632Y008852D01*
X008665Y008773D02*
X011240Y008773D01*
X011048Y008852D02*
X011000Y008852D01*
X010745Y008852D02*
X010665Y008852D01*
X010665Y008930D02*
X010745Y008930D01*
X010745Y009009D02*
X010665Y009009D01*
X010665Y009087D02*
X010745Y009087D01*
X010705Y009165D02*
X011040Y009500D01*
X011040Y009754D01*
X011054Y009740D02*
X011054Y009485D01*
X011026Y009456D01*
X011026Y009740D01*
X011054Y009740D01*
X011054Y009715D02*
X011026Y009715D01*
X011026Y009637D02*
X011054Y009637D01*
X011054Y009558D02*
X011026Y009558D01*
X011026Y009480D02*
X011050Y009480D01*
X011375Y009165D02*
X011440Y009100D01*
X011440Y008595D01*
X011360Y008515D01*
X011340Y008465D01*
X011360Y008515D02*
X008640Y008515D01*
X008140Y008565D02*
X008140Y008725D01*
X008080Y008785D01*
X008140Y008565D02*
X009240Y007465D01*
X009240Y007165D01*
X010840Y005565D01*
X011040Y005535D01*
X011060Y005205D02*
X010840Y005265D01*
X009040Y007065D01*
X009040Y007465D01*
X007140Y009365D01*
X007140Y009665D01*
X007240Y009765D01*
X007440Y009765D01*
X007540Y009865D01*
X007540Y011765D01*
X007440Y011865D01*
X006440Y011865D01*
X006340Y011965D01*
X006340Y012373D01*
X006335Y012378D01*
X006140Y012376D02*
X006138Y012378D01*
X006138Y011767D01*
X006240Y011665D01*
X005940Y011365D02*
X005790Y011515D01*
X005640Y011365D01*
X002940Y011365D01*
X000840Y013465D01*
X000740Y013465D01*
X000740Y012965D02*
X000940Y012965D01*
X003540Y010365D01*
X004240Y010365D01*
X004440Y010565D01*
X004860Y010565D01*
X004910Y010615D01*
X004960Y010665D01*
X005540Y010665D01*
X005640Y010765D01*
X005640Y011065D01*
X005940Y011365D02*
X005940Y010165D01*
X004960Y010165D01*
X004910Y010115D01*
X004440Y009565D02*
X004240Y009765D01*
X004240Y010365D01*
X004157Y010565D02*
X003623Y010565D01*
X003023Y011165D01*
X003723Y011165D01*
X003723Y011138D01*
X004011Y011138D01*
X004011Y011081D01*
X003723Y011081D01*
X003723Y010953D01*
X003732Y010918D01*
X003751Y010886D01*
X003777Y010860D01*
X003809Y010841D01*
X003844Y010832D01*
X004011Y010832D01*
X004011Y011081D01*
X004069Y011081D01*
X004069Y010832D01*
X004236Y010832D01*
X004271Y010841D01*
X004303Y010860D01*
X004329Y010886D01*
X004340Y010904D01*
X004379Y010865D01*
X004315Y010802D01*
X004315Y010723D01*
X004240Y010648D01*
X004157Y010565D01*
X004171Y010579D02*
X003609Y010579D01*
X003531Y010657D02*
X004249Y010657D01*
X004315Y010736D02*
X003452Y010736D01*
X003374Y010814D02*
X004328Y010814D01*
X004333Y010893D02*
X004351Y010893D01*
X004069Y010893D02*
X004011Y010893D01*
X004011Y010971D02*
X004069Y010971D01*
X004069Y011050D02*
X004011Y011050D01*
X004011Y011128D02*
X003060Y011128D01*
X003138Y011050D02*
X003723Y011050D01*
X003723Y010971D02*
X003217Y010971D01*
X003295Y010893D02*
X003747Y010893D01*
X004040Y011621D02*
X004346Y011615D01*
X004640Y011615D01*
X004640Y012265D01*
X002940Y012265D01*
X000740Y014465D01*
X001050Y014438D02*
X003023Y012465D01*
X004440Y012465D01*
X004440Y013848D01*
X004557Y013965D01*
X004745Y014153D01*
X005142Y014153D01*
X005142Y014177D01*
X005236Y014270D01*
X005786Y014270D01*
X005786Y014709D01*
X005880Y014803D01*
X006288Y014803D01*
X006354Y014737D01*
X006372Y014755D01*
X006404Y014773D01*
X006440Y014783D01*
X006567Y014783D01*
X006567Y014494D01*
X006625Y014494D01*
X006874Y014494D01*
X006874Y014661D01*
X010900Y014661D01*
X010900Y014618D02*
X010860Y014521D01*
X010860Y014410D01*
X010903Y014307D01*
X010981Y014228D01*
X011084Y014185D01*
X011137Y014185D01*
X011557Y013765D01*
X013023Y013765D01*
X013140Y013883D01*
X013623Y014365D01*
X013740Y014483D01*
X013740Y014769D01*
X013777Y014807D01*
X013820Y014910D01*
X013820Y015021D01*
X013777Y015124D01*
X013699Y015203D01*
X013596Y015245D01*
X013484Y015245D01*
X013381Y015203D01*
X013303Y015124D01*
X013260Y015021D01*
X013260Y014910D01*
X013303Y014807D01*
X013340Y014769D01*
X013340Y014648D01*
X013120Y014428D01*
X013120Y014521D01*
X013077Y014624D01*
X012999Y014703D01*
X012896Y014745D01*
X012784Y014745D01*
X012681Y014703D01*
X012644Y014665D01*
X012523Y014665D01*
X012120Y015068D01*
X012120Y015121D01*
X012077Y015224D01*
X011999Y015303D01*
X011896Y015345D01*
X011784Y015345D01*
X011681Y015303D01*
X011603Y015224D01*
X011560Y015121D01*
X011560Y015010D01*
X011603Y014907D01*
X011681Y014828D01*
X011784Y014785D01*
X011837Y014785D01*
X012357Y014265D01*
X012644Y014265D01*
X012681Y014228D01*
X012784Y014185D01*
X012877Y014185D01*
X012857Y014165D01*
X011723Y014165D01*
X011420Y014468D01*
X011420Y014521D01*
X011380Y014618D01*
X011380Y015905D01*
X011595Y015905D01*
X011560Y015821D01*
X011560Y015710D01*
X011603Y015607D01*
X011681Y015528D01*
X011784Y015485D01*
X011896Y015485D01*
X011999Y015528D01*
X012036Y015565D01*
X012344Y015565D01*
X012381Y015528D01*
X012484Y015485D01*
X012596Y015485D01*
X012699Y015528D01*
X012777Y015607D01*
X012820Y015710D01*
X012820Y015821D01*
X012777Y015924D01*
X012699Y016003D01*
X012661Y016019D01*
X013655Y017012D01*
X013659Y017023D01*
X013835Y017023D01*
X013880Y017068D01*
X013880Y011482D01*
X013808Y011482D01*
X013820Y011510D01*
X013820Y011621D01*
X013777Y011724D01*
X013699Y011803D01*
X013596Y011845D01*
X013484Y011845D01*
X013381Y011803D01*
X013344Y011765D01*
X012257Y011765D01*
X012140Y011648D01*
X012057Y011565D01*
X011751Y011565D01*
X011751Y011629D01*
X011657Y011722D01*
X011466Y011722D01*
X010696Y012492D01*
X010579Y012610D01*
X007877Y012610D01*
X007877Y012614D01*
X007811Y012680D01*
X007829Y012698D01*
X007848Y012730D01*
X007857Y012765D01*
X007857Y012892D01*
X007569Y012892D01*
X007569Y012950D01*
X007857Y012950D01*
X007857Y013078D01*
X007848Y013113D01*
X007829Y013145D01*
X007809Y013165D01*
X007829Y013186D01*
X007848Y013218D01*
X007857Y013253D01*
X007857Y013381D01*
X007569Y013381D01*
X007569Y013438D01*
X007857Y013438D01*
X007857Y013566D01*
X007848Y013601D01*
X007829Y013633D01*
X007811Y013651D01*
X007877Y013717D01*
X007877Y014125D01*
X007783Y014219D01*
X007297Y014219D01*
X007203Y014125D01*
X007203Y014065D01*
X007057Y014065D01*
X006940Y013948D01*
X006938Y013946D01*
X006938Y014177D01*
X006868Y014247D01*
X006874Y014270D01*
X006874Y014437D01*
X006625Y014437D01*
X006625Y014494D01*
X006625Y014783D01*
X006752Y014783D01*
X006788Y014773D01*
X006820Y014755D01*
X006846Y014729D01*
X006864Y014697D01*
X006874Y014661D01*
X006874Y014582D02*
X010885Y014582D01*
X010900Y014618D02*
X010900Y015965D01*
X010880Y016014D01*
X010880Y016117D01*
X010920Y016213D01*
X010992Y016285D01*
X010980Y016314D01*
X010980Y017117D01*
X011020Y017213D01*
X011220Y017413D01*
X011293Y017486D01*
X011345Y017508D01*
X011345Y017509D01*
X011323Y017509D01*
X011240Y017591D01*
X011157Y017509D01*
X010592Y017509D01*
X010526Y017575D01*
X010508Y017557D01*
X010476Y017538D01*
X010440Y017529D01*
X010245Y017529D01*
X010245Y017825D01*
X010165Y017825D01*
X010165Y017529D01*
X009970Y017529D01*
X009935Y017538D01*
X009903Y017557D01*
X009877Y017583D01*
X009858Y017615D01*
X009849Y017650D01*
X009849Y017825D01*
X010165Y017825D01*
X010165Y017905D01*
X009849Y017905D01*
X009849Y018081D01*
X009858Y018116D01*
X009877Y018148D01*
X009903Y018174D01*
X009935Y018193D01*
X009970Y018202D01*
X010165Y018202D01*
X010165Y017905D01*
X010245Y017905D01*
X010245Y018202D01*
X010440Y018202D01*
X010476Y018193D01*
X010508Y018174D01*
X010526Y018156D01*
X010592Y018222D01*
X011137Y018222D01*
X011134Y018225D01*
X010724Y018225D01*
X010717Y018228D01*
X010492Y018228D01*
X010426Y018294D01*
X010408Y018276D01*
X010376Y018258D01*
X010340Y018248D01*
X010213Y018248D01*
X010213Y018537D01*
X010155Y018537D01*
X009906Y018537D01*
X009906Y018370D01*
X009916Y018334D01*
X009934Y018302D01*
X009960Y018276D01*
X009992Y018258D01*
X010028Y018248D01*
X010155Y018248D01*
X010155Y018537D01*
X010155Y018594D01*
X009906Y018594D01*
X009906Y018761D01*
X009916Y018797D01*
X009934Y018829D01*
X009960Y018855D01*
X009992Y018873D01*
X010028Y018883D01*
X010155Y018883D01*
X010155Y018594D01*
X010213Y018594D01*
X010213Y018883D01*
X010340Y018883D01*
X010376Y018873D01*
X010408Y018855D01*
X010426Y018837D01*
X010492Y018903D01*
X010900Y018903D01*
X010994Y018809D01*
X010994Y018745D01*
X011134Y018745D01*
X011144Y018755D01*
X011776Y018755D01*
X011870Y018662D01*
X011870Y018309D01*
X011783Y018222D01*
X011888Y018222D01*
X011940Y018170D01*
X011992Y018222D01*
X012097Y018222D01*
X012010Y018309D01*
X012010Y018662D01*
X012043Y018695D01*
X012040Y018701D01*
X012030Y018737D01*
X012030Y018850D01*
X012405Y018850D01*
X012405Y018880D01*
X012030Y018880D01*
X012030Y018994D01*
X012040Y019029D01*
X012043Y019036D01*
X012010Y019069D01*
X012010Y019422D01*
X012074Y019485D01*
X012074Y019574D01*
X012071Y019574D01*
X011977Y019668D01*
X011977Y020805D01*
X011948Y020805D01*
X011903Y020761D01*
X011903Y019668D01*
X011809Y019574D01*
X011806Y019574D01*
X011806Y019485D01*
X011870Y019422D01*
X011870Y019069D01*
X011776Y018975D01*
X011144Y018975D01*
X011134Y018985D01*
X011057Y018909D01*
X010492Y018909D01*
X010426Y018975D01*
X010408Y018957D01*
X010376Y018938D01*
X010340Y018929D01*
X010145Y018929D01*
X010145Y019225D01*
X010065Y019225D01*
X010065Y018929D01*
X009870Y018929D01*
X009835Y018938D01*
X009803Y018957D01*
X009777Y018983D01*
X009758Y019015D01*
X009749Y019050D01*
X009749Y019225D01*
X010065Y019225D01*
X010065Y019305D01*
X009749Y019305D01*
X009749Y019481D01*
X009758Y019516D01*
X009777Y019548D01*
X009803Y019574D01*
X009835Y019593D01*
X009870Y019602D01*
X010065Y019602D01*
X010065Y019305D01*
X010145Y019305D01*
X010145Y019602D01*
X010340Y019602D01*
X010376Y019593D01*
X010408Y019574D01*
X010426Y019556D01*
X010492Y019622D01*
X011057Y019622D01*
X011151Y019529D01*
X011151Y019515D01*
X011286Y019515D01*
X011286Y019574D01*
X011283Y019574D01*
X011189Y019668D01*
X011189Y020863D01*
X011283Y020957D01*
X011364Y020957D01*
X011534Y021127D01*
X001020Y021127D01*
X000919Y021117D01*
X000731Y021040D01*
X000588Y020896D01*
X000510Y020709D01*
X000500Y020607D01*
X000500Y014752D01*
X000524Y014775D01*
X000956Y014775D01*
X001050Y014682D01*
X001050Y014438D01*
X001063Y014425D02*
X005786Y014425D01*
X005786Y014347D02*
X001141Y014347D01*
X001220Y014268D02*
X005234Y014268D01*
X005155Y014190D02*
X001298Y014190D01*
X001377Y014111D02*
X004703Y014111D01*
X004625Y014033D02*
X001455Y014033D01*
X001534Y013954D02*
X004546Y013954D01*
X004468Y013876D02*
X001612Y013876D01*
X001691Y013797D02*
X004440Y013797D01*
X004440Y013719D02*
X001769Y013719D01*
X001848Y013640D02*
X004440Y013640D01*
X004440Y013562D02*
X001926Y013562D01*
X002005Y013483D02*
X004440Y013483D01*
X004440Y013405D02*
X002083Y013405D01*
X002162Y013326D02*
X004440Y013326D01*
X004440Y013248D02*
X002240Y013248D01*
X002319Y013169D02*
X004440Y013169D01*
X004440Y013091D02*
X002397Y013091D01*
X002476Y013012D02*
X004440Y013012D01*
X004440Y012934D02*
X002554Y012934D01*
X002633Y012855D02*
X004440Y012855D01*
X004440Y012777D02*
X002711Y012777D01*
X002790Y012698D02*
X004440Y012698D01*
X004440Y012620D02*
X002868Y012620D01*
X002947Y012541D02*
X004440Y012541D01*
X004640Y012265D02*
X004640Y013765D01*
X004827Y013953D01*
X005351Y013953D01*
X005548Y013953D01*
X005745Y013953D01*
X005942Y013953D01*
X006138Y013953D01*
X006084Y014007D01*
X006084Y014465D01*
X005786Y014504D02*
X001050Y014504D01*
X001050Y014582D02*
X005786Y014582D01*
X005786Y014661D02*
X001050Y014661D01*
X000992Y014739D02*
X005817Y014739D01*
X006351Y014739D02*
X006357Y014739D01*
X006567Y014739D02*
X006625Y014739D01*
X006625Y014661D02*
X006567Y014661D01*
X006567Y014582D02*
X006625Y014582D01*
X006625Y014504D02*
X006567Y014504D01*
X006835Y014739D02*
X010900Y014739D01*
X010900Y014818D02*
X000500Y014818D01*
X000500Y014896D02*
X010900Y014896D01*
X010900Y014975D02*
X000500Y014975D01*
X000500Y015054D02*
X010900Y015054D01*
X010900Y015132D02*
X000500Y015132D01*
X000500Y015211D02*
X010900Y015211D01*
X010900Y015289D02*
X000500Y015289D01*
X000500Y015368D02*
X010900Y015368D01*
X010900Y015446D02*
X000500Y015446D01*
X000500Y015525D02*
X010900Y015525D01*
X010900Y015603D02*
X000500Y015603D01*
X000500Y015682D02*
X010900Y015682D01*
X010900Y015760D02*
X000500Y015760D01*
X000500Y015839D02*
X010900Y015839D01*
X010900Y015917D02*
X000500Y015917D01*
X000500Y015996D02*
X010888Y015996D01*
X010880Y016074D02*
X000500Y016074D01*
X000500Y016153D02*
X010895Y016153D01*
X010938Y016231D02*
X000500Y016231D01*
X000500Y016310D02*
X010982Y016310D01*
X010980Y016388D02*
X000500Y016388D01*
X000500Y016467D02*
X010980Y016467D01*
X010980Y016545D02*
X000500Y016545D01*
X000500Y016624D02*
X010980Y016624D01*
X010980Y016702D02*
X000500Y016702D01*
X000500Y016781D02*
X010980Y016781D01*
X010980Y016859D02*
X000500Y016859D01*
X000500Y016938D02*
X010980Y016938D01*
X010980Y017016D02*
X000500Y017016D01*
X000500Y017095D02*
X010980Y017095D01*
X011003Y017173D02*
X000500Y017173D01*
X000500Y017252D02*
X011058Y017252D01*
X011137Y017330D02*
X000500Y017330D01*
X000500Y017409D02*
X011215Y017409D01*
X011295Y017487D02*
X000500Y017487D01*
X000500Y017566D02*
X009894Y017566D01*
X009850Y017644D02*
X000500Y017644D01*
X000500Y017723D02*
X009849Y017723D01*
X009849Y017801D02*
X000500Y017801D01*
X000500Y017880D02*
X010165Y017880D01*
X010165Y017958D02*
X010245Y017958D01*
X010245Y018037D02*
X010165Y018037D01*
X010165Y018115D02*
X010245Y018115D01*
X010245Y018194D02*
X010165Y018194D01*
X010155Y018272D02*
X010213Y018272D01*
X010213Y018351D02*
X010155Y018351D01*
X010155Y018429D02*
X010213Y018429D01*
X010213Y018508D02*
X010155Y018508D01*
X010155Y018586D02*
X000500Y018586D01*
X000500Y018508D02*
X009906Y018508D01*
X009906Y018429D02*
X000500Y018429D01*
X000500Y018351D02*
X009911Y018351D01*
X009968Y018272D02*
X000500Y018272D01*
X000500Y018194D02*
X009938Y018194D01*
X009858Y018115D02*
X000500Y018115D01*
X000500Y018037D02*
X009849Y018037D01*
X009849Y017958D02*
X000500Y017958D01*
X000500Y018665D02*
X009906Y018665D01*
X009906Y018743D02*
X000500Y018743D01*
X000500Y018822D02*
X001767Y018822D01*
X001760Y018823D02*
X001873Y018793D01*
X001989Y018778D01*
X002007Y018778D01*
X002007Y019628D01*
X001157Y019628D01*
X001157Y019609D01*
X001172Y019494D01*
X001203Y019381D01*
X001247Y019273D01*
X001306Y019172D01*
X001377Y019080D01*
X001459Y018997D01*
X001552Y018926D01*
X001653Y018868D01*
X001760Y018823D01*
X001597Y018900D02*
X000500Y018900D01*
X000500Y018979D02*
X001483Y018979D01*
X001399Y019057D02*
X000500Y019057D01*
X000500Y019136D02*
X001334Y019136D01*
X001281Y019214D02*
X000500Y019214D01*
X000500Y019293D02*
X001239Y019293D01*
X001207Y019371D02*
X000500Y019371D01*
X000500Y019450D02*
X001184Y019450D01*
X001168Y019528D02*
X000500Y019528D01*
X000500Y019607D02*
X001158Y019607D01*
X001157Y019708D02*
X002007Y019708D01*
X002007Y020558D01*
X001989Y020558D01*
X001873Y020543D01*
X001760Y020512D01*
X001653Y020468D01*
X001552Y020409D01*
X001459Y020338D01*
X001377Y020256D01*
X001306Y020163D01*
X001247Y020062D01*
X001203Y019955D01*
X001172Y019842D01*
X001157Y019726D01*
X001157Y019708D01*
X001162Y019764D02*
X000500Y019764D01*
X000500Y019842D02*
X001172Y019842D01*
X001193Y019921D02*
X000500Y019921D01*
X000500Y019999D02*
X001221Y019999D01*
X001256Y020078D02*
X000500Y020078D01*
X000500Y020156D02*
X001301Y020156D01*
X001360Y020235D02*
X000500Y020235D01*
X000500Y020313D02*
X001434Y020313D01*
X001528Y020392D02*
X000500Y020392D01*
X000500Y020470D02*
X001658Y020470D01*
X001918Y020549D02*
X000500Y020549D01*
X000502Y020627D02*
X011189Y020627D01*
X011189Y020549D02*
X002176Y020549D01*
X002221Y020543D02*
X002105Y020558D01*
X002087Y020558D01*
X002087Y019708D01*
X002007Y019708D01*
X002007Y019628D01*
X002087Y019628D01*
X002087Y019708D01*
X002937Y019708D01*
X002937Y019726D01*
X002922Y019842D01*
X011189Y019842D01*
X011189Y019764D02*
X002932Y019764D01*
X002922Y019842D02*
X002892Y019955D01*
X002847Y020062D01*
X002789Y020163D01*
X002718Y020256D01*
X002635Y020338D01*
X002543Y020409D01*
X002442Y020468D01*
X002334Y020512D01*
X002221Y020543D01*
X002087Y020549D02*
X002007Y020549D01*
X002007Y020470D02*
X002087Y020470D01*
X002087Y020392D02*
X002007Y020392D01*
X002007Y020313D02*
X002087Y020313D01*
X002087Y020235D02*
X002007Y020235D01*
X002007Y020156D02*
X002087Y020156D01*
X002087Y020078D02*
X002007Y020078D01*
X002007Y019999D02*
X002087Y019999D01*
X002087Y019921D02*
X002007Y019921D01*
X002007Y019842D02*
X002087Y019842D01*
X002087Y019764D02*
X002007Y019764D01*
X002007Y019685D02*
X000500Y019685D01*
X000510Y020706D02*
X011189Y020706D01*
X011189Y020784D02*
X000541Y020784D01*
X000574Y020863D02*
X011189Y020863D01*
X011267Y020941D02*
X000632Y020941D01*
X000711Y021020D02*
X011426Y021020D01*
X011505Y021098D02*
X000872Y021098D01*
X002087Y019685D02*
X011189Y019685D01*
X011251Y019607D02*
X011073Y019607D01*
X011151Y019528D02*
X011286Y019528D01*
X011189Y019921D02*
X002901Y019921D01*
X002873Y019999D02*
X011189Y019999D01*
X011189Y020078D02*
X002838Y020078D01*
X002793Y020156D02*
X011189Y020156D01*
X011189Y020235D02*
X002734Y020235D01*
X002661Y020313D02*
X011189Y020313D01*
X011189Y020392D02*
X002566Y020392D01*
X002436Y020470D02*
X011189Y020470D01*
X011842Y019607D02*
X012038Y019607D01*
X012074Y019528D02*
X011806Y019528D01*
X011842Y019450D02*
X012038Y019450D01*
X012010Y019371D02*
X011870Y019371D01*
X011870Y019293D02*
X012010Y019293D01*
X012010Y019214D02*
X011870Y019214D01*
X011870Y019136D02*
X012010Y019136D01*
X012022Y019057D02*
X011858Y019057D01*
X011779Y018979D02*
X012030Y018979D01*
X012030Y018900D02*
X010903Y018900D01*
X010981Y018822D02*
X012030Y018822D01*
X012030Y018743D02*
X011789Y018743D01*
X011867Y018665D02*
X012013Y018665D01*
X012010Y018586D02*
X011870Y018586D01*
X011870Y018508D02*
X012010Y018508D01*
X012010Y018429D02*
X011870Y018429D01*
X011870Y018351D02*
X012010Y018351D01*
X012047Y018272D02*
X011833Y018272D01*
X011917Y018194D02*
X011963Y018194D01*
X012435Y018850D02*
X012435Y018880D01*
X012810Y018880D01*
X012810Y018985D01*
X012939Y018985D01*
X012939Y018691D01*
X013033Y018597D01*
X013835Y018597D01*
X013880Y018642D01*
X013880Y018282D01*
X013835Y018327D01*
X013033Y018327D01*
X012939Y018233D01*
X012939Y017116D01*
X012981Y017074D01*
X012474Y016567D01*
X012474Y016637D01*
X012225Y016637D01*
X012225Y016694D01*
X012474Y016694D01*
X012474Y016861D01*
X012464Y016897D01*
X012446Y016929D01*
X012423Y016951D01*
X012494Y017022D01*
X012494Y017196D01*
X012495Y017197D01*
X012535Y017292D01*
X012535Y017509D01*
X012557Y017509D01*
X012651Y017602D01*
X012651Y017890D01*
X012680Y017959D01*
X012680Y018215D01*
X012736Y018215D01*
X012830Y018309D01*
X012830Y018662D01*
X012797Y018695D01*
X012800Y018701D01*
X012810Y018737D01*
X012810Y018850D01*
X012435Y018850D01*
X012810Y018822D02*
X012939Y018822D01*
X012939Y018900D02*
X012810Y018900D01*
X012810Y018979D02*
X012939Y018979D01*
X012939Y018743D02*
X012810Y018743D01*
X012827Y018665D02*
X012966Y018665D01*
X012830Y018586D02*
X013880Y018586D01*
X013880Y018508D02*
X012830Y018508D01*
X012830Y018429D02*
X013880Y018429D01*
X013880Y018351D02*
X012830Y018351D01*
X012793Y018272D02*
X012978Y018272D01*
X012939Y018194D02*
X012680Y018194D01*
X012680Y018115D02*
X012939Y018115D01*
X012939Y018037D02*
X012680Y018037D01*
X012680Y017958D02*
X012939Y017958D01*
X012939Y017880D02*
X012651Y017880D01*
X012651Y017801D02*
X012939Y017801D01*
X012939Y017723D02*
X012651Y017723D01*
X012651Y017644D02*
X012939Y017644D01*
X012939Y017566D02*
X012614Y017566D01*
X012535Y017487D02*
X012939Y017487D01*
X012939Y017409D02*
X012535Y017409D01*
X012535Y017330D02*
X012939Y017330D01*
X012939Y017252D02*
X012518Y017252D01*
X012494Y017173D02*
X012939Y017173D01*
X012961Y017095D02*
X012494Y017095D01*
X012488Y017016D02*
X012923Y017016D01*
X012844Y016938D02*
X012437Y016938D01*
X012474Y016859D02*
X012766Y016859D01*
X012687Y016781D02*
X012474Y016781D01*
X012474Y016702D02*
X012609Y016702D01*
X012530Y016624D02*
X012474Y016624D01*
X012716Y016074D02*
X013880Y016074D01*
X013880Y015996D02*
X012706Y015996D01*
X012780Y015917D02*
X013880Y015917D01*
X013880Y015839D02*
X012813Y015839D01*
X012820Y015760D02*
X013880Y015760D01*
X013880Y015682D02*
X012808Y015682D01*
X012774Y015603D02*
X013880Y015603D01*
X013880Y015525D02*
X012690Y015525D01*
X012540Y015765D02*
X011840Y015765D01*
X011572Y015682D02*
X011380Y015682D01*
X011380Y015760D02*
X011560Y015760D01*
X011567Y015839D02*
X011380Y015839D01*
X011380Y015603D02*
X011606Y015603D01*
X011690Y015525D02*
X011380Y015525D01*
X011380Y015446D02*
X013880Y015446D01*
X013880Y015368D02*
X011380Y015368D01*
X011380Y015289D02*
X011668Y015289D01*
X011597Y015211D02*
X011380Y015211D01*
X011380Y015132D02*
X011564Y015132D01*
X011560Y015054D02*
X011380Y015054D01*
X011380Y014975D02*
X011574Y014975D01*
X011613Y014896D02*
X011380Y014896D01*
X011380Y014818D02*
X011706Y014818D01*
X011840Y015065D02*
X012440Y014465D01*
X012840Y014465D01*
X013040Y014661D02*
X013340Y014661D01*
X013340Y014739D02*
X012910Y014739D01*
X012770Y014739D02*
X012449Y014739D01*
X012370Y014818D02*
X013298Y014818D01*
X013265Y014896D02*
X012292Y014896D01*
X012213Y014975D02*
X013260Y014975D01*
X013273Y015054D02*
X012135Y015054D01*
X012116Y015132D02*
X013311Y015132D01*
X013400Y015211D02*
X012083Y015211D01*
X012012Y015289D02*
X013880Y015289D01*
X013880Y015211D02*
X013680Y015211D01*
X013769Y015132D02*
X013880Y015132D01*
X013880Y015054D02*
X013807Y015054D01*
X013820Y014975D02*
X013880Y014975D01*
X013880Y014896D02*
X013815Y014896D01*
X013782Y014818D02*
X013880Y014818D01*
X013880Y014739D02*
X013740Y014739D01*
X013740Y014661D02*
X013880Y014661D01*
X013880Y014582D02*
X013740Y014582D01*
X013740Y014504D02*
X013880Y014504D01*
X013880Y014425D02*
X013683Y014425D01*
X013604Y014347D02*
X013880Y014347D01*
X013880Y014268D02*
X013526Y014268D01*
X013447Y014190D02*
X013880Y014190D01*
X013880Y014111D02*
X013369Y014111D01*
X013290Y014033D02*
X013880Y014033D01*
X013880Y013954D02*
X013212Y013954D01*
X013133Y013876D02*
X013880Y013876D01*
X013880Y013797D02*
X013055Y013797D01*
X012940Y013965D02*
X011640Y013965D01*
X011140Y014465D01*
X011395Y014582D02*
X012040Y014582D01*
X012119Y014504D02*
X011420Y014504D01*
X011463Y014425D02*
X012197Y014425D01*
X012276Y014347D02*
X011541Y014347D01*
X011620Y014268D02*
X012354Y014268D01*
X012773Y014190D02*
X011698Y014190D01*
X011447Y013876D02*
X007877Y013876D01*
X007877Y013954D02*
X011368Y013954D01*
X011290Y014033D02*
X007877Y014033D01*
X007877Y014111D02*
X011211Y014111D01*
X011073Y014190D02*
X007813Y014190D01*
X007540Y013921D02*
X007484Y013865D01*
X007140Y013865D01*
X007032Y013758D01*
X007032Y013665D01*
X007024Y013658D01*
X006946Y013954D02*
X006938Y013954D01*
X006938Y014033D02*
X007025Y014033D01*
X006938Y014111D02*
X007203Y014111D01*
X007267Y014190D02*
X006925Y014190D01*
X006873Y014268D02*
X010941Y014268D01*
X010886Y014347D02*
X006874Y014347D01*
X006874Y014425D02*
X010860Y014425D01*
X010860Y014504D02*
X006874Y014504D01*
X006729Y013953D02*
X006532Y013953D01*
X006335Y013953D01*
X006138Y013953D01*
X006529Y013635D02*
X006529Y012965D01*
X005957Y012965D01*
X005918Y012926D01*
X005877Y013024D01*
X005799Y013103D01*
X005696Y013145D01*
X005584Y013145D01*
X005481Y013103D01*
X005403Y013024D01*
X005360Y012921D01*
X005360Y012810D01*
X005403Y012707D01*
X005414Y012696D01*
X005353Y012696D01*
X005353Y012741D01*
X005345Y012772D01*
X005353Y012803D01*
X005353Y012870D01*
X005056Y012870D01*
X005056Y012870D01*
X005056Y012681D01*
X005056Y012673D01*
X005056Y012484D01*
X005142Y012484D01*
X005142Y012452D01*
X005140Y012450D01*
X005140Y011895D01*
X004840Y011895D01*
X004840Y012496D01*
X004844Y012494D01*
X004880Y012484D01*
X005056Y012484D01*
X005056Y012673D01*
X005056Y012673D01*
X005056Y012673D01*
X005056Y012870D01*
X005056Y012870D01*
X005353Y012870D01*
X005353Y012938D01*
X005345Y012969D01*
X005353Y012999D01*
X005353Y013067D01*
X005056Y013067D01*
X005056Y013067D01*
X005353Y013067D01*
X005353Y013135D01*
X005345Y013165D01*
X005353Y013196D01*
X005353Y013264D01*
X005353Y013332D01*
X005345Y013362D01*
X005353Y013393D01*
X005353Y013461D01*
X005353Y013528D01*
X005345Y013559D01*
X005353Y013590D01*
X005353Y013635D01*
X006529Y013635D01*
X006529Y013562D02*
X005346Y013562D01*
X005353Y013483D02*
X006529Y013483D01*
X006529Y013405D02*
X005353Y013405D01*
X005353Y013461D02*
X005056Y013461D01*
X005056Y013461D01*
X005056Y013468D01*
X005056Y013658D01*
X005056Y013658D01*
X005056Y013461D01*
X005353Y013461D01*
X005353Y013326D02*
X006529Y013326D01*
X006529Y013248D02*
X005353Y013248D01*
X005353Y013264D02*
X005056Y013264D01*
X005353Y013264D01*
X005346Y013169D02*
X006529Y013169D01*
X006529Y013091D02*
X005810Y013091D01*
X005882Y013012D02*
X006529Y013012D01*
X006629Y012765D02*
X006729Y012665D01*
X006729Y012378D01*
X007509Y012378D01*
X007540Y012410D01*
X010496Y012410D01*
X011540Y011365D01*
X012140Y011365D01*
X012340Y011565D01*
X013540Y011565D01*
X013459Y011835D02*
X011353Y011835D01*
X011275Y011913D02*
X013880Y011913D01*
X013880Y011835D02*
X013621Y011835D01*
X013745Y011756D02*
X013880Y011756D01*
X013880Y011678D02*
X013796Y011678D01*
X013820Y011599D02*
X013880Y011599D01*
X013880Y011521D02*
X013820Y011521D01*
X013880Y011992D02*
X011196Y011992D01*
X011118Y012070D02*
X013880Y012070D01*
X013880Y012149D02*
X011039Y012149D01*
X010961Y012227D02*
X013880Y012227D01*
X013880Y012306D02*
X010882Y012306D01*
X010804Y012384D02*
X013880Y012384D01*
X013880Y012463D02*
X010725Y012463D01*
X010647Y012541D02*
X013880Y012541D01*
X013880Y012620D02*
X007871Y012620D01*
X007830Y012698D02*
X013880Y012698D01*
X013880Y012777D02*
X007857Y012777D01*
X007857Y012855D02*
X013880Y012855D01*
X013880Y012934D02*
X007569Y012934D01*
X007569Y012950D02*
X007511Y012950D01*
X007511Y013381D01*
X007569Y013381D01*
X007569Y013132D01*
X007569Y012950D01*
X007569Y013012D02*
X007511Y013012D01*
X007511Y013091D02*
X007569Y013091D01*
X007569Y013169D02*
X007511Y013169D01*
X007511Y013248D02*
X007569Y013248D01*
X007569Y013326D02*
X007511Y013326D01*
X007569Y013405D02*
X013880Y013405D01*
X013880Y013483D02*
X007857Y013483D01*
X007857Y013562D02*
X013880Y013562D01*
X013880Y013640D02*
X007822Y013640D01*
X007877Y013719D02*
X013880Y013719D01*
X013880Y013326D02*
X007857Y013326D01*
X007856Y013248D02*
X013880Y013248D01*
X013880Y013169D02*
X007813Y013169D01*
X007854Y013091D02*
X013880Y013091D01*
X013880Y013012D02*
X007857Y013012D01*
X007877Y013797D02*
X011525Y013797D01*
X011380Y014661D02*
X011962Y014661D01*
X011883Y014739D02*
X011380Y014739D01*
X011990Y015525D02*
X012390Y015525D01*
X012795Y016153D02*
X013880Y016153D01*
X013880Y016231D02*
X012873Y016231D01*
X012952Y016310D02*
X013880Y016310D01*
X013880Y016388D02*
X013030Y016388D01*
X013109Y016467D02*
X013880Y016467D01*
X013880Y016545D02*
X013187Y016545D01*
X013266Y016624D02*
X013880Y016624D01*
X013880Y016702D02*
X013344Y016702D01*
X013423Y016781D02*
X013880Y016781D01*
X013880Y016859D02*
X013501Y016859D01*
X013580Y016938D02*
X013880Y016938D01*
X013880Y017016D02*
X013656Y017016D01*
X013540Y014965D02*
X013540Y014565D01*
X012940Y013965D01*
X013120Y014504D02*
X013196Y014504D01*
X013274Y014582D02*
X013095Y014582D01*
X012248Y011756D02*
X011432Y011756D01*
X011702Y011678D02*
X012170Y011678D01*
X012091Y011599D02*
X011751Y011599D01*
X011540Y011365D02*
X011375Y011365D01*
X011375Y010817D01*
X011146Y010814D02*
X010934Y010814D01*
X010934Y010736D02*
X011146Y010736D01*
X011146Y010657D02*
X010934Y010657D01*
X010934Y010579D02*
X011146Y010579D01*
X011146Y010500D02*
X010934Y010500D01*
X010934Y010475D02*
X010925Y010465D01*
X011155Y010465D01*
X011146Y010475D01*
X011146Y011009D01*
X011092Y011009D01*
X011026Y011075D01*
X011008Y011057D01*
X010976Y011038D01*
X010940Y011029D01*
X010934Y011029D01*
X010934Y010475D01*
X010840Y010265D02*
X010640Y010065D01*
X010640Y009780D01*
X010666Y009754D01*
X010400Y009470D02*
X010096Y009165D01*
X010324Y008852D02*
X010411Y008852D01*
X010400Y009470D02*
X010400Y010165D01*
X010096Y010470D01*
X010096Y010765D01*
X010125Y011337D02*
X010125Y011394D01*
X010374Y011394D01*
X010374Y011405D01*
X010665Y011405D01*
X010665Y011325D01*
X010374Y011325D01*
X010374Y011337D01*
X010125Y011337D01*
X010125Y011364D02*
X010665Y011364D01*
X010705Y011365D02*
X011040Y011031D01*
X011050Y011050D02*
X010996Y011050D01*
X010934Y010971D02*
X011146Y010971D01*
X011146Y010893D02*
X010934Y010893D01*
X010745Y011405D02*
X010665Y011405D01*
X010665Y011702D01*
X010470Y011702D01*
X010435Y011693D01*
X010403Y011674D01*
X010377Y011648D01*
X010358Y011616D01*
X010357Y011610D01*
X010346Y011629D01*
X010320Y011655D01*
X010288Y011673D01*
X010252Y011683D01*
X010125Y011683D01*
X010125Y011394D01*
X010067Y011394D01*
X010067Y011683D01*
X009940Y011683D01*
X009904Y011673D01*
X009872Y011655D01*
X009854Y011637D01*
X009788Y011703D01*
X009380Y011703D01*
X009311Y011634D01*
X009303Y011648D01*
X009277Y011674D01*
X009245Y011693D01*
X009210Y011702D01*
X009015Y011702D01*
X009015Y011405D01*
X008935Y011405D01*
X008935Y011702D01*
X008740Y011702D01*
X008704Y011693D01*
X008672Y011674D01*
X008654Y011656D01*
X008588Y011722D01*
X008023Y011722D01*
X007940Y011640D01*
X007940Y011948D01*
X007823Y012065D01*
X007777Y012112D01*
X007783Y012112D01*
X007877Y012205D01*
X007877Y012210D01*
X010413Y012210D01*
X010920Y011702D01*
X010745Y011702D01*
X010745Y011405D01*
X010745Y011442D02*
X010665Y011442D01*
X010665Y011521D02*
X010745Y011521D01*
X010745Y011599D02*
X010665Y011599D01*
X010665Y011678D02*
X010745Y011678D01*
X010866Y011756D02*
X007940Y011756D01*
X007940Y011678D02*
X007978Y011678D01*
X007940Y011835D02*
X010788Y011835D01*
X010709Y011913D02*
X007940Y011913D01*
X007896Y011992D02*
X010631Y011992D01*
X010552Y012070D02*
X007818Y012070D01*
X007821Y012149D02*
X010474Y012149D01*
X010409Y011678D02*
X010269Y011678D01*
X010125Y011678D02*
X010067Y011678D01*
X010067Y011599D02*
X010125Y011599D01*
X010125Y011521D02*
X010067Y011521D01*
X010067Y011442D02*
X010125Y011442D01*
X009922Y011678D02*
X009813Y011678D01*
X009584Y011365D02*
X009584Y011347D01*
X009014Y010777D01*
X009084Y010265D02*
X009584Y010765D01*
X009584Y009865D01*
X009584Y009354D02*
X010096Y009865D01*
X009584Y009354D02*
X009584Y009165D01*
X009014Y009736D01*
X009014Y009754D01*
X009084Y010265D02*
X008540Y010265D01*
X008305Y010500D01*
X008305Y010431D01*
X007940Y010065D01*
X007940Y009265D01*
X007840Y009165D01*
X007540Y009465D02*
X007740Y009665D01*
X007740Y011865D01*
X007540Y012065D01*
X006640Y012065D01*
X006540Y012165D01*
X006540Y012370D01*
X006532Y012378D01*
X006729Y012665D02*
X006729Y013953D01*
X006629Y012765D02*
X006040Y012765D01*
X005942Y012667D01*
X005942Y012378D01*
X005745Y012378D02*
X005548Y012378D01*
X005640Y012470D01*
X005640Y012865D01*
X005915Y012934D02*
X005926Y012934D01*
X005548Y012378D02*
X005640Y012286D01*
X005640Y011865D01*
X006340Y011165D01*
X006340Y011065D01*
X006920Y011065D01*
X006970Y011115D01*
X006340Y011065D02*
X006240Y010965D01*
X006240Y010065D01*
X008840Y007465D01*
X008840Y006965D01*
X010940Y004865D01*
X011040Y004865D01*
X011040Y004465D02*
X008640Y006865D01*
X008640Y007465D01*
X005940Y010165D01*
X006340Y009565D02*
X004440Y009565D01*
X004321Y009401D02*
X003940Y009401D01*
X003940Y009480D02*
X004243Y009480D01*
X004164Y009558D02*
X003940Y009558D01*
X003940Y009637D02*
X004086Y009637D01*
X004040Y009715D02*
X003940Y009715D01*
X003940Y009794D02*
X004040Y009794D01*
X004040Y009872D02*
X003916Y009872D01*
X003837Y009951D02*
X004040Y009951D01*
X004040Y010029D02*
X003759Y010029D01*
X003680Y010108D02*
X004040Y010108D01*
X003740Y009765D02*
X001040Y012465D01*
X000740Y012465D01*
X001026Y012149D02*
X001074Y012149D01*
X001030Y012070D02*
X001152Y012070D01*
X001231Y011992D02*
X000775Y011992D01*
X000775Y011913D02*
X000705Y011913D01*
X000705Y011835D02*
X000775Y011835D01*
X000775Y011756D02*
X000705Y011756D01*
X000705Y011678D02*
X000775Y011678D01*
X000918Y011678D02*
X001545Y011678D01*
X001623Y011599D02*
X000500Y011599D01*
X000500Y011521D02*
X001702Y011521D01*
X001780Y011442D02*
X000500Y011442D01*
X000500Y011364D02*
X001859Y011364D01*
X001937Y011285D02*
X000500Y011285D01*
X000500Y011207D02*
X002016Y011207D01*
X002094Y011128D02*
X000500Y011128D01*
X000500Y011050D02*
X002173Y011050D01*
X002251Y010971D02*
X000500Y010971D01*
X000500Y010893D02*
X002330Y010893D01*
X002408Y010814D02*
X000500Y010814D01*
X000500Y010736D02*
X002487Y010736D01*
X002565Y010657D02*
X002364Y010657D01*
X002522Y010579D02*
X002644Y010579D01*
X002629Y010500D02*
X002722Y010500D01*
X002709Y010422D02*
X002801Y010422D01*
X002771Y010343D02*
X002879Y010343D01*
X002821Y010265D02*
X002958Y010265D01*
X003036Y010186D02*
X002861Y010186D01*
X002893Y010108D02*
X003115Y010108D01*
X003193Y010029D02*
X002914Y010029D01*
X002928Y009951D02*
X003272Y009951D01*
X003350Y009872D02*
X002937Y009872D01*
X003740Y009765D02*
X003740Y007665D01*
X003909Y007439D02*
X006784Y007439D01*
X006705Y007517D02*
X003982Y007517D01*
X004014Y007596D02*
X006627Y007596D01*
X006548Y007674D02*
X004020Y007674D01*
X004007Y007753D02*
X006470Y007753D01*
X006391Y007831D02*
X003970Y007831D01*
X003940Y007910D02*
X006313Y007910D01*
X006234Y007988D02*
X003940Y007988D01*
X003940Y008067D02*
X006156Y008067D01*
X006140Y008145D02*
X003940Y008145D01*
X003940Y008224D02*
X006140Y008224D01*
X006140Y008302D02*
X003940Y008302D01*
X003940Y008381D02*
X006140Y008381D01*
X006140Y008459D02*
X003940Y008459D01*
X003940Y008538D02*
X006140Y008538D01*
X006099Y008616D02*
X003940Y008616D01*
X003940Y008695D02*
X006066Y008695D01*
X006060Y008773D02*
X003940Y008773D01*
X003940Y008852D02*
X006073Y008852D01*
X006040Y008865D02*
X006240Y009065D01*
X006440Y009065D01*
X007740Y007665D01*
X007780Y007365D01*
X007905Y007517D02*
X007271Y007517D01*
X007349Y007439D02*
X007984Y007439D01*
X008040Y007383D02*
X008040Y006748D01*
X006540Y008248D01*
X006540Y008569D01*
X006577Y008607D01*
X006620Y008710D01*
X006620Y008803D01*
X008040Y007383D01*
X008040Y007360D02*
X007428Y007360D01*
X007506Y007282D02*
X008040Y007282D01*
X008040Y007203D02*
X007585Y007203D01*
X007663Y007125D02*
X008040Y007125D01*
X008040Y007046D02*
X007742Y007046D01*
X007820Y006968D02*
X008040Y006968D01*
X008040Y006889D02*
X007899Y006889D01*
X007977Y006811D02*
X008040Y006811D01*
X007940Y006565D02*
X006340Y008165D01*
X006340Y008765D01*
X006196Y009009D02*
X006152Y009009D01*
X006109Y008930D02*
X003940Y008930D01*
X002087Y009009D02*
X002007Y009009D01*
X002007Y009087D02*
X002087Y009087D01*
X002087Y009166D02*
X002007Y009166D01*
X002007Y009244D02*
X002087Y009244D01*
X002087Y009323D02*
X002007Y009323D01*
X002007Y009401D02*
X002087Y009401D01*
X002087Y009480D02*
X002007Y009480D01*
X002007Y009558D02*
X002087Y009558D01*
X002087Y009637D02*
X002007Y009637D01*
X002007Y009715D02*
X002087Y009715D01*
X002087Y009951D02*
X002007Y009951D01*
X002007Y010029D02*
X002087Y010029D01*
X002087Y010108D02*
X002007Y010108D01*
X002007Y010186D02*
X002087Y010186D01*
X002087Y010265D02*
X002007Y010265D01*
X002007Y010343D02*
X002087Y010343D01*
X002087Y010422D02*
X002007Y010422D01*
X002007Y010500D02*
X002087Y010500D01*
X002087Y010579D02*
X002007Y010579D01*
X002007Y010657D02*
X002087Y010657D01*
X001731Y010657D02*
X000500Y010657D01*
X000500Y010579D02*
X001573Y010579D01*
X001465Y010500D02*
X000904Y010500D01*
X000962Y010422D02*
X001385Y010422D01*
X001323Y010343D02*
X000962Y010343D01*
X000962Y010265D02*
X001273Y010265D01*
X001233Y010186D02*
X000962Y010186D01*
X000962Y010108D02*
X001201Y010108D01*
X001180Y010029D02*
X000962Y010029D01*
X000962Y009951D02*
X001166Y009951D01*
X001157Y009872D02*
X000962Y009872D01*
X000562Y011678D02*
X000500Y011678D01*
X001018Y011756D02*
X001466Y011756D01*
X001388Y011835D02*
X001030Y011835D01*
X001030Y011913D02*
X001309Y011913D01*
X002840Y011865D02*
X000740Y013965D01*
X002840Y011865D02*
X004240Y011865D01*
X004340Y011965D01*
X004640Y011615D02*
X004910Y011615D01*
X004840Y011913D02*
X005140Y011913D01*
X005140Y011992D02*
X004840Y011992D01*
X004840Y012070D02*
X005140Y012070D01*
X005140Y012149D02*
X004840Y012149D01*
X004840Y012227D02*
X005140Y012227D01*
X005140Y012306D02*
X004840Y012306D01*
X004840Y012384D02*
X005140Y012384D01*
X005142Y012463D02*
X004840Y012463D01*
X005056Y012541D02*
X005056Y012541D01*
X005056Y012620D02*
X005056Y012620D01*
X005056Y012698D02*
X005056Y012698D01*
X005056Y012777D02*
X005056Y012777D01*
X005056Y012855D02*
X005056Y012855D01*
X005056Y012870D02*
X005056Y013067D01*
X005056Y012878D01*
X005056Y012870D01*
X005056Y012870D01*
X005056Y012934D02*
X005056Y012934D01*
X005056Y013012D02*
X005056Y013012D01*
X005056Y013067D02*
X005056Y013067D01*
X005056Y013067D01*
X005056Y013075D01*
X005056Y013264D01*
X005056Y013264D01*
X005056Y013264D01*
X005056Y013272D01*
X005056Y013461D01*
X005056Y013461D01*
X005056Y013461D01*
X005056Y013264D01*
X005056Y013264D01*
X005056Y013067D01*
X005056Y013091D02*
X005056Y013091D01*
X005056Y013169D02*
X005056Y013169D01*
X005056Y013248D02*
X005056Y013248D01*
X005056Y013326D02*
X005056Y013326D01*
X005056Y013405D02*
X005056Y013405D01*
X005056Y013483D02*
X005056Y013483D01*
X005056Y013562D02*
X005056Y013562D01*
X005056Y013640D02*
X005056Y013640D01*
X005353Y013091D02*
X005470Y013091D01*
X005398Y013012D02*
X005353Y013012D01*
X005353Y012934D02*
X005365Y012934D01*
X005353Y012855D02*
X005360Y012855D01*
X005346Y012777D02*
X005374Y012777D01*
X005353Y012698D02*
X005411Y012698D01*
X005351Y012378D02*
X005340Y012367D01*
X005340Y011965D01*
X005790Y011515D01*
X006950Y010095D02*
X006990Y010095D01*
X006990Y009855D01*
X007047Y009855D01*
X007040Y009848D01*
X006940Y009748D01*
X006940Y009648D01*
X006733Y009855D01*
X006950Y009855D01*
X006950Y010095D01*
X006950Y010029D02*
X006990Y010029D01*
X006990Y009951D02*
X006950Y009951D01*
X006950Y009872D02*
X006990Y009872D01*
X006986Y009794D02*
X006794Y009794D01*
X006873Y009715D02*
X006940Y009715D01*
X006340Y009565D02*
X008440Y007465D01*
X008440Y006765D01*
X010740Y004465D01*
X010740Y004365D01*
X011371Y003514D02*
X012330Y003514D01*
X012324Y003520D02*
X012669Y003175D01*
X012669Y002950D01*
X012611Y002950D01*
X012611Y002892D01*
X012169Y002892D01*
X012169Y002950D01*
X012457Y002950D01*
X012611Y002950D01*
X012611Y003199D01*
X012444Y003199D01*
X012409Y003190D01*
X012390Y003179D01*
X012371Y003190D01*
X012336Y003199D01*
X012169Y003199D01*
X012169Y002950D01*
X012111Y002950D01*
X012111Y002892D01*
X011823Y002892D01*
X011823Y002765D01*
X011832Y002730D01*
X011851Y002698D01*
X011869Y002680D01*
X011803Y002614D01*
X011803Y002355D01*
X011713Y002265D01*
X010123Y002265D01*
X011801Y003944D01*
X011801Y003877D01*
X011869Y003713D01*
X011994Y003588D01*
X012158Y003520D01*
X012324Y003520D01*
X012409Y003435D02*
X011293Y003435D01*
X011214Y003357D02*
X012487Y003357D01*
X012566Y003278D02*
X011136Y003278D01*
X011057Y003200D02*
X012644Y003200D01*
X012669Y003121D02*
X012611Y003121D01*
X012611Y003043D02*
X012669Y003043D01*
X012669Y002964D02*
X012611Y002964D01*
X012640Y002410D02*
X013140Y002410D01*
X013140Y002921D02*
X013140Y003072D01*
X012246Y003965D01*
X011911Y003671D02*
X011528Y003671D01*
X011450Y003592D02*
X011990Y003592D01*
X011854Y003749D02*
X011607Y003749D01*
X011685Y003828D02*
X011822Y003828D01*
X011801Y003906D02*
X011764Y003906D01*
X012240Y004456D02*
X013113Y004456D01*
X013141Y004377D02*
X013260Y004377D01*
X013298Y004299D02*
X013339Y004299D01*
X013374Y004220D02*
X013417Y004220D01*
X013421Y004142D02*
X013496Y004142D01*
X013448Y004063D02*
X013574Y004063D01*
X013580Y003985D02*
X013063Y003985D01*
X013063Y004063D02*
X013005Y004063D01*
X013005Y004142D02*
X013063Y004142D01*
X013063Y004220D02*
X013005Y004220D01*
X013005Y004299D02*
X013063Y004299D01*
X013063Y004377D02*
X013005Y004377D01*
X012926Y004377D02*
X012414Y004377D01*
X012542Y004299D02*
X012770Y004299D01*
X012694Y004220D02*
X012621Y004220D01*
X012240Y004534D02*
X013034Y004534D01*
X013026Y004613D02*
X012240Y004613D01*
X012240Y004691D02*
X013026Y004691D01*
X013026Y004770D02*
X012240Y004770D01*
X012240Y004848D02*
X013026Y004848D01*
X013026Y004927D02*
X012240Y004927D01*
X012240Y005005D02*
X013026Y005005D01*
X013026Y005084D02*
X012240Y005084D01*
X012240Y005162D02*
X013026Y005162D01*
X013026Y005241D02*
X012240Y005241D01*
X012240Y005319D02*
X013026Y005319D01*
X013040Y005398D02*
X012240Y005398D01*
X012240Y005476D02*
X013118Y005476D01*
X013340Y005555D02*
X012240Y005555D01*
X012240Y005633D02*
X013340Y005633D01*
X013340Y005712D02*
X012240Y005712D01*
X012240Y005790D02*
X013340Y005790D01*
X013340Y005869D02*
X012240Y005869D01*
X012240Y005947D02*
X013340Y005947D01*
X013340Y006026D02*
X012240Y006026D01*
X012240Y006104D02*
X013340Y006104D01*
X013333Y006183D02*
X012240Y006183D01*
X012240Y006261D02*
X013254Y006261D01*
X013176Y006340D02*
X012240Y006340D01*
X012240Y006418D02*
X013097Y006418D01*
X013019Y006497D02*
X012240Y006497D01*
X012240Y006575D02*
X012940Y006575D01*
X012862Y006654D02*
X012240Y006654D01*
X012240Y006732D02*
X012783Y006732D01*
X012640Y006865D02*
X012590Y005415D01*
X013540Y004963D02*
X013540Y006265D01*
X013677Y006418D02*
X013880Y006418D01*
X013880Y006340D02*
X013745Y006340D01*
X013745Y006350D02*
X011611Y008484D01*
X011640Y008513D01*
X011640Y008805D01*
X011651Y008786D01*
X011677Y008760D01*
X011709Y008741D01*
X011744Y008732D01*
X011911Y008732D01*
X011911Y008981D01*
X011969Y008981D01*
X011969Y009038D01*
X012257Y009038D01*
X012257Y009166D01*
X013040Y009166D01*
X013040Y009244D02*
X012218Y009244D01*
X012211Y009251D02*
X012277Y009317D01*
X012277Y009321D01*
X012526Y009321D01*
X012639Y009434D01*
X012870Y009434D01*
X012963Y009528D01*
X012963Y009909D01*
X012906Y009965D01*
X012963Y010022D01*
X012963Y010359D01*
X013040Y010283D01*
X013040Y008383D01*
X013160Y008263D01*
X013160Y008210D01*
X013203Y008107D01*
X013281Y008028D01*
X013384Y007985D01*
X013496Y007985D01*
X013599Y008028D01*
X013677Y008107D01*
X013720Y008210D01*
X013720Y008321D01*
X013677Y008424D01*
X013599Y008503D01*
X013496Y008545D01*
X013443Y008545D01*
X013440Y008548D01*
X013440Y010448D01*
X013435Y010453D01*
X013880Y010453D01*
X013880Y006073D01*
X013740Y005933D01*
X013740Y006176D01*
X013745Y006181D01*
X013745Y006350D01*
X013745Y006261D02*
X013880Y006261D01*
X013880Y006183D02*
X013745Y006183D01*
X013740Y006104D02*
X013880Y006104D01*
X013833Y006026D02*
X013740Y006026D01*
X013740Y005947D02*
X013754Y005947D01*
X013880Y006497D02*
X013598Y006497D01*
X013520Y006575D02*
X013880Y006575D01*
X013880Y006654D02*
X013441Y006654D01*
X013363Y006732D02*
X013880Y006732D01*
X013880Y006811D02*
X013284Y006811D01*
X013206Y006889D02*
X013880Y006889D01*
X013880Y006968D02*
X013127Y006968D01*
X013049Y007046D02*
X013880Y007046D01*
X013880Y007125D02*
X012970Y007125D01*
X012892Y007203D02*
X013880Y007203D01*
X013880Y007282D02*
X012813Y007282D01*
X012735Y007360D02*
X013880Y007360D01*
X013880Y007439D02*
X012656Y007439D01*
X012578Y007517D02*
X013880Y007517D01*
X013880Y007596D02*
X012499Y007596D01*
X012421Y007674D02*
X013880Y007674D01*
X013880Y007753D02*
X012342Y007753D01*
X012264Y007831D02*
X013880Y007831D01*
X013880Y007910D02*
X012185Y007910D01*
X012107Y007988D02*
X012377Y007988D01*
X012384Y007985D02*
X012496Y007985D01*
X012599Y008028D01*
X012677Y008107D01*
X012720Y008210D01*
X012720Y008263D01*
X012840Y008383D01*
X012840Y008529D01*
X012870Y008529D01*
X012963Y008622D01*
X012963Y009003D01*
X012870Y009097D01*
X012410Y009097D01*
X012317Y009003D01*
X012317Y008622D01*
X012394Y008545D01*
X012384Y008545D01*
X012281Y008503D01*
X012203Y008424D01*
X012160Y008321D01*
X012160Y008210D01*
X012203Y008107D01*
X012281Y008028D01*
X012384Y007985D01*
X012503Y007988D02*
X013377Y007988D01*
X013503Y007988D02*
X013880Y007988D01*
X013880Y008067D02*
X013637Y008067D01*
X013693Y008145D02*
X013880Y008145D01*
X013880Y008224D02*
X013720Y008224D01*
X013720Y008302D02*
X013880Y008302D01*
X013880Y008381D02*
X013695Y008381D01*
X013642Y008459D02*
X013880Y008459D01*
X013880Y008538D02*
X013514Y008538D01*
X013440Y008616D02*
X013880Y008616D01*
X013880Y008695D02*
X013440Y008695D01*
X013440Y008773D02*
X013880Y008773D01*
X013880Y008852D02*
X013440Y008852D01*
X013440Y008930D02*
X013880Y008930D01*
X013880Y009009D02*
X013440Y009009D01*
X013440Y009087D02*
X013880Y009087D01*
X013880Y009166D02*
X013440Y009166D01*
X013440Y009244D02*
X013880Y009244D01*
X013880Y009323D02*
X013440Y009323D01*
X013440Y009401D02*
X013880Y009401D01*
X013880Y009480D02*
X013440Y009480D01*
X013440Y009558D02*
X013880Y009558D01*
X013880Y009637D02*
X013440Y009637D01*
X013440Y009715D02*
X013880Y009715D01*
X013880Y009794D02*
X013440Y009794D01*
X013440Y009872D02*
X013880Y009872D01*
X013880Y009951D02*
X013440Y009951D01*
X013440Y010029D02*
X013880Y010029D01*
X013880Y010108D02*
X013440Y010108D01*
X013440Y010186D02*
X013880Y010186D01*
X013880Y010265D02*
X013440Y010265D01*
X013440Y010343D02*
X013880Y010343D01*
X013880Y010422D02*
X013440Y010422D01*
X013240Y010365D02*
X013240Y008465D01*
X013440Y008265D01*
X013243Y008067D02*
X012637Y008067D01*
X012693Y008145D02*
X013187Y008145D01*
X013160Y008224D02*
X012720Y008224D01*
X012760Y008302D02*
X013120Y008302D01*
X013042Y008381D02*
X012838Y008381D01*
X012840Y008459D02*
X013040Y008459D01*
X013040Y008538D02*
X012879Y008538D01*
X012957Y008616D02*
X013040Y008616D01*
X013040Y008695D02*
X012963Y008695D01*
X012963Y008773D02*
X013040Y008773D01*
X013040Y008852D02*
X012963Y008852D01*
X012963Y008930D02*
X013040Y008930D01*
X013040Y009009D02*
X012957Y009009D01*
X012879Y009087D02*
X013040Y009087D01*
X013040Y009323D02*
X012528Y009323D01*
X012606Y009401D02*
X013040Y009401D01*
X013040Y009480D02*
X012915Y009480D01*
X012963Y009558D02*
X013040Y009558D01*
X013040Y009637D02*
X012963Y009637D01*
X012963Y009715D02*
X013040Y009715D01*
X013040Y009794D02*
X012963Y009794D01*
X012963Y009872D02*
X013040Y009872D01*
X013040Y009951D02*
X012921Y009951D01*
X012963Y010029D02*
X013040Y010029D01*
X013040Y010108D02*
X012963Y010108D01*
X012963Y010186D02*
X013040Y010186D01*
X013040Y010265D02*
X012963Y010265D01*
X012963Y010343D02*
X012979Y010343D01*
X013240Y010365D02*
X012940Y010665D01*
X012440Y010665D01*
X012084Y010310D01*
X011940Y010310D01*
X011440Y010265D02*
X011940Y009765D01*
X011940Y009521D01*
X012443Y009521D01*
X012640Y009718D01*
X012640Y010213D01*
X012791Y010967D02*
X012640Y011118D01*
X012237Y011118D01*
X011940Y010821D01*
X011440Y010265D02*
X010840Y010265D01*
X011414Y009754D02*
X011414Y009205D01*
X011375Y009165D01*
X011640Y008773D02*
X011663Y008773D01*
X011640Y008695D02*
X012317Y008695D01*
X012317Y008773D02*
X012217Y008773D01*
X012229Y008786D02*
X012248Y008818D01*
X012257Y008853D01*
X012257Y008981D01*
X011969Y008981D01*
X011969Y008732D01*
X012136Y008732D01*
X012171Y008741D01*
X012203Y008760D01*
X012229Y008786D01*
X012257Y008852D02*
X012317Y008852D01*
X012317Y008930D02*
X012257Y008930D01*
X012323Y009009D02*
X011969Y009009D01*
X011969Y008930D02*
X011911Y008930D01*
X011911Y008852D02*
X011969Y008852D01*
X011969Y008773D02*
X011911Y008773D01*
X011640Y008616D02*
X012323Y008616D01*
X012366Y008538D02*
X011640Y008538D01*
X011636Y008459D02*
X012238Y008459D01*
X012185Y008381D02*
X011714Y008381D01*
X011793Y008302D02*
X012160Y008302D01*
X012160Y008224D02*
X011871Y008224D01*
X011950Y008145D02*
X012187Y008145D01*
X012243Y008067D02*
X012028Y008067D01*
X011763Y007753D02*
X011396Y007753D01*
X011420Y007831D02*
X011684Y007831D01*
X011606Y007910D02*
X011420Y007910D01*
X011392Y007988D02*
X011527Y007988D01*
X011449Y008067D02*
X011334Y008067D01*
X011140Y007865D02*
X010940Y007665D01*
X011345Y007674D02*
X011841Y007674D01*
X011920Y007596D02*
X011692Y007596D01*
X011771Y007517D02*
X011998Y007517D01*
X012077Y007439D02*
X011849Y007439D01*
X011928Y007360D02*
X012155Y007360D01*
X012440Y008265D02*
X012640Y008465D01*
X012640Y008813D01*
X012401Y009087D02*
X012257Y009087D01*
X012257Y009166D02*
X012248Y009201D01*
X012229Y009233D01*
X012211Y009251D01*
X012791Y010967D02*
X013540Y010967D01*
X009868Y008852D02*
X009812Y008852D01*
X009356Y008852D02*
X009269Y008852D01*
X008654Y009480D02*
X008630Y009480D01*
X008626Y009558D02*
X008654Y009558D01*
X008654Y009637D02*
X008626Y009637D01*
X008626Y009715D02*
X008654Y009715D01*
X008305Y010500D02*
X008305Y010817D01*
X008266Y010777D01*
X008305Y010817D02*
X008305Y011365D01*
X008632Y011678D02*
X008678Y011678D01*
X008935Y011678D02*
X009015Y011678D01*
X009015Y011599D02*
X008935Y011599D01*
X008935Y011521D02*
X009015Y011521D01*
X009015Y011442D02*
X008935Y011442D01*
X009271Y011678D02*
X009355Y011678D01*
X006885Y008538D02*
X006540Y008538D01*
X006540Y008459D02*
X006963Y008459D01*
X007042Y008381D02*
X006540Y008381D01*
X006540Y008302D02*
X007120Y008302D01*
X007199Y008224D02*
X006564Y008224D01*
X006643Y008145D02*
X007277Y008145D01*
X007356Y008067D02*
X006721Y008067D01*
X006800Y007988D02*
X007434Y007988D01*
X007513Y007910D02*
X006878Y007910D01*
X006957Y007831D02*
X007591Y007831D01*
X007670Y007753D02*
X007035Y007753D01*
X007114Y007674D02*
X007748Y007674D01*
X007827Y007596D02*
X007192Y007596D01*
X006806Y008616D02*
X006581Y008616D01*
X006614Y008695D02*
X006728Y008695D01*
X006649Y008773D02*
X006620Y008773D01*
X007940Y006565D02*
X007940Y004065D01*
X007640Y002965D02*
X007640Y006165D01*
X007670Y006195D01*
X007640Y002965D02*
X008540Y002065D01*
X011796Y002065D01*
X012140Y002410D01*
X012640Y002410D01*
X012169Y002964D02*
X012111Y002964D01*
X012111Y002950D02*
X012111Y003199D01*
X011944Y003199D01*
X011909Y003190D01*
X011877Y003171D01*
X011851Y003145D01*
X011832Y003113D01*
X011823Y003078D01*
X011823Y002950D01*
X012111Y002950D01*
X012111Y003043D02*
X012169Y003043D01*
X012169Y003121D02*
X012111Y003121D01*
X011837Y003121D02*
X010979Y003121D01*
X010900Y003043D02*
X011823Y003043D01*
X011823Y002964D02*
X010822Y002964D01*
X010743Y002886D02*
X011823Y002886D01*
X011823Y002807D02*
X010665Y002807D01*
X010586Y002729D02*
X011833Y002729D01*
X011840Y002650D02*
X010508Y002650D01*
X010429Y002572D02*
X011803Y002572D01*
X011803Y002493D02*
X010351Y002493D01*
X010272Y002415D02*
X011803Y002415D01*
X011784Y002336D02*
X010194Y002336D01*
X013340Y003671D02*
X013478Y003671D01*
X013401Y003749D02*
X013556Y003749D01*
X013580Y003828D02*
X013436Y003828D01*
X013455Y003906D02*
X013580Y003906D01*
X011266Y017566D02*
X011214Y017566D01*
X010535Y017566D02*
X010517Y017566D01*
X010245Y017566D02*
X010165Y017566D01*
X010165Y017644D02*
X010245Y017644D01*
X010245Y017723D02*
X010165Y017723D01*
X010165Y017801D02*
X010245Y017801D01*
X010473Y018194D02*
X010563Y018194D01*
X010448Y018272D02*
X010400Y018272D01*
X010213Y018665D02*
X010155Y018665D01*
X010155Y018743D02*
X010213Y018743D01*
X010213Y018822D02*
X010155Y018822D01*
X010145Y018979D02*
X010065Y018979D01*
X010065Y019057D02*
X010145Y019057D01*
X010145Y019136D02*
X010065Y019136D01*
X010065Y019214D02*
X010145Y019214D01*
X010065Y019293D02*
X002855Y019293D01*
X002847Y019273D02*
X002892Y019381D01*
X002922Y019494D01*
X002937Y019609D01*
X002937Y019628D01*
X002087Y019628D01*
X002087Y018778D01*
X002105Y018778D01*
X002221Y018793D01*
X002334Y018823D01*
X002442Y018868D01*
X002543Y018926D01*
X002635Y018997D01*
X002718Y019080D01*
X002789Y019172D01*
X002847Y019273D01*
X002813Y019214D02*
X009749Y019214D01*
X009749Y019136D02*
X002760Y019136D01*
X002695Y019057D02*
X009749Y019057D01*
X009781Y018979D02*
X002611Y018979D01*
X002497Y018900D02*
X010489Y018900D01*
X010145Y019371D02*
X010065Y019371D01*
X010065Y019450D02*
X010145Y019450D01*
X010145Y019528D02*
X010065Y019528D01*
X009765Y019528D02*
X002926Y019528D01*
X002937Y019607D02*
X010476Y019607D01*
X009930Y018822D02*
X002327Y018822D01*
X002087Y018822D02*
X002007Y018822D01*
X002007Y018900D02*
X002087Y018900D01*
X002087Y018979D02*
X002007Y018979D01*
X002007Y019057D02*
X002087Y019057D01*
X002087Y019136D02*
X002007Y019136D01*
X002007Y019214D02*
X002087Y019214D01*
X002087Y019293D02*
X002007Y019293D01*
X002007Y019371D02*
X002087Y019371D01*
X002087Y019450D02*
X002007Y019450D01*
X002007Y019528D02*
X002087Y019528D01*
X002087Y019607D02*
X002007Y019607D01*
X002887Y019371D02*
X009749Y019371D01*
X009749Y019450D02*
X002910Y019450D01*
X011127Y018979D02*
X011141Y018979D01*
X011903Y019685D02*
X011977Y019685D01*
X011977Y019764D02*
X011903Y019764D01*
X011903Y019842D02*
X011977Y019842D01*
X011977Y019921D02*
X011903Y019921D01*
X011903Y019999D02*
X011977Y019999D01*
X011977Y020078D02*
X011903Y020078D01*
X011903Y020156D02*
X011977Y020156D01*
X011977Y020235D02*
X011903Y020235D01*
X011903Y020313D02*
X011977Y020313D01*
X011977Y020392D02*
X011903Y020392D01*
X011903Y020470D02*
X011977Y020470D01*
X011977Y020549D02*
X011903Y020549D01*
X011903Y020627D02*
X011977Y020627D01*
X011977Y020706D02*
X011903Y020706D01*
X011926Y020784D02*
X011977Y020784D01*
D28*
X011340Y008465D02*
X013540Y006265D01*
D29*
X014140Y005965D02*
X013440Y005265D01*
X013440Y004965D01*
X013440Y004565D01*
X013840Y004165D01*
X013840Y003665D01*
X013540Y003365D01*
X012846Y003365D01*
X012246Y003965D01*
X012246Y004072D01*
X013440Y004965D02*
X013538Y004965D01*
X013540Y004963D01*
X014140Y005965D02*
X014140Y019765D01*
X012840Y021065D01*
X011840Y021065D01*
X011546Y020772D01*
X011546Y020265D01*
X011546Y019332D01*
X011460Y019245D01*
X010795Y019245D01*
X010775Y019265D01*
X010696Y018565D02*
X010776Y018485D01*
X011460Y018485D01*
X011605Y017865D02*
X011605Y017344D01*
X011684Y017265D01*
X011440Y017265D01*
X011240Y017065D01*
X011240Y016365D01*
X011440Y016165D01*
X011240Y016165D01*
X011140Y016065D01*
X011440Y016165D02*
X012440Y016165D01*
X013434Y017160D01*
X013434Y017675D01*
X012420Y018011D02*
X012275Y017865D01*
X012275Y017344D01*
X012196Y017265D01*
X012420Y018011D02*
X012420Y018485D01*
X012420Y019245D02*
X013430Y019245D01*
X013434Y019250D01*
X012420Y019245D02*
X012334Y019332D01*
X012334Y020265D01*
X011605Y017865D02*
X010875Y017865D01*
D30*
X011684Y016665D02*
X012196Y017177D01*
X012196Y017265D01*
D31*
X011140Y016065D02*
X011140Y014465D01*
M02*
