G75*
G70*
%OFA0B0*%
%FSLAX24Y24*%
%IPPOS*%
%LPD*%
%AMOC8*
5,1,8,0,0,1.08239X$1,22.5*
%
%ADD10C,0.0080*%
%ADD11C,0.0110*%
%ADD12C,0.0050*%
%ADD13C,0.0220*%
%ADD14C,0.0039*%
%ADD15R,0.0354X0.1181*%
%ADD16C,0.0160*%
%ADD17C,0.0060*%
D10*
X006273Y011575D02*
X006275Y011590D01*
X006281Y011603D01*
X006290Y011615D01*
X006301Y011624D01*
X006315Y011630D01*
X006330Y011632D01*
X006345Y011630D01*
X006358Y011624D01*
X006370Y011615D01*
X006379Y011604D01*
X006385Y011590D01*
X006387Y011575D01*
X006385Y011560D01*
X006379Y011547D01*
X006370Y011535D01*
X006359Y011526D01*
X006345Y011520D01*
X006330Y011518D01*
X006315Y011520D01*
X006302Y011526D01*
X006290Y011535D01*
X006281Y011546D01*
X006275Y011560D01*
X006273Y011575D01*
X008080Y010435D02*
X008080Y010096D01*
X008534Y010585D02*
X008746Y010585D01*
X009200Y010435D02*
X009200Y010096D01*
X012384Y010311D02*
X012384Y010469D01*
X012896Y010469D01*
X012896Y011020D01*
X012384Y011020D02*
X012384Y010469D01*
X012896Y010469D02*
X012896Y010311D01*
X013107Y010446D02*
X013107Y005485D01*
X013973Y005485D01*
X013973Y005495D02*
X013973Y010446D01*
X013107Y010446D01*
X012896Y009620D02*
X012896Y009462D01*
X012384Y009462D01*
X012384Y008911D01*
X012384Y009462D02*
X012384Y009620D01*
X012896Y009462D02*
X012896Y008911D01*
X010530Y016005D02*
X010390Y016005D01*
X010320Y016076D01*
X010320Y016146D01*
X010390Y016216D01*
X010530Y016216D01*
X010600Y016286D01*
X010600Y016356D01*
X010530Y016426D01*
X010390Y016426D01*
X010320Y016356D01*
X010070Y016286D02*
X009929Y016286D01*
X009859Y016216D01*
X009859Y016005D01*
X010070Y016005D01*
X010140Y016076D01*
X010070Y016146D01*
X009859Y016146D01*
X009679Y016286D02*
X009539Y016286D01*
X009609Y016356D02*
X009609Y016076D01*
X009539Y016005D01*
X009372Y016076D02*
X009372Y016216D01*
X009302Y016286D01*
X009162Y016286D01*
X009092Y016216D01*
X009092Y016146D01*
X009372Y016146D01*
X009372Y016076D02*
X009302Y016005D01*
X009162Y016005D01*
X008912Y016005D02*
X008772Y016005D01*
X008842Y016005D02*
X008842Y016426D01*
X008912Y016426D01*
X008758Y016755D02*
X008618Y016755D01*
X008688Y016755D02*
X008688Y017176D01*
X008758Y017176D02*
X008618Y017176D01*
X008452Y017036D02*
X008452Y016755D01*
X008452Y016896D02*
X008311Y017036D01*
X008241Y017036D01*
X008068Y017036D02*
X007998Y017036D01*
X007998Y016755D01*
X008068Y016755D02*
X007928Y016755D01*
X007761Y016826D02*
X007761Y016966D01*
X007691Y017036D01*
X007481Y017036D01*
X007481Y017176D02*
X007481Y016755D01*
X007691Y016755D01*
X007761Y016826D01*
X007998Y017176D02*
X007998Y017246D01*
X008228Y016496D02*
X008228Y016426D01*
X008228Y016286D02*
X008228Y016005D01*
X008298Y016005D02*
X008158Y016005D01*
X007921Y016076D02*
X007921Y016356D01*
X007991Y016286D02*
X007851Y016286D01*
X007684Y016216D02*
X007684Y016076D01*
X007614Y016005D01*
X007474Y016005D01*
X007404Y016146D02*
X007404Y016216D01*
X007474Y016286D01*
X007614Y016286D01*
X007684Y016216D01*
X007684Y016146D02*
X007404Y016146D01*
X007851Y016005D02*
X007921Y016076D01*
X008228Y016286D02*
X008298Y016286D01*
X008465Y016005D02*
X008605Y016005D01*
X008535Y016005D02*
X008535Y016426D01*
X008605Y016426D01*
X009399Y016826D02*
X009469Y016755D01*
X009609Y016755D01*
X009679Y016826D01*
X009609Y016966D02*
X009469Y016966D01*
X009399Y016896D01*
X009399Y016826D01*
X009609Y016966D02*
X009679Y017036D01*
X009679Y017106D01*
X009609Y017176D01*
X009469Y017176D01*
X009399Y017106D01*
X009859Y017106D02*
X009859Y016966D01*
X009929Y016896D01*
X010140Y016896D01*
X010140Y016755D02*
X010140Y017176D01*
X009929Y017176D01*
X009859Y017106D01*
X010320Y017106D02*
X010390Y017176D01*
X010530Y017176D01*
X010600Y017106D01*
X010600Y016826D01*
X010530Y016755D01*
X010390Y016755D01*
X010320Y016826D01*
X010320Y016966D01*
X010460Y016966D01*
X010600Y016076D02*
X010530Y016005D01*
X007301Y016755D02*
X007160Y016755D01*
X007230Y016755D02*
X007230Y017036D01*
X007301Y017036D01*
X007230Y017176D02*
X007230Y017246D01*
X006994Y017036D02*
X006994Y016826D01*
X006924Y016755D01*
X006713Y016755D01*
X006713Y017036D01*
X006533Y017036D02*
X006533Y016755D01*
X006393Y016755D02*
X006393Y016966D01*
X006323Y017036D01*
X006253Y016966D01*
X006253Y016755D01*
X006393Y016966D02*
X006463Y017036D01*
X006533Y017036D01*
X006483Y016426D02*
X006763Y016426D01*
X006623Y016426D02*
X006623Y016005D01*
X006303Y016005D02*
X006303Y016286D01*
X006303Y016146D02*
X006163Y016286D01*
X006093Y016286D01*
X005849Y016286D02*
X005709Y016286D01*
X005639Y016216D01*
X005639Y016005D01*
X005849Y016005D01*
X005919Y016076D01*
X005849Y016146D01*
X005639Y016146D01*
X005459Y016216D02*
X005459Y016076D01*
X005389Y016005D01*
X005179Y016005D01*
X005179Y016286D02*
X005389Y016286D01*
X005459Y016216D01*
X004999Y016146D02*
X004788Y016286D01*
X004615Y016216D02*
X004615Y016076D01*
X004545Y016005D01*
X004405Y016005D01*
X004335Y016146D02*
X004615Y016146D01*
X004615Y016216D02*
X004545Y016286D01*
X004405Y016286D01*
X004335Y016216D01*
X004335Y016146D01*
X004155Y016146D02*
X004014Y016286D01*
X003944Y016286D01*
X004155Y016286D02*
X004155Y016005D01*
X004788Y016005D02*
X004999Y016146D01*
X004999Y016005D02*
X004999Y016426D01*
X003310Y016426D02*
X003310Y016146D01*
X003170Y016005D01*
X003030Y016146D01*
X003030Y016426D01*
X002850Y016286D02*
X002710Y016426D01*
X002710Y016005D01*
X002850Y016005D02*
X002570Y016005D01*
X002390Y016005D02*
X002320Y016005D01*
X002320Y016076D01*
X002390Y016076D01*
X002390Y016005D01*
X002159Y016076D02*
X002159Y016356D01*
X002089Y016426D01*
X001949Y016426D01*
X001879Y016356D01*
X002159Y016076D01*
X002089Y016005D01*
X001949Y016005D01*
X001879Y016076D01*
X001879Y016356D01*
D11*
X002009Y015611D02*
X002009Y015020D01*
X002206Y015020D02*
X001812Y015020D01*
X001561Y015316D02*
X001168Y015316D01*
X001266Y015611D02*
X001266Y015020D01*
X001561Y015316D02*
X001266Y015611D01*
X002009Y015611D02*
X002206Y015414D01*
X002457Y015513D02*
X002457Y015119D01*
X002555Y015020D01*
X002752Y015020D01*
X002850Y015119D01*
X002457Y015513D01*
X002555Y015611D01*
X002752Y015611D01*
X002850Y015513D01*
X002850Y015119D01*
X003101Y015020D02*
X003495Y015020D01*
X003101Y015414D01*
X003101Y015513D01*
X003200Y015611D01*
X003397Y015611D01*
X003495Y015513D01*
X004372Y015020D02*
X004569Y015020D01*
X004471Y015020D02*
X004471Y015611D01*
X004569Y015611D01*
X004820Y015414D02*
X004820Y015020D01*
X005115Y015020D01*
X005214Y015119D01*
X005214Y015414D01*
X005465Y015316D02*
X005465Y015020D01*
X005760Y015020D01*
X005858Y015119D01*
X005760Y015217D01*
X005465Y015217D01*
X005465Y015316D02*
X005563Y015414D01*
X005760Y015414D01*
X006109Y015513D02*
X006208Y015611D01*
X006404Y015611D01*
X006503Y015513D01*
X006503Y015414D01*
X006404Y015316D01*
X006208Y015316D01*
X006109Y015217D01*
X006109Y015119D01*
X006208Y015020D01*
X006404Y015020D01*
X006503Y015119D01*
X007380Y015020D02*
X007577Y015020D01*
X007479Y015020D02*
X007479Y015611D01*
X007577Y015611D01*
X007828Y015316D02*
X007828Y015217D01*
X008222Y015217D01*
X008222Y015119D02*
X008222Y015316D01*
X008123Y015414D01*
X007926Y015414D01*
X007828Y015316D01*
X007926Y015020D02*
X008123Y015020D01*
X008222Y015119D01*
X008455Y015020D02*
X008651Y015020D01*
X008553Y015020D02*
X008553Y015414D01*
X008651Y015414D01*
X008553Y015611D02*
X008553Y015709D01*
X008902Y015316D02*
X008902Y015020D01*
X008902Y015316D02*
X009001Y015414D01*
X009296Y015414D01*
X009296Y015020D01*
X009547Y015020D02*
X009547Y015316D01*
X009645Y015414D01*
X009842Y015414D01*
X009842Y015217D02*
X009547Y015217D01*
X009547Y015020D02*
X009842Y015020D01*
X009940Y015119D01*
X009842Y015217D01*
X010191Y015119D02*
X010191Y015513D01*
X010290Y015611D01*
X010585Y015611D01*
X010585Y015020D01*
X010290Y015020D01*
X010191Y015119D01*
D12*
X007024Y013953D02*
X007024Y012378D01*
X005056Y012378D01*
X005056Y013953D01*
X007024Y013953D01*
X005135Y012496D02*
X005137Y012508D01*
X005142Y012519D01*
X005151Y012528D01*
X005162Y012533D01*
X005174Y012535D01*
X005186Y012533D01*
X005197Y012528D01*
X005206Y012519D01*
X005211Y012508D01*
X005213Y012496D01*
X005211Y012484D01*
X005206Y012473D01*
X005197Y012464D01*
X005186Y012459D01*
X005174Y012457D01*
X005162Y012459D01*
X005151Y012464D01*
X005142Y012473D01*
X005137Y012484D01*
X005135Y012496D01*
D13*
X008640Y011377D02*
X008640Y011353D01*
X008640Y009177D02*
X008640Y009153D01*
X011040Y009153D02*
X011040Y009177D01*
X011040Y011353D02*
X011040Y011377D01*
X010540Y017853D02*
X010540Y017877D01*
X010440Y019253D02*
X010440Y019277D01*
X011940Y017877D02*
X011940Y017853D01*
D14*
X011369Y019675D02*
X011349Y019695D01*
X011349Y020836D01*
X011369Y020856D01*
X012511Y020856D01*
X012531Y020836D01*
X012531Y019695D01*
X012511Y019675D01*
X011369Y019675D01*
D15*
X011527Y020265D03*
X012353Y020265D03*
D16*
X007552Y013665D02*
X007528Y013665D01*
X007528Y012665D02*
X007552Y012665D01*
X006340Y014453D02*
X006340Y014477D01*
X004052Y011365D02*
X004028Y011365D01*
X012128Y002665D02*
X012152Y002665D01*
D17*
X006650Y009936D02*
X005230Y009936D01*
X005230Y011795D02*
X006650Y011795D01*
X010480Y010584D02*
X010480Y009947D01*
X010517Y009947D01*
X010834Y009947D02*
X010871Y009947D01*
X011209Y009947D02*
X011246Y009947D01*
X011563Y009947D02*
X011600Y009947D01*
X011600Y010584D01*
X011563Y010584D01*
X011246Y010584D02*
X010834Y010584D01*
X010517Y010584D02*
X010480Y010584D01*
M02*
