G75*
G70*
%OFA0B0*%
%FSLAX24Y24*%
%IPPOS*%
%LPD*%
%AMOC8*
5,1,8,0,0,1.08239X$1,22.5*
%
%ADD10R,0.0749X0.0355*%
%ADD11R,0.0749X0.0316*%
%ADD12R,0.0394X0.0316*%
%ADD13R,0.0512X0.0355*%
%ADD14R,0.1615X0.0237*%
%ADD15R,0.0512X0.0591*%
%ADD16R,0.0631X0.0591*%
%ADD17C,0.1000*%
%ADD18C,0.0119*%
%ADD19C,0.1540*%
%ADD20R,0.0410X0.0130*%
%ADD21R,0.0217X0.0583*%
%ADD22R,0.0621X0.0867*%
%ADD23R,0.0975X0.0788*%
%ADD24R,0.0503X0.0788*%
%ADD25C,0.0610*%
%ADD26R,0.0434X0.0394*%
%ADD27R,0.0316X0.0394*%
%ADD28R,0.0394X0.0434*%
%ADD29R,0.0434X0.0473*%
%ADD30R,0.0512X0.0257*%
D10*
X003649Y002847D03*
X003649Y003280D03*
X003649Y003713D03*
X003649Y004146D03*
X003649Y004579D03*
X003649Y005012D03*
X003649Y005445D03*
X007389Y005445D03*
X007389Y005012D03*
X007389Y004579D03*
X007389Y004146D03*
X007389Y003713D03*
X007389Y003280D03*
X007389Y002847D03*
D11*
X007389Y002433D03*
X007389Y005858D03*
X003649Y005858D03*
X003649Y002433D03*
D12*
X007340Y006440D03*
X007340Y006951D03*
X007440Y007710D03*
X007440Y008221D03*
X008210Y004521D03*
X008210Y004010D03*
X008660Y004010D03*
X008660Y004521D03*
X009110Y004531D03*
X009110Y004020D03*
X011640Y014010D03*
X011640Y014521D03*
X013540Y014521D03*
X013540Y014010D03*
D13*
X006740Y007120D03*
X006740Y006411D03*
D14*
X001340Y002708D03*
X001340Y008023D03*
D15*
X000592Y005365D03*
D16*
X002147Y005365D03*
D17*
X009190Y006365D02*
X009192Y006396D01*
X009198Y006427D01*
X009208Y006457D01*
X009221Y006485D01*
X009238Y006512D01*
X009258Y006536D01*
X009281Y006558D01*
X009306Y006576D01*
X009334Y006591D01*
X009363Y006603D01*
X009393Y006611D01*
X009424Y006615D01*
X009456Y006615D01*
X009487Y006611D01*
X009517Y006603D01*
X009546Y006591D01*
X009574Y006576D01*
X009599Y006558D01*
X009622Y006536D01*
X009642Y006512D01*
X009659Y006485D01*
X009672Y006457D01*
X009682Y006427D01*
X009688Y006396D01*
X009690Y006365D01*
X009688Y006334D01*
X009682Y006303D01*
X009672Y006273D01*
X009659Y006245D01*
X009642Y006218D01*
X009622Y006194D01*
X009599Y006172D01*
X009574Y006154D01*
X009546Y006139D01*
X009517Y006127D01*
X009487Y006119D01*
X009456Y006115D01*
X009424Y006115D01*
X009393Y006119D01*
X009363Y006127D01*
X009334Y006139D01*
X009306Y006154D01*
X009281Y006172D01*
X009258Y006194D01*
X009238Y006218D01*
X009221Y006245D01*
X009208Y006273D01*
X009198Y006303D01*
X009192Y006334D01*
X009190Y006365D01*
D18*
X009258Y005184D02*
X009258Y004968D01*
X009228Y004968D01*
X009228Y005184D01*
X009258Y005184D01*
X009258Y005086D02*
X009228Y005086D01*
X009061Y005184D02*
X009061Y004968D01*
X009031Y004968D01*
X009031Y005184D01*
X009061Y005184D01*
X009061Y005086D02*
X009031Y005086D01*
X008864Y005184D02*
X008864Y004968D01*
X008834Y004968D01*
X008834Y005184D01*
X008864Y005184D01*
X008864Y005086D02*
X008834Y005086D01*
X008668Y005184D02*
X008668Y004968D01*
X008638Y004968D01*
X008638Y005184D01*
X008668Y005184D01*
X008668Y005086D02*
X008638Y005086D01*
X008471Y005184D02*
X008471Y004968D01*
X008441Y004968D01*
X008441Y005184D01*
X008471Y005184D01*
X008471Y005086D02*
X008441Y005086D01*
X008259Y005366D02*
X008043Y005366D01*
X008043Y005396D01*
X008259Y005396D01*
X008259Y005366D01*
X008259Y005563D02*
X008043Y005563D01*
X008043Y005593D01*
X008259Y005593D01*
X008259Y005563D01*
X008259Y005760D02*
X008043Y005760D01*
X008043Y005790D01*
X008259Y005790D01*
X008259Y005760D01*
X008259Y005957D02*
X008043Y005957D01*
X008043Y005987D01*
X008259Y005987D01*
X008259Y005957D01*
X008259Y006154D02*
X008043Y006154D01*
X008043Y006184D01*
X008259Y006184D01*
X008259Y006154D01*
X008259Y006350D02*
X008043Y006350D01*
X008043Y006380D01*
X008259Y006380D01*
X008259Y006350D01*
X008259Y006547D02*
X008043Y006547D01*
X008043Y006577D01*
X008259Y006577D01*
X008259Y006547D01*
X008259Y006744D02*
X008043Y006744D01*
X008043Y006774D01*
X008259Y006774D01*
X008259Y006744D01*
X008259Y006941D02*
X008043Y006941D01*
X008043Y006971D01*
X008259Y006971D01*
X008259Y006941D01*
X008259Y007138D02*
X008043Y007138D01*
X008043Y007168D01*
X008259Y007168D01*
X008259Y007138D01*
X008259Y007335D02*
X008043Y007335D01*
X008043Y007365D01*
X008259Y007365D01*
X008259Y007335D01*
X008441Y007547D02*
X008441Y007763D01*
X008471Y007763D01*
X008471Y007547D01*
X008441Y007547D01*
X008441Y007665D02*
X008471Y007665D01*
X008638Y007763D02*
X008638Y007547D01*
X008638Y007763D02*
X008668Y007763D01*
X008668Y007547D01*
X008638Y007547D01*
X008638Y007665D02*
X008668Y007665D01*
X008834Y007763D02*
X008834Y007547D01*
X008834Y007763D02*
X008864Y007763D01*
X008864Y007547D01*
X008834Y007547D01*
X008834Y007665D02*
X008864Y007665D01*
X009031Y007763D02*
X009031Y007547D01*
X009031Y007763D02*
X009061Y007763D01*
X009061Y007547D01*
X009031Y007547D01*
X009031Y007665D02*
X009061Y007665D01*
X009228Y007763D02*
X009228Y007547D01*
X009228Y007763D02*
X009258Y007763D01*
X009258Y007547D01*
X009228Y007547D01*
X009228Y007665D02*
X009258Y007665D01*
X009425Y007763D02*
X009425Y007547D01*
X009425Y007763D02*
X009455Y007763D01*
X009455Y007547D01*
X009425Y007547D01*
X009425Y007665D02*
X009455Y007665D01*
X009622Y007763D02*
X009622Y007547D01*
X009622Y007763D02*
X009652Y007763D01*
X009652Y007547D01*
X009622Y007547D01*
X009622Y007665D02*
X009652Y007665D01*
X009819Y007763D02*
X009819Y007547D01*
X009819Y007763D02*
X009849Y007763D01*
X009849Y007547D01*
X009819Y007547D01*
X009819Y007665D02*
X009849Y007665D01*
X010016Y007763D02*
X010016Y007547D01*
X010016Y007763D02*
X010046Y007763D01*
X010046Y007547D01*
X010016Y007547D01*
X010016Y007665D02*
X010046Y007665D01*
X010212Y007763D02*
X010212Y007547D01*
X010212Y007763D02*
X010242Y007763D01*
X010242Y007547D01*
X010212Y007547D01*
X010212Y007665D02*
X010242Y007665D01*
X010409Y007763D02*
X010409Y007547D01*
X010409Y007763D02*
X010439Y007763D01*
X010439Y007547D01*
X010409Y007547D01*
X010409Y007665D02*
X010439Y007665D01*
X010621Y007365D02*
X010837Y007365D01*
X010837Y007335D01*
X010621Y007335D01*
X010621Y007365D01*
X010621Y007168D02*
X010837Y007168D01*
X010837Y007138D01*
X010621Y007138D01*
X010621Y007168D01*
X010621Y006971D02*
X010837Y006971D01*
X010837Y006941D01*
X010621Y006941D01*
X010621Y006971D01*
X010621Y006774D02*
X010837Y006774D01*
X010837Y006744D01*
X010621Y006744D01*
X010621Y006774D01*
X010621Y006577D02*
X010837Y006577D01*
X010837Y006547D01*
X010621Y006547D01*
X010621Y006577D01*
X010621Y006380D02*
X010837Y006380D01*
X010837Y006350D01*
X010621Y006350D01*
X010621Y006380D01*
X010621Y006184D02*
X010837Y006184D01*
X010837Y006154D01*
X010621Y006154D01*
X010621Y006184D01*
X010621Y005987D02*
X010837Y005987D01*
X010837Y005957D01*
X010621Y005957D01*
X010621Y005987D01*
X010621Y005790D02*
X010837Y005790D01*
X010837Y005760D01*
X010621Y005760D01*
X010621Y005790D01*
X010621Y005593D02*
X010837Y005593D01*
X010837Y005563D01*
X010621Y005563D01*
X010621Y005593D01*
X010621Y005396D02*
X010837Y005396D01*
X010837Y005366D01*
X010621Y005366D01*
X010621Y005396D01*
X010439Y005184D02*
X010439Y004968D01*
X010409Y004968D01*
X010409Y005184D01*
X010439Y005184D01*
X010439Y005086D02*
X010409Y005086D01*
X010242Y005184D02*
X010242Y004968D01*
X010212Y004968D01*
X010212Y005184D01*
X010242Y005184D01*
X010242Y005086D02*
X010212Y005086D01*
X010046Y005184D02*
X010046Y004968D01*
X010016Y004968D01*
X010016Y005184D01*
X010046Y005184D01*
X010046Y005086D02*
X010016Y005086D01*
X009849Y005184D02*
X009849Y004968D01*
X009819Y004968D01*
X009819Y005184D01*
X009849Y005184D01*
X009849Y005086D02*
X009819Y005086D01*
X009652Y005184D02*
X009652Y004968D01*
X009622Y004968D01*
X009622Y005184D01*
X009652Y005184D01*
X009652Y005086D02*
X009622Y005086D01*
X009455Y005184D02*
X009455Y004968D01*
X009425Y004968D01*
X009425Y005184D01*
X009455Y005184D01*
X009455Y005086D02*
X009425Y005086D01*
D19*
X002047Y009825D03*
X002047Y019668D03*
D20*
X011236Y016455D03*
X011236Y016295D03*
X011236Y016135D03*
X011236Y015975D03*
X011236Y015815D03*
X011236Y015655D03*
X011236Y015495D03*
X011236Y015335D03*
X011236Y015175D03*
X011236Y015015D03*
X013066Y015015D03*
X013066Y015175D03*
X013066Y015335D03*
X013066Y015495D03*
X013066Y015655D03*
X013066Y015815D03*
X013066Y015975D03*
X013066Y016135D03*
X013066Y016295D03*
X013066Y016455D03*
D21*
X010052Y003365D03*
X009796Y003365D03*
X009540Y003365D03*
X009284Y003365D03*
X009028Y003365D03*
D22*
X008571Y003224D03*
X010509Y003224D03*
D23*
X010687Y002318D03*
X008393Y002318D03*
D24*
X009217Y002318D03*
X009875Y002318D03*
D25*
X012246Y003965D03*
X013034Y003965D03*
D26*
X004334Y006526D03*
X003704Y006526D03*
X003704Y008140D03*
X004334Y008140D03*
D27*
X005284Y008065D03*
X005796Y008065D03*
X006384Y008065D03*
X006896Y008065D03*
X007984Y008165D03*
X008496Y008165D03*
X010284Y008165D03*
X010796Y008165D03*
X012184Y007865D03*
X012184Y007365D03*
X012184Y006865D03*
X012696Y006865D03*
X013184Y006865D03*
X013184Y007365D03*
X013184Y007865D03*
X012696Y007865D03*
X012696Y007365D03*
X013696Y007365D03*
X013696Y007865D03*
X013696Y006865D03*
X011096Y003965D03*
X010584Y003965D03*
D28*
X012287Y005037D03*
X012287Y005765D03*
X012897Y005765D03*
X012897Y005037D03*
D29*
X013640Y005131D03*
X013640Y005800D03*
X011640Y005800D03*
X011640Y005131D03*
D30*
X006052Y006691D03*
X006052Y007065D03*
X006052Y007439D03*
X005028Y007439D03*
X005028Y006691D03*
M02*
