G75*
G70*
%OFA0B0*%
%FSLAX24Y24*%
%IPPOS*%
%LPD*%
%AMOC8*
5,1,8,0,0,1.08239X$1,22.5*
%
%ADD10R,0.0709X0.0315*%
%ADD11R,0.0709X0.0276*%
%ADD12R,0.0354X0.0276*%
%ADD13R,0.0472X0.0315*%
%ADD14R,0.1575X0.0197*%
%ADD15R,0.0472X0.0551*%
%ADD16R,0.0591X0.0551*%
%ADD17C,0.0087*%
%ADD18C,0.0180*%
%ADD19C,0.1500*%
%ADD20R,0.0370X0.0090*%
%ADD21R,0.0177X0.0543*%
%ADD22R,0.0581X0.0827*%
%ADD23R,0.0935X0.0748*%
%ADD24R,0.0463X0.0748*%
%ADD25C,0.0570*%
%ADD26R,0.0394X0.0354*%
%ADD27R,0.0276X0.0354*%
%ADD28R,0.0354X0.0394*%
%ADD29R,0.0394X0.0433*%
%ADD30R,0.0472X0.0217*%
%ADD31C,0.0100*%
%ADD32C,0.0240*%
%ADD33C,0.0080*%
%ADD34C,0.0070*%
%ADD35C,0.0200*%
%ADD36C,0.0320*%
D10*
X003649Y002847D03*
X003649Y003280D03*
X003649Y003713D03*
X003649Y004146D03*
X003649Y004579D03*
X003649Y005012D03*
X003649Y005445D03*
X007389Y005445D03*
X007389Y005012D03*
X007389Y004579D03*
X007389Y004146D03*
X007389Y003713D03*
X007389Y003280D03*
X007389Y002847D03*
D11*
X007389Y002433D03*
X007389Y005858D03*
X003649Y005858D03*
X003649Y002433D03*
D12*
X007340Y006440D03*
X007340Y006951D03*
X007440Y007710D03*
X007440Y008221D03*
X008210Y004521D03*
X008210Y004010D03*
X008660Y004010D03*
X008660Y004521D03*
X009110Y004531D03*
X009110Y004020D03*
X011640Y014010D03*
X011640Y014521D03*
X013540Y014521D03*
X013540Y014010D03*
D13*
X006740Y007120D03*
X006740Y006411D03*
D14*
X001340Y008023D03*
X001340Y002708D03*
D15*
X000592Y005365D03*
D16*
X002147Y005365D03*
D17*
X008047Y005370D02*
X008255Y005370D01*
X008047Y005370D02*
X008047Y005392D01*
X008255Y005392D01*
X008255Y005370D01*
X008255Y005567D02*
X008047Y005567D01*
X008047Y005589D01*
X008255Y005589D01*
X008255Y005567D01*
X008255Y005764D02*
X008047Y005764D01*
X008047Y005786D01*
X008255Y005786D01*
X008255Y005764D01*
X008255Y005961D02*
X008047Y005961D01*
X008047Y005983D01*
X008255Y005983D01*
X008255Y005961D01*
X008255Y006158D02*
X008047Y006158D01*
X008047Y006180D01*
X008255Y006180D01*
X008255Y006158D01*
X008255Y006354D02*
X008047Y006354D01*
X008047Y006376D01*
X008255Y006376D01*
X008255Y006354D01*
X008255Y006551D02*
X008047Y006551D01*
X008047Y006573D01*
X008255Y006573D01*
X008255Y006551D01*
X008255Y006748D02*
X008047Y006748D01*
X008047Y006770D01*
X008255Y006770D01*
X008255Y006748D01*
X008255Y006945D02*
X008047Y006945D01*
X008047Y006967D01*
X008255Y006967D01*
X008255Y006945D01*
X008255Y007142D02*
X008047Y007142D01*
X008047Y007164D01*
X008255Y007164D01*
X008255Y007142D01*
X008255Y007339D02*
X008047Y007339D01*
X008047Y007361D01*
X008255Y007361D01*
X008255Y007339D01*
X008445Y007551D02*
X008445Y007759D01*
X008467Y007759D01*
X008467Y007551D01*
X008445Y007551D01*
X008445Y007637D02*
X008467Y007637D01*
X008467Y007723D02*
X008445Y007723D01*
X008642Y007759D02*
X008642Y007551D01*
X008642Y007759D02*
X008664Y007759D01*
X008664Y007551D01*
X008642Y007551D01*
X008642Y007637D02*
X008664Y007637D01*
X008664Y007723D02*
X008642Y007723D01*
X008838Y007759D02*
X008838Y007551D01*
X008838Y007759D02*
X008860Y007759D01*
X008860Y007551D01*
X008838Y007551D01*
X008838Y007637D02*
X008860Y007637D01*
X008860Y007723D02*
X008838Y007723D01*
X009035Y007759D02*
X009035Y007551D01*
X009035Y007759D02*
X009057Y007759D01*
X009057Y007551D01*
X009035Y007551D01*
X009035Y007637D02*
X009057Y007637D01*
X009057Y007723D02*
X009035Y007723D01*
X009232Y007759D02*
X009232Y007551D01*
X009232Y007759D02*
X009254Y007759D01*
X009254Y007551D01*
X009232Y007551D01*
X009232Y007637D02*
X009254Y007637D01*
X009254Y007723D02*
X009232Y007723D01*
X009429Y007759D02*
X009429Y007551D01*
X009429Y007759D02*
X009451Y007759D01*
X009451Y007551D01*
X009429Y007551D01*
X009429Y007637D02*
X009451Y007637D01*
X009451Y007723D02*
X009429Y007723D01*
X009626Y007759D02*
X009626Y007551D01*
X009626Y007759D02*
X009648Y007759D01*
X009648Y007551D01*
X009626Y007551D01*
X009626Y007637D02*
X009648Y007637D01*
X009648Y007723D02*
X009626Y007723D01*
X009823Y007759D02*
X009823Y007551D01*
X009823Y007759D02*
X009845Y007759D01*
X009845Y007551D01*
X009823Y007551D01*
X009823Y007637D02*
X009845Y007637D01*
X009845Y007723D02*
X009823Y007723D01*
X010020Y007759D02*
X010020Y007551D01*
X010020Y007759D02*
X010042Y007759D01*
X010042Y007551D01*
X010020Y007551D01*
X010020Y007637D02*
X010042Y007637D01*
X010042Y007723D02*
X010020Y007723D01*
X010216Y007759D02*
X010216Y007551D01*
X010216Y007759D02*
X010238Y007759D01*
X010238Y007551D01*
X010216Y007551D01*
X010216Y007637D02*
X010238Y007637D01*
X010238Y007723D02*
X010216Y007723D01*
X010413Y007759D02*
X010413Y007551D01*
X010413Y007759D02*
X010435Y007759D01*
X010435Y007551D01*
X010413Y007551D01*
X010413Y007637D02*
X010435Y007637D01*
X010435Y007723D02*
X010413Y007723D01*
X010625Y007361D02*
X010833Y007361D01*
X010833Y007339D01*
X010625Y007339D01*
X010625Y007361D01*
X010625Y007164D02*
X010833Y007164D01*
X010833Y007142D01*
X010625Y007142D01*
X010625Y007164D01*
X010625Y006967D02*
X010833Y006967D01*
X010833Y006945D01*
X010625Y006945D01*
X010625Y006967D01*
X010625Y006770D02*
X010833Y006770D01*
X010833Y006748D01*
X010625Y006748D01*
X010625Y006770D01*
X010625Y006573D02*
X010833Y006573D01*
X010833Y006551D01*
X010625Y006551D01*
X010625Y006573D01*
X010625Y006376D02*
X010833Y006376D01*
X010833Y006354D01*
X010625Y006354D01*
X010625Y006376D01*
X010625Y006180D02*
X010833Y006180D01*
X010833Y006158D01*
X010625Y006158D01*
X010625Y006180D01*
X010625Y005983D02*
X010833Y005983D01*
X010833Y005961D01*
X010625Y005961D01*
X010625Y005983D01*
X010625Y005786D02*
X010833Y005786D01*
X010833Y005764D01*
X010625Y005764D01*
X010625Y005786D01*
X010625Y005589D02*
X010833Y005589D01*
X010833Y005567D01*
X010625Y005567D01*
X010625Y005589D01*
X010625Y005392D02*
X010833Y005392D01*
X010833Y005370D01*
X010625Y005370D01*
X010625Y005392D01*
X010435Y005180D02*
X010435Y004972D01*
X010413Y004972D01*
X010413Y005180D01*
X010435Y005180D01*
X010435Y005058D02*
X010413Y005058D01*
X010413Y005144D02*
X010435Y005144D01*
X010238Y005180D02*
X010238Y004972D01*
X010216Y004972D01*
X010216Y005180D01*
X010238Y005180D01*
X010238Y005058D02*
X010216Y005058D01*
X010216Y005144D02*
X010238Y005144D01*
X010042Y005180D02*
X010042Y004972D01*
X010020Y004972D01*
X010020Y005180D01*
X010042Y005180D01*
X010042Y005058D02*
X010020Y005058D01*
X010020Y005144D02*
X010042Y005144D01*
X009845Y005180D02*
X009845Y004972D01*
X009823Y004972D01*
X009823Y005180D01*
X009845Y005180D01*
X009845Y005058D02*
X009823Y005058D01*
X009823Y005144D02*
X009845Y005144D01*
X009648Y005180D02*
X009648Y004972D01*
X009626Y004972D01*
X009626Y005180D01*
X009648Y005180D01*
X009648Y005058D02*
X009626Y005058D01*
X009626Y005144D02*
X009648Y005144D01*
X009451Y005180D02*
X009451Y004972D01*
X009429Y004972D01*
X009429Y005180D01*
X009451Y005180D01*
X009451Y005058D02*
X009429Y005058D01*
X009429Y005144D02*
X009451Y005144D01*
X009254Y005180D02*
X009254Y004972D01*
X009232Y004972D01*
X009232Y005180D01*
X009254Y005180D01*
X009254Y005058D02*
X009232Y005058D01*
X009232Y005144D02*
X009254Y005144D01*
X009057Y005180D02*
X009057Y004972D01*
X009035Y004972D01*
X009035Y005180D01*
X009057Y005180D01*
X009057Y005058D02*
X009035Y005058D01*
X009035Y005144D02*
X009057Y005144D01*
X008860Y005180D02*
X008860Y004972D01*
X008838Y004972D01*
X008838Y005180D01*
X008860Y005180D01*
X008860Y005058D02*
X008838Y005058D01*
X008838Y005144D02*
X008860Y005144D01*
X008664Y005180D02*
X008664Y004972D01*
X008642Y004972D01*
X008642Y005180D01*
X008664Y005180D01*
X008664Y005058D02*
X008642Y005058D01*
X008642Y005144D02*
X008664Y005144D01*
X008467Y005180D02*
X008467Y004972D01*
X008445Y004972D01*
X008445Y005180D01*
X008467Y005180D01*
X008467Y005058D02*
X008445Y005058D01*
X008445Y005144D02*
X008467Y005144D01*
D18*
X010250Y005555D02*
X010250Y007175D01*
X010250Y005555D02*
X008630Y005555D01*
X008630Y007175D01*
X010250Y007175D01*
X010250Y005734D02*
X008630Y005734D01*
X008630Y005913D02*
X010250Y005913D01*
X010250Y006092D02*
X008630Y006092D01*
X008630Y006271D02*
X010250Y006271D01*
X010250Y006450D02*
X008630Y006450D01*
X008630Y006629D02*
X010250Y006629D01*
X010250Y006808D02*
X008630Y006808D01*
X008630Y006987D02*
X010250Y006987D01*
X010250Y007166D02*
X008630Y007166D01*
D19*
X002047Y009825D03*
X002047Y019668D03*
D20*
X011236Y016455D03*
X011236Y016295D03*
X011236Y016135D03*
X011236Y015975D03*
X011236Y015815D03*
X011236Y015655D03*
X011236Y015495D03*
X011236Y015335D03*
X011236Y015175D03*
X011236Y015015D03*
X013066Y015015D03*
X013066Y015175D03*
X013066Y015335D03*
X013066Y015495D03*
X013066Y015655D03*
X013066Y015815D03*
X013066Y015975D03*
X013066Y016135D03*
X013066Y016295D03*
X013066Y016455D03*
D21*
X010052Y003365D03*
X009796Y003365D03*
X009540Y003365D03*
X009284Y003365D03*
X009028Y003365D03*
D22*
X008571Y003224D03*
X010509Y003224D03*
D23*
X010687Y002318D03*
X008393Y002318D03*
D24*
X009217Y002318D03*
X009875Y002318D03*
D25*
X012246Y003965D03*
X013034Y003965D03*
D26*
X004334Y006526D03*
X003704Y006526D03*
X003704Y008140D03*
X004334Y008140D03*
D27*
X005284Y008065D03*
X005796Y008065D03*
X006384Y008065D03*
X006896Y008065D03*
X007984Y008165D03*
X008496Y008165D03*
X010284Y008165D03*
X010796Y008165D03*
X012184Y007865D03*
X012184Y007365D03*
X012184Y006865D03*
X012696Y006865D03*
X013184Y006865D03*
X013184Y007365D03*
X013184Y007865D03*
X012696Y007865D03*
X012696Y007365D03*
X013696Y007365D03*
X013696Y007865D03*
X013696Y006865D03*
X011096Y003965D03*
X010584Y003965D03*
D28*
X012287Y005037D03*
X012287Y005765D03*
X012897Y005765D03*
X012897Y005037D03*
D29*
X013640Y005131D03*
X013640Y005800D03*
X011640Y005800D03*
X011640Y005131D03*
D30*
X006052Y006691D03*
X006052Y007065D03*
X006052Y007439D03*
X005028Y007439D03*
X005028Y006691D03*
D31*
X000538Y002223D02*
X000696Y002065D01*
X003240Y002065D01*
X003240Y002194D01*
X003184Y002250D01*
X003184Y002617D01*
X003198Y002630D01*
X003184Y002644D01*
X003184Y003050D01*
X003198Y003063D01*
X003184Y003077D01*
X003184Y003483D01*
X003198Y003496D01*
X003184Y003510D01*
X003184Y003916D01*
X003198Y003929D01*
X003184Y003943D01*
X003184Y004349D01*
X003198Y004362D01*
X003184Y004376D01*
X003184Y004782D01*
X003240Y004838D01*
X003240Y005175D01*
X002852Y005175D01*
X002852Y002834D01*
X002809Y002790D01*
X000440Y002790D01*
X000440Y002545D01*
X000451Y002432D01*
X000538Y002223D01*
X000523Y002259D02*
X003184Y002259D01*
X003124Y002259D02*
X002340Y002259D01*
X002340Y002161D02*
X003188Y002161D01*
X003224Y002125D02*
X003124Y002225D01*
X003124Y004807D01*
X003146Y004828D01*
X003144Y004835D01*
X003144Y004983D01*
X003620Y004983D01*
X003620Y005041D01*
X003144Y005041D01*
X003144Y005115D01*
X002972Y005115D01*
X002972Y002785D01*
X002858Y002670D01*
X002340Y002670D01*
X002340Y002035D01*
X007756Y002035D01*
X007756Y002145D01*
X007408Y002145D01*
X007408Y002414D01*
X007370Y002414D01*
X007370Y002145D01*
X007015Y002145D01*
X006977Y002156D01*
X006942Y002175D01*
X006914Y002203D01*
X006895Y002237D01*
X006884Y002276D01*
X006884Y002414D01*
X007370Y002414D01*
X007370Y002452D01*
X006884Y002452D01*
X006884Y002591D01*
X006886Y002597D01*
X006864Y002619D01*
X006864Y004374D01*
X006886Y004395D01*
X006884Y004402D01*
X006884Y004550D01*
X007360Y004550D01*
X007360Y004608D01*
X006884Y004608D01*
X006884Y004756D01*
X006886Y004762D01*
X006864Y004784D01*
X006864Y006067D01*
X006882Y006084D01*
X006433Y006084D01*
X006362Y006155D01*
X005708Y006155D01*
X005692Y006144D01*
X005623Y006155D01*
X005553Y006155D01*
X005539Y006169D01*
X005520Y006172D01*
X005479Y006229D01*
X005430Y006278D01*
X005430Y006298D01*
X004672Y006298D01*
X004670Y006291D02*
X004681Y006329D01*
X004681Y006482D01*
X004700Y006463D01*
X004734Y006443D01*
X004772Y006433D01*
X005024Y006433D01*
X005024Y006687D01*
X005032Y006687D01*
X005032Y006433D01*
X005284Y006433D01*
X005322Y006443D01*
X005324Y006445D01*
X005430Y006298D01*
X005501Y006199D02*
X004552Y006199D01*
X004550Y006199D02*
X004588Y006209D01*
X004623Y006229D01*
X004651Y006257D01*
X004670Y006291D01*
X004681Y006396D02*
X005359Y006396D01*
X005032Y006495D02*
X005024Y006495D01*
X005024Y006593D02*
X005032Y006593D01*
X005032Y006696D02*
X005024Y006696D01*
X005024Y006950D01*
X004772Y006950D01*
X004734Y006939D01*
X004700Y006920D01*
X004672Y006892D01*
X004652Y006858D01*
X004642Y006819D01*
X004642Y006804D01*
X004623Y006823D01*
X004588Y006843D01*
X004550Y006853D01*
X004372Y006853D01*
X004372Y006565D01*
X004295Y006565D01*
X004295Y006853D01*
X004117Y006853D01*
X004079Y006843D01*
X004045Y006823D01*
X004019Y006797D01*
X003993Y006823D01*
X003959Y006843D01*
X003920Y006853D01*
X003742Y006853D01*
X003742Y006565D01*
X003665Y006565D01*
X003665Y006853D01*
X003487Y006853D01*
X003449Y006843D01*
X003415Y006823D01*
X003387Y006795D01*
X003367Y006761D01*
X003357Y006723D01*
X003357Y006565D01*
X003665Y006565D01*
X003665Y006488D01*
X003357Y006488D01*
X003357Y006329D01*
X003367Y006291D01*
X003387Y006257D01*
X003415Y006229D01*
X003449Y006209D01*
X003487Y006199D01*
X003665Y006199D01*
X003665Y006487D01*
X003742Y006487D01*
X003742Y006199D01*
X003920Y006199D01*
X003959Y006209D01*
X003993Y006229D01*
X004019Y006255D01*
X004045Y006229D01*
X004079Y006209D01*
X004117Y006199D01*
X004295Y006199D01*
X004295Y006487D01*
X004372Y006487D01*
X004372Y006199D01*
X004550Y006199D01*
X004372Y006199D02*
X004295Y006199D01*
X004295Y006298D02*
X004372Y006298D01*
X004372Y006396D02*
X004295Y006396D01*
X004295Y006488D02*
X003742Y006488D01*
X003742Y006565D01*
X004051Y006565D01*
X004295Y006565D01*
X004295Y006488D01*
X004295Y006495D02*
X003742Y006495D01*
X003665Y006495D02*
X002972Y006495D01*
X002972Y006593D02*
X003357Y006593D01*
X003357Y006692D02*
X002972Y006692D01*
X002972Y006790D02*
X003384Y006790D01*
X003240Y006790D02*
X002852Y006790D01*
X002852Y006692D02*
X003240Y006692D01*
X003240Y006593D02*
X002852Y006593D01*
X002852Y006495D02*
X003240Y006495D01*
X003240Y006396D02*
X002852Y006396D01*
X002852Y006298D02*
X003240Y006298D01*
X003240Y006199D02*
X002852Y006199D01*
X002852Y006101D02*
X003240Y006101D01*
X003236Y006136D02*
X003202Y006116D01*
X003174Y006088D01*
X003155Y006054D01*
X003144Y006016D01*
X003144Y005877D01*
X003630Y005877D01*
X003630Y005839D01*
X003144Y005839D01*
X003144Y005775D01*
X002972Y005775D01*
X002972Y008509D01*
X002858Y008623D01*
X002340Y008623D01*
X002340Y008972D01*
X002446Y009016D01*
X002548Y009075D01*
X002642Y009147D01*
X002660Y009165D01*
X005768Y009165D01*
X005794Y009101D01*
X005876Y009020D01*
X005982Y008975D01*
X006098Y008975D01*
X006170Y009005D01*
X006094Y008930D01*
X006050Y008823D01*
X006050Y008708D01*
X006063Y008675D01*
X004753Y008675D01*
X004630Y008552D01*
X004565Y008487D01*
X004066Y008487D01*
X004019Y008440D01*
X003971Y008487D01*
X003437Y008487D01*
X003337Y008388D01*
X003337Y007893D01*
X003437Y007793D01*
X003479Y007793D01*
X003450Y007723D01*
X003450Y007608D01*
X003494Y007501D01*
X003576Y007420D01*
X003682Y007375D01*
X003798Y007375D01*
X003904Y007420D01*
X003986Y007501D01*
X004030Y007608D01*
X004030Y007723D01*
X003992Y007814D01*
X004019Y007841D01*
X004066Y007793D01*
X004601Y007793D01*
X004701Y007893D01*
X004701Y008029D01*
X004927Y008255D01*
X004996Y008255D01*
X004996Y008084D01*
X005265Y008084D01*
X005265Y008047D01*
X004996Y008047D01*
X004996Y007869D01*
X005007Y007830D01*
X005026Y007796D01*
X005054Y007768D01*
X005088Y007749D01*
X005127Y007738D01*
X005174Y007738D01*
X005174Y007718D01*
X004722Y007718D01*
X004622Y007618D01*
X004622Y007261D01*
X004722Y007161D01*
X005174Y007161D01*
X005174Y006950D01*
X005032Y006950D01*
X005032Y006696D01*
X005024Y006790D02*
X005032Y006790D01*
X005024Y006889D02*
X005032Y006889D01*
X005174Y006987D02*
X002972Y006987D01*
X002972Y006889D02*
X004670Y006889D01*
X004698Y007184D02*
X002972Y007184D01*
X002972Y007086D02*
X005174Y007086D01*
X005594Y007086D02*
X005666Y007086D01*
X005666Y007070D02*
X006048Y007070D01*
X006048Y007061D01*
X005666Y007061D01*
X005666Y006937D01*
X005676Y006900D01*
X005646Y006870D01*
X005646Y006717D01*
X005594Y006789D01*
X005594Y007560D01*
X005646Y007560D01*
X005646Y007261D01*
X005676Y007231D01*
X005666Y007193D01*
X005666Y007070D01*
X005666Y006987D02*
X005594Y006987D01*
X005594Y006889D02*
X005664Y006889D01*
X005646Y006790D02*
X005594Y006790D01*
X005594Y007184D02*
X005666Y007184D01*
X005646Y007283D02*
X005594Y007283D01*
X005594Y007381D02*
X005646Y007381D01*
X005646Y007480D02*
X005594Y007480D01*
X005047Y007775D02*
X004008Y007775D01*
X004030Y007677D02*
X004681Y007677D01*
X004622Y007578D02*
X004018Y007578D01*
X003965Y007480D02*
X004622Y007480D01*
X004622Y007381D02*
X003812Y007381D01*
X003668Y007381D02*
X002972Y007381D01*
X002972Y007283D02*
X004622Y007283D01*
X004372Y006790D02*
X004295Y006790D01*
X004295Y006692D02*
X004372Y006692D01*
X004372Y006593D02*
X004295Y006593D01*
X004115Y006199D02*
X003922Y006199D01*
X004023Y006146D02*
X003668Y006146D01*
X003668Y005877D01*
X004153Y005877D01*
X004153Y006016D01*
X004143Y006054D01*
X004123Y006088D01*
X004095Y006116D01*
X004061Y006136D01*
X004023Y006146D01*
X004110Y006101D02*
X006416Y006101D01*
X006864Y006002D02*
X004153Y006002D01*
X004153Y005904D02*
X006864Y005904D01*
X006864Y005805D02*
X004153Y005805D01*
X004153Y005839D02*
X004153Y005701D01*
X004151Y005695D01*
X004173Y005673D01*
X004173Y005217D01*
X004151Y005195D01*
X004153Y005189D01*
X004153Y005041D01*
X003677Y005041D01*
X003677Y004983D01*
X004153Y004983D01*
X004153Y004835D01*
X004151Y004828D01*
X004173Y004807D01*
X004173Y002225D01*
X004073Y002125D01*
X003224Y002125D01*
X003240Y002161D02*
X000600Y002161D01*
X000482Y002358D02*
X003184Y002358D01*
X003124Y002358D02*
X002340Y002358D01*
X002340Y002456D02*
X003124Y002456D01*
X003184Y002456D02*
X000449Y002456D01*
X000440Y002555D02*
X003184Y002555D01*
X003124Y002555D02*
X002340Y002555D01*
X002340Y002653D02*
X003124Y002653D01*
X003184Y002653D02*
X000440Y002653D01*
X000440Y002752D02*
X003184Y002752D01*
X003124Y002752D02*
X002940Y002752D01*
X002972Y002850D02*
X003124Y002850D01*
X003184Y002850D02*
X002852Y002850D01*
X002852Y002949D02*
X003184Y002949D01*
X003124Y002949D02*
X002972Y002949D01*
X002972Y003047D02*
X003124Y003047D01*
X003184Y003047D02*
X002852Y003047D01*
X002852Y003146D02*
X003184Y003146D01*
X003124Y003146D02*
X002972Y003146D01*
X002972Y003244D02*
X003124Y003244D01*
X003184Y003244D02*
X002852Y003244D01*
X002852Y003343D02*
X003184Y003343D01*
X003124Y003343D02*
X002972Y003343D01*
X002972Y003441D02*
X003124Y003441D01*
X003184Y003441D02*
X002852Y003441D01*
X002852Y003540D02*
X003184Y003540D01*
X003124Y003540D02*
X002972Y003540D01*
X002972Y003638D02*
X003124Y003638D01*
X003184Y003638D02*
X002852Y003638D01*
X002852Y003737D02*
X003184Y003737D01*
X003124Y003737D02*
X002972Y003737D01*
X002972Y003835D02*
X003124Y003835D01*
X003184Y003835D02*
X002852Y003835D01*
X002852Y003934D02*
X003193Y003934D01*
X003124Y003934D02*
X002972Y003934D01*
X002972Y004032D02*
X003124Y004032D01*
X003184Y004032D02*
X002852Y004032D01*
X002852Y004131D02*
X003184Y004131D01*
X003124Y004131D02*
X002972Y004131D01*
X002972Y004229D02*
X003124Y004229D01*
X003184Y004229D02*
X002852Y004229D01*
X002852Y004328D02*
X003184Y004328D01*
X003124Y004328D02*
X002972Y004328D01*
X002972Y004426D02*
X003124Y004426D01*
X003184Y004426D02*
X002852Y004426D01*
X002852Y004525D02*
X003184Y004525D01*
X003124Y004525D02*
X002972Y004525D01*
X002972Y004623D02*
X003124Y004623D01*
X003184Y004623D02*
X002852Y004623D01*
X002852Y004722D02*
X003184Y004722D01*
X003124Y004722D02*
X002972Y004722D01*
X002972Y004820D02*
X003138Y004820D01*
X003223Y004820D02*
X002852Y004820D01*
X002852Y004919D02*
X003240Y004919D01*
X003144Y004919D02*
X002972Y004919D01*
X002972Y005017D02*
X003620Y005017D01*
X003677Y005017D02*
X006864Y005017D01*
X006864Y004919D02*
X004153Y004919D01*
X004159Y004820D02*
X006864Y004820D01*
X006884Y004722D02*
X004173Y004722D01*
X004173Y004623D02*
X006884Y004623D01*
X006884Y004525D02*
X004173Y004525D01*
X004173Y004426D02*
X006884Y004426D01*
X006864Y004328D02*
X004173Y004328D01*
X004173Y004229D02*
X006864Y004229D01*
X006864Y004131D02*
X004173Y004131D01*
X004173Y004032D02*
X006864Y004032D01*
X006864Y003934D02*
X004173Y003934D01*
X004173Y003835D02*
X006864Y003835D01*
X006864Y003737D02*
X004173Y003737D01*
X004173Y003638D02*
X006864Y003638D01*
X006864Y003540D02*
X004173Y003540D01*
X004173Y003441D02*
X006864Y003441D01*
X006864Y003343D02*
X004173Y003343D01*
X004173Y003244D02*
X006864Y003244D01*
X006864Y003146D02*
X004173Y003146D01*
X004173Y003047D02*
X006864Y003047D01*
X006864Y002949D02*
X004173Y002949D01*
X004173Y002850D02*
X006864Y002850D01*
X006864Y002752D02*
X004173Y002752D01*
X004173Y002653D02*
X006864Y002653D01*
X006884Y002555D02*
X004173Y002555D01*
X004173Y002456D02*
X006884Y002456D01*
X006884Y002358D02*
X004173Y002358D01*
X004173Y002259D02*
X006889Y002259D01*
X006967Y002161D02*
X004109Y002161D01*
X002340Y002062D02*
X007756Y002062D01*
X007408Y002161D02*
X007370Y002161D01*
X007370Y002259D02*
X007408Y002259D01*
X007408Y002358D02*
X007370Y002358D01*
X007418Y004550D02*
X007863Y004550D01*
X007863Y004608D01*
X007418Y004608D01*
X007418Y004550D01*
X007389Y005012D02*
X007389Y005445D01*
X007389Y005858D01*
X006864Y005707D02*
X004153Y005707D01*
X004173Y005608D02*
X006864Y005608D01*
X006864Y005510D02*
X004173Y005510D01*
X004173Y005411D02*
X006864Y005411D01*
X006864Y005313D02*
X004173Y005313D01*
X004170Y005214D02*
X006864Y005214D01*
X006864Y005116D02*
X004153Y005116D01*
X004153Y005839D02*
X003668Y005839D01*
X003668Y005877D01*
X003630Y005877D01*
X003630Y006146D01*
X003275Y006146D01*
X003236Y006136D01*
X003187Y006101D02*
X002972Y006101D01*
X002972Y006199D02*
X003485Y006199D01*
X003365Y006298D02*
X002972Y006298D01*
X002972Y006396D02*
X003357Y006396D01*
X003630Y006101D02*
X003668Y006101D01*
X003665Y006199D02*
X003742Y006199D01*
X003742Y006298D02*
X003665Y006298D01*
X003665Y006396D02*
X003742Y006396D01*
X003742Y006593D02*
X003665Y006593D01*
X003665Y006692D02*
X003742Y006692D01*
X003742Y006790D02*
X003665Y006790D01*
X003240Y006889D02*
X002852Y006889D01*
X002852Y006987D02*
X003240Y006987D01*
X003240Y007086D02*
X002852Y007086D01*
X002852Y007184D02*
X003240Y007184D01*
X003240Y007283D02*
X002852Y007283D01*
X002852Y007381D02*
X003240Y007381D01*
X003240Y007480D02*
X002852Y007480D01*
X002852Y007578D02*
X003240Y007578D01*
X003240Y007677D02*
X002852Y007677D01*
X002852Y007775D02*
X003240Y007775D01*
X003240Y007874D02*
X002852Y007874D01*
X002852Y007972D02*
X003240Y007972D01*
X003337Y007972D02*
X002972Y007972D01*
X002972Y007874D02*
X003356Y007874D01*
X003472Y007775D02*
X002972Y007775D01*
X002972Y007677D02*
X003450Y007677D01*
X003462Y007578D02*
X002972Y007578D01*
X002972Y007480D02*
X003515Y007480D01*
X003337Y008071D02*
X002972Y008071D01*
X002972Y008169D02*
X003337Y008169D01*
X003240Y008169D02*
X002852Y008169D01*
X002852Y008071D02*
X003240Y008071D01*
X003240Y008268D02*
X002852Y008268D01*
X002852Y008366D02*
X003240Y008366D01*
X003337Y008366D02*
X002972Y008366D01*
X002972Y008268D02*
X003337Y008268D01*
X003414Y008465D02*
X002972Y008465D01*
X002918Y008563D02*
X004641Y008563D01*
X004740Y008662D02*
X002340Y008662D01*
X002340Y008760D02*
X006050Y008760D01*
X006065Y008859D02*
X002340Y008859D01*
X002340Y008957D02*
X006122Y008957D01*
X005839Y009056D02*
X002515Y009056D01*
X002649Y009154D02*
X005772Y009154D01*
X005265Y008071D02*
X004742Y008071D01*
X004701Y007972D02*
X004996Y007972D01*
X004996Y007874D02*
X004682Y007874D01*
X004841Y008169D02*
X004996Y008169D01*
X004044Y008465D02*
X003993Y008465D01*
X003240Y008465D02*
X002847Y008465D01*
X002852Y008459D02*
X002809Y008503D01*
X000852Y008503D01*
X000852Y010397D01*
X000809Y010440D01*
X000496Y010440D01*
X000453Y010397D01*
X000453Y008147D01*
X000496Y008103D01*
X002078Y008103D01*
X002078Y007940D01*
X000602Y007940D01*
X000602Y008022D01*
X000559Y008065D01*
X000440Y008065D01*
X000440Y011465D01*
X001040Y011465D01*
X001040Y010865D01*
X003240Y008865D01*
X003240Y005715D01*
X002852Y005715D01*
X002852Y008459D01*
X003139Y008957D02*
X000852Y008957D01*
X000852Y008859D02*
X003240Y008859D01*
X003240Y008760D02*
X000852Y008760D01*
X000852Y008662D02*
X003240Y008662D01*
X003240Y008563D02*
X000852Y008563D01*
X000852Y009056D02*
X003030Y009056D01*
X002922Y009154D02*
X000852Y009154D01*
X000852Y009253D02*
X002814Y009253D01*
X002705Y009351D02*
X000852Y009351D01*
X000852Y009450D02*
X002597Y009450D01*
X002489Y009548D02*
X000852Y009548D01*
X000852Y009647D02*
X002380Y009647D01*
X002272Y009745D02*
X000852Y009745D01*
X000852Y009844D02*
X002164Y009844D01*
X002055Y009942D02*
X000852Y009942D01*
X000852Y010041D02*
X001947Y010041D01*
X001839Y010139D02*
X000852Y010139D01*
X000852Y010238D02*
X001730Y010238D01*
X001622Y010336D02*
X000852Y010336D01*
X000814Y010435D02*
X001514Y010435D01*
X001405Y010533D02*
X000440Y010533D01*
X000440Y010435D02*
X000491Y010435D01*
X000453Y010336D02*
X000440Y010336D01*
X000440Y010238D02*
X000453Y010238D01*
X000440Y010139D02*
X000453Y010139D01*
X000440Y010041D02*
X000453Y010041D01*
X000440Y009942D02*
X000453Y009942D01*
X000440Y009844D02*
X000453Y009844D01*
X000440Y009745D02*
X000453Y009745D01*
X000440Y009647D02*
X000453Y009647D01*
X000440Y009548D02*
X000453Y009548D01*
X000440Y009450D02*
X000453Y009450D01*
X000440Y009351D02*
X000453Y009351D01*
X000440Y009253D02*
X000453Y009253D01*
X000440Y009154D02*
X000453Y009154D01*
X000440Y009056D02*
X000453Y009056D01*
X000440Y008957D02*
X000453Y008957D01*
X000440Y008859D02*
X000453Y008859D01*
X000440Y008760D02*
X000453Y008760D01*
X000440Y008662D02*
X000453Y008662D01*
X000440Y008563D02*
X000453Y008563D01*
X000440Y008465D02*
X000453Y008465D01*
X000440Y008366D02*
X000453Y008366D01*
X000440Y008268D02*
X000453Y008268D01*
X000440Y008169D02*
X000453Y008169D01*
X000440Y008071D02*
X002078Y008071D01*
X002078Y007972D02*
X000602Y007972D01*
X002247Y005445D02*
X002147Y005365D01*
X002852Y005116D02*
X003240Y005116D01*
X003240Y005017D02*
X002852Y005017D01*
X002852Y005805D02*
X003240Y005805D01*
X003144Y005805D02*
X002972Y005805D01*
X002972Y005904D02*
X003144Y005904D01*
X003240Y005904D02*
X002852Y005904D01*
X002852Y006002D02*
X003240Y006002D01*
X003144Y006002D02*
X002972Y006002D01*
X003630Y006002D02*
X003668Y006002D01*
X003668Y005904D02*
X003630Y005904D01*
X006458Y006739D02*
X006458Y006819D01*
X006484Y006812D01*
X006711Y006812D01*
X006711Y007091D01*
X006769Y007091D01*
X006769Y006812D01*
X006996Y006812D01*
X007013Y006817D01*
X007013Y006794D01*
X007023Y006756D01*
X007033Y006739D01*
X006458Y006739D01*
X006458Y006790D02*
X007014Y006790D01*
X006769Y006889D02*
X006711Y006889D01*
X006711Y006987D02*
X006769Y006987D01*
X006769Y007086D02*
X006711Y007086D01*
X007695Y007409D02*
X007745Y007459D01*
X007833Y007370D01*
X007833Y007291D01*
X007695Y007409D01*
X007727Y007381D02*
X007822Y007381D01*
X008022Y007775D02*
X008232Y007775D01*
X008232Y007848D02*
X008232Y007575D01*
X008222Y007575D01*
X007959Y007838D01*
X007965Y007838D01*
X007965Y008147D01*
X008003Y008147D01*
X008003Y007838D01*
X008142Y007838D01*
X008180Y007849D01*
X008214Y007868D01*
X008226Y007880D01*
X008245Y007861D01*
X008232Y007848D01*
X008232Y007874D02*
X008220Y007874D01*
X008232Y007677D02*
X008120Y007677D01*
X008219Y007578D02*
X008232Y007578D01*
X008003Y007874D02*
X007965Y007874D01*
X007965Y007972D02*
X008003Y007972D01*
X008003Y008071D02*
X007965Y008071D01*
X007965Y008184D02*
X007965Y008394D01*
X007985Y008414D01*
X008003Y008430D01*
X008003Y008184D01*
X007965Y008184D01*
X007965Y008268D02*
X008003Y008268D01*
X008003Y008366D02*
X007965Y008366D01*
X008071Y008493D02*
X008074Y008495D01*
X008138Y008495D01*
X008244Y008540D01*
X008326Y008621D01*
X008370Y008728D01*
X008370Y008843D01*
X008326Y008950D01*
X008244Y009031D01*
X008138Y009075D01*
X008117Y009075D01*
X008130Y009108D01*
X008130Y009165D01*
X009543Y009165D01*
X009030Y008652D01*
X009030Y008478D01*
X009033Y008475D01*
X009033Y008441D01*
X008998Y008455D01*
X008882Y008455D01*
X008797Y008420D01*
X008704Y008513D01*
X008288Y008513D01*
X008226Y008451D01*
X008214Y008463D01*
X008180Y008482D01*
X008142Y008493D01*
X008071Y008493D01*
X008210Y008465D02*
X008240Y008465D01*
X008268Y008563D02*
X009030Y008563D01*
X009033Y008465D02*
X008752Y008465D01*
X009040Y008662D02*
X008343Y008662D01*
X008370Y008760D02*
X009138Y008760D01*
X009237Y008859D02*
X008363Y008859D01*
X008318Y008957D02*
X009335Y008957D01*
X009434Y009056D02*
X008185Y009056D01*
X008130Y009154D02*
X009532Y009154D01*
X010284Y008513D02*
X010527Y008755D01*
X012027Y008755D01*
X012437Y009165D01*
X013730Y009165D01*
X013730Y008213D01*
X013730Y008323D01*
X013686Y008430D01*
X013604Y008511D01*
X013498Y008555D01*
X013382Y008555D01*
X013276Y008511D01*
X013194Y008430D01*
X013150Y008323D01*
X013150Y008213D01*
X012976Y008213D01*
X012940Y008177D01*
X012904Y008213D01*
X012730Y008213D01*
X012730Y008323D01*
X012686Y008430D01*
X012604Y008511D01*
X012498Y008555D01*
X012382Y008555D01*
X012276Y008511D01*
X012194Y008430D01*
X012150Y008323D01*
X012150Y008213D01*
X011976Y008213D01*
X011876Y008113D01*
X011876Y008075D01*
X011340Y008075D01*
X011304Y008111D01*
X011198Y008155D01*
X011082Y008155D01*
X011061Y008147D01*
X010815Y008147D01*
X010815Y008184D01*
X011084Y008184D01*
X011084Y008362D01*
X011073Y008401D01*
X011054Y008435D01*
X011026Y008463D01*
X010992Y008482D01*
X010953Y008493D01*
X010815Y008493D01*
X010815Y008184D01*
X010777Y008184D01*
X010777Y008493D01*
X010638Y008493D01*
X010600Y008482D01*
X010566Y008463D01*
X010554Y008451D01*
X010492Y008513D01*
X010284Y008513D01*
X010335Y008563D02*
X013730Y008563D01*
X013730Y008465D02*
X013651Y008465D01*
X013712Y008366D02*
X013730Y008366D01*
X013730Y008268D02*
X013730Y008268D01*
X013730Y008213D02*
X013730Y008213D01*
X013730Y008662D02*
X010434Y008662D01*
X010540Y008465D02*
X010570Y008465D01*
X010777Y008465D02*
X010815Y008465D01*
X010815Y008366D02*
X010777Y008366D01*
X010777Y008268D02*
X010815Y008268D01*
X010815Y008169D02*
X011933Y008169D01*
X012150Y008268D02*
X011084Y008268D01*
X011083Y008366D02*
X012168Y008366D01*
X012229Y008465D02*
X011022Y008465D01*
X010815Y008147D02*
X010777Y008147D01*
X010777Y007838D01*
X010638Y007838D01*
X010608Y007846D01*
X010615Y007834D01*
X010628Y007785D01*
X010628Y007655D01*
X010452Y007655D01*
X010452Y007655D01*
X010628Y007655D01*
X010628Y007574D01*
X010657Y007574D01*
X010658Y007575D01*
X010753Y007575D01*
X010890Y007712D01*
X010850Y007808D01*
X010850Y007838D01*
X010815Y007838D01*
X010815Y008147D01*
X010815Y008071D02*
X010777Y008071D01*
X010777Y007972D02*
X010815Y007972D01*
X010815Y007874D02*
X010777Y007874D01*
X010863Y007775D02*
X010628Y007775D01*
X010628Y007677D02*
X010855Y007677D01*
X010756Y007578D02*
X010628Y007578D01*
X012032Y008760D02*
X013730Y008760D01*
X013730Y008859D02*
X012131Y008859D01*
X012229Y008957D02*
X013730Y008957D01*
X013730Y009056D02*
X012328Y009056D01*
X012426Y009154D02*
X013730Y009154D01*
X013229Y008465D02*
X012651Y008465D01*
X012712Y008366D02*
X013168Y008366D01*
X013150Y008268D02*
X012730Y008268D01*
X013650Y006518D02*
X013730Y006518D01*
X013730Y006167D01*
X013688Y006167D01*
X013688Y005849D01*
X013592Y005849D01*
X013592Y006167D01*
X013436Y006167D01*
X013387Y006215D01*
X013450Y006278D01*
X013650Y006478D01*
X013650Y006518D01*
X013650Y006495D02*
X013730Y006495D01*
X013730Y006396D02*
X013568Y006396D01*
X013469Y006298D02*
X013730Y006298D01*
X013730Y006199D02*
X013403Y006199D01*
X013592Y006101D02*
X013688Y006101D01*
X013688Y006002D02*
X013592Y006002D01*
X013592Y005904D02*
X013688Y005904D01*
X012936Y005727D02*
X012936Y005459D01*
X012882Y005404D01*
X012650Y005404D01*
X012578Y005332D01*
X012557Y005354D01*
X012522Y005374D01*
X012484Y005384D01*
X012326Y005384D01*
X012326Y005076D01*
X012249Y005076D01*
X012249Y005384D01*
X012090Y005384D01*
X012052Y005374D01*
X012018Y005354D01*
X011990Y005326D01*
X011987Y005321D01*
X011987Y005367D01*
X011977Y005405D01*
X011957Y005439D01*
X011945Y005451D01*
X011966Y005472D01*
X012040Y005399D01*
X012535Y005399D01*
X012607Y005470D01*
X012628Y005449D01*
X012662Y005429D01*
X012701Y005419D01*
X012859Y005419D01*
X012859Y005727D01*
X012936Y005727D01*
X012936Y005707D02*
X012859Y005707D01*
X012859Y005608D02*
X012936Y005608D01*
X012936Y005510D02*
X012859Y005510D01*
X012889Y005411D02*
X012548Y005411D01*
X012326Y005313D02*
X012249Y005313D01*
X012249Y005214D02*
X012326Y005214D01*
X012326Y005116D02*
X012249Y005116D01*
X012027Y005411D02*
X011973Y005411D01*
X011999Y004355D02*
X011353Y004355D01*
X011321Y004387D01*
X011286Y004301D01*
X011272Y004288D01*
X011292Y004282D01*
X011326Y004263D01*
X011354Y004235D01*
X011373Y004201D01*
X011384Y004162D01*
X011384Y003984D01*
X011115Y003984D01*
X011115Y003947D01*
X011384Y003947D01*
X011384Y003769D01*
X011373Y003730D01*
X011354Y003696D01*
X011326Y003668D01*
X011292Y003649D01*
X011253Y003638D01*
X011115Y003638D01*
X011115Y003947D01*
X011077Y003947D01*
X011077Y003638D01*
X010970Y003638D01*
X010970Y002862D01*
X011225Y002862D01*
X011324Y002763D01*
X011324Y002035D01*
X013381Y002035D01*
X013391Y002043D01*
X013450Y002035D01*
X013510Y002035D01*
X013514Y002031D01*
X013558Y002029D01*
X013747Y002065D01*
X013916Y002158D01*
X014049Y002298D01*
X014131Y002472D01*
X014150Y002560D01*
X014150Y004678D01*
X013950Y004478D01*
X013827Y004355D01*
X013226Y004355D01*
X013262Y004338D01*
X013317Y004297D01*
X013365Y004249D01*
X013406Y004193D01*
X013437Y004132D01*
X013458Y004067D01*
X013469Y004000D01*
X013469Y003984D01*
X013053Y003984D01*
X013053Y003947D01*
X013469Y003947D01*
X013469Y003931D01*
X013458Y003864D01*
X013437Y003798D01*
X013406Y003737D01*
X013365Y003682D01*
X013317Y003634D01*
X013262Y003593D01*
X013201Y003562D01*
X013136Y003541D01*
X013068Y003530D01*
X013053Y003530D01*
X013053Y003947D01*
X013015Y003947D01*
X013015Y003530D01*
X012999Y003530D01*
X012932Y003541D01*
X012867Y003562D01*
X012806Y003593D01*
X012750Y003634D01*
X012702Y003682D01*
X012662Y003737D01*
X012644Y003737D01*
X012662Y003737D02*
X012652Y003756D01*
X012632Y003708D01*
X012504Y003580D01*
X012337Y003510D01*
X012156Y003510D01*
X011989Y003580D01*
X011861Y003708D01*
X011791Y003875D01*
X011791Y004056D01*
X011861Y004223D01*
X011989Y004351D01*
X011999Y004355D01*
X011965Y004328D02*
X011297Y004328D01*
X011357Y004229D02*
X011867Y004229D01*
X011822Y004131D02*
X011384Y004131D01*
X011384Y004032D02*
X011791Y004032D01*
X011791Y003934D02*
X011384Y003934D01*
X011384Y003835D02*
X011808Y003835D01*
X011848Y003737D02*
X011375Y003737D01*
X011254Y003638D02*
X011930Y003638D01*
X012085Y003540D02*
X010970Y003540D01*
X010970Y003441D02*
X014150Y003441D01*
X014150Y003343D02*
X010970Y003343D01*
X010970Y003244D02*
X014150Y003244D01*
X014150Y003146D02*
X010970Y003146D01*
X010970Y003047D02*
X014150Y003047D01*
X014150Y002949D02*
X010970Y002949D01*
X011236Y002850D02*
X014150Y002850D01*
X014150Y002752D02*
X011324Y002752D01*
X011324Y002653D02*
X014150Y002653D01*
X014148Y002555D02*
X011324Y002555D01*
X011324Y002456D02*
X014124Y002456D01*
X014077Y002358D02*
X011324Y002358D01*
X011324Y002259D02*
X014012Y002259D01*
X013919Y002161D02*
X011324Y002161D01*
X011324Y002062D02*
X013733Y002062D01*
X014150Y003540D02*
X013128Y003540D01*
X013053Y003540D02*
X013015Y003540D01*
X012939Y003540D02*
X012408Y003540D01*
X012563Y003638D02*
X012746Y003638D01*
X013015Y003638D02*
X013053Y003638D01*
X013053Y003737D02*
X013015Y003737D01*
X013015Y003835D02*
X013053Y003835D01*
X013053Y003934D02*
X013015Y003934D01*
X013322Y003638D02*
X014150Y003638D01*
X014150Y003737D02*
X013405Y003737D01*
X013449Y003835D02*
X014150Y003835D01*
X014150Y003934D02*
X013469Y003934D01*
X013464Y004032D02*
X014150Y004032D01*
X014150Y004131D02*
X013437Y004131D01*
X013380Y004229D02*
X014150Y004229D01*
X014150Y004328D02*
X013275Y004328D01*
X013898Y004426D02*
X014150Y004426D01*
X014150Y004525D02*
X013996Y004525D01*
X014095Y004623D02*
X014150Y004623D01*
X011115Y003934D02*
X011077Y003934D01*
X011077Y003835D02*
X011115Y003835D01*
X011115Y003737D02*
X011077Y003737D01*
X011077Y003638D02*
X011115Y003638D01*
X001297Y010632D02*
X000440Y010632D01*
X000440Y010730D02*
X001188Y010730D01*
X001080Y010829D02*
X000440Y010829D01*
X000440Y010927D02*
X001040Y010927D01*
X001040Y011026D02*
X000440Y011026D01*
X000440Y011124D02*
X001040Y011124D01*
X001040Y011223D02*
X000440Y011223D01*
X000440Y011321D02*
X001040Y011321D01*
X001040Y011420D02*
X000440Y011420D01*
D32*
X000640Y011265D03*
X000640Y010765D03*
X001040Y010465D03*
X001040Y009865D03*
X001040Y009265D03*
X001040Y008665D03*
X001640Y008665D03*
X002240Y008665D03*
X002840Y008665D03*
X003040Y007665D03*
X003040Y007065D03*
X003040Y006465D03*
X003040Y005865D03*
X002940Y004765D03*
X002940Y004165D03*
X002940Y003565D03*
X002940Y002965D03*
X002540Y002565D03*
X002040Y002265D03*
X001340Y002265D03*
X000640Y002265D03*
X004540Y002665D03*
X004540Y003665D03*
X004540Y004665D03*
X004540Y005665D03*
X005540Y005665D03*
X005540Y004665D03*
X005540Y003665D03*
X005540Y002665D03*
X006540Y002665D03*
X006540Y003665D03*
X006540Y004665D03*
X006540Y005665D03*
X005640Y007065D03*
X006340Y008765D03*
X006040Y009265D03*
X005190Y008965D03*
X004490Y008965D03*
X003740Y007665D03*
X003540Y010865D03*
X004340Y011965D03*
X004990Y012165D03*
X005640Y012865D03*
X005640Y013365D03*
X006240Y013365D03*
X006240Y011665D03*
X005640Y011065D03*
X006940Y009765D03*
X007540Y009465D03*
X007840Y009165D03*
X008080Y008785D03*
X008940Y008765D03*
X008940Y008165D03*
X007780Y007365D03*
X007670Y006195D03*
X008240Y005065D03*
X008040Y003315D03*
X008040Y002965D03*
X009130Y002885D03*
X010040Y004265D03*
X010380Y004325D03*
X010740Y004365D03*
X011040Y004465D03*
X011040Y004865D03*
X011060Y005205D03*
X011040Y005535D03*
X011540Y006865D03*
X011260Y007245D03*
X011090Y006985D03*
X011140Y007865D03*
X011210Y008265D03*
X012440Y008265D03*
X012940Y008265D03*
X013440Y008265D03*
X013590Y008865D03*
X013690Y006465D03*
X012590Y005415D03*
X012440Y003265D03*
X011690Y003265D03*
X013540Y011565D03*
X013490Y012165D03*
X012840Y014465D03*
X013540Y014965D03*
X012540Y015765D03*
X011840Y015765D03*
X011840Y015065D03*
X011140Y014465D03*
X011690Y012065D03*
X010140Y011965D03*
X008640Y011965D03*
X012690Y017065D03*
X013390Y018465D03*
X011890Y018865D03*
X004090Y012765D03*
D33*
X004376Y012384D02*
X000500Y012384D01*
X000500Y012306D02*
X004298Y012306D01*
X004219Y012227D02*
X000500Y012227D01*
X000500Y012149D02*
X004128Y012149D01*
X004103Y012124D02*
X004181Y012203D01*
X004204Y012212D01*
X004940Y012948D01*
X005057Y013065D01*
X005444Y013065D01*
X005481Y013103D01*
X005584Y013145D01*
X005696Y013145D01*
X005799Y013103D01*
X005877Y013024D01*
X005920Y012921D01*
X005920Y012810D01*
X005877Y012707D01*
X005799Y012628D01*
X005696Y012585D01*
X005584Y012585D01*
X005481Y012628D01*
X005444Y012665D01*
X005223Y012665D01*
X004608Y012050D01*
X004620Y012021D01*
X004620Y011910D01*
X004577Y011807D01*
X004499Y011728D01*
X004396Y011685D01*
X004284Y011685D01*
X004181Y011728D01*
X004103Y011807D01*
X004060Y011910D01*
X004060Y012021D01*
X004103Y012124D01*
X004080Y012070D02*
X000500Y012070D01*
X000500Y011992D02*
X004060Y011992D01*
X004060Y011913D02*
X000500Y011913D01*
X000500Y011835D02*
X004091Y011835D01*
X004153Y011756D02*
X000500Y011756D01*
X000500Y011678D02*
X005960Y011678D01*
X005960Y011668D02*
X005637Y011345D01*
X005584Y011345D01*
X005481Y011303D01*
X005403Y011224D01*
X005360Y011121D01*
X005360Y011010D01*
X005403Y010907D01*
X005481Y010828D01*
X005584Y010785D01*
X005696Y010785D01*
X005799Y010828D01*
X005877Y010907D01*
X005920Y011010D01*
X005920Y011063D01*
X006243Y011385D01*
X006296Y011385D01*
X006399Y011428D01*
X006477Y011507D01*
X006520Y011610D01*
X006520Y011721D01*
X006477Y011824D01*
X006399Y011903D01*
X006296Y011945D01*
X006184Y011945D01*
X006081Y011903D01*
X006003Y011824D01*
X005960Y011721D01*
X005960Y011668D01*
X005975Y011756D02*
X004527Y011756D01*
X004589Y011835D02*
X006014Y011835D01*
X006107Y011913D02*
X004620Y011913D01*
X004620Y011992D02*
X011940Y011992D01*
X011940Y012070D02*
X004628Y012070D01*
X004706Y012149D02*
X011940Y012149D01*
X011940Y012227D02*
X004785Y012227D01*
X004863Y012306D02*
X011940Y012306D01*
X011940Y012384D02*
X004942Y012384D01*
X005020Y012463D02*
X011940Y012463D01*
X011940Y012541D02*
X005099Y012541D01*
X005177Y012620D02*
X005501Y012620D01*
X005779Y012620D02*
X011940Y012620D01*
X011940Y012698D02*
X005869Y012698D01*
X005906Y012777D02*
X011940Y012777D01*
X011940Y012855D02*
X005920Y012855D01*
X005915Y012934D02*
X011940Y012934D01*
X011940Y013012D02*
X005882Y013012D01*
X005810Y013091D02*
X011940Y013091D01*
X011940Y013169D02*
X000500Y013169D01*
X000500Y013091D02*
X005470Y013091D01*
X005640Y012865D02*
X005140Y012865D01*
X004340Y012065D01*
X004340Y011965D01*
X004455Y012463D02*
X000500Y012463D01*
X000500Y012541D02*
X004533Y012541D01*
X004612Y012620D02*
X000500Y012620D01*
X000500Y012698D02*
X004690Y012698D01*
X004769Y012777D02*
X000500Y012777D01*
X000500Y012855D02*
X004847Y012855D01*
X004926Y012934D02*
X000500Y012934D01*
X000500Y013012D02*
X005004Y013012D01*
X005891Y011599D02*
X000500Y011599D01*
X000500Y011521D02*
X005813Y011521D01*
X005734Y011442D02*
X000500Y011442D01*
X000500Y011364D02*
X005656Y011364D01*
X005640Y011065D02*
X006240Y011665D01*
X006520Y011678D02*
X011940Y011678D01*
X011940Y011756D02*
X006505Y011756D01*
X006466Y011835D02*
X011940Y011835D01*
X011940Y011913D02*
X006373Y011913D01*
X006516Y011599D02*
X011940Y011599D01*
X011940Y011521D02*
X006483Y011521D01*
X006413Y011442D02*
X011940Y011442D01*
X011940Y011364D02*
X006221Y011364D01*
X006143Y011285D02*
X011940Y011285D01*
X011940Y011207D02*
X006064Y011207D01*
X005986Y011128D02*
X011940Y011128D01*
X011940Y011050D02*
X005920Y011050D01*
X005904Y010971D02*
X011940Y010971D01*
X011940Y010893D02*
X005864Y010893D01*
X005766Y010814D02*
X011940Y010814D01*
X011940Y010736D02*
X000500Y010736D01*
X000500Y010814D02*
X005514Y010814D01*
X005416Y010893D02*
X000500Y010893D01*
X000500Y010971D02*
X005376Y010971D01*
X005360Y011050D02*
X000500Y011050D01*
X000500Y011128D02*
X005363Y011128D01*
X005396Y011207D02*
X000500Y011207D01*
X000500Y011285D02*
X005464Y011285D01*
X006157Y009665D02*
X006040Y009548D01*
X006037Y009545D01*
X005984Y009545D01*
X005881Y009503D01*
X005803Y009424D01*
X005760Y009321D01*
X005760Y009210D01*
X005803Y009107D01*
X005881Y009028D01*
X005984Y008985D01*
X006096Y008985D01*
X006199Y009028D01*
X006277Y009107D01*
X006320Y009210D01*
X006320Y009263D01*
X006323Y009265D01*
X006557Y009265D01*
X006337Y009045D01*
X006284Y009045D01*
X006181Y009003D01*
X006103Y008924D01*
X006060Y008821D01*
X006060Y008710D01*
X006078Y008665D01*
X004757Y008665D01*
X004657Y008565D01*
X002902Y008565D01*
X002854Y008613D01*
X000962Y008613D01*
X000962Y010442D01*
X000854Y010550D01*
X000500Y010550D01*
X000500Y020607D01*
X000510Y020709D01*
X000588Y020896D01*
X000731Y021040D01*
X000919Y021117D01*
X001020Y021127D01*
X013385Y021127D01*
X013394Y021120D01*
X013450Y021127D01*
X013506Y021127D01*
X013510Y021131D01*
X013558Y021134D01*
X013751Y021097D01*
X013923Y021003D01*
X014057Y020860D01*
X014141Y020683D01*
X014160Y020593D01*
X014160Y008565D01*
X014140Y008565D01*
X014140Y011648D01*
X014023Y011765D01*
X013736Y011765D01*
X013699Y011803D01*
X013596Y011845D01*
X013484Y011845D01*
X013381Y011803D01*
X013303Y011724D01*
X013260Y011621D01*
X013260Y011510D01*
X013303Y011407D01*
X013381Y011328D01*
X013484Y011285D01*
X013140Y011285D01*
X013140Y011207D02*
X013740Y011207D01*
X013740Y011285D02*
X013596Y011285D01*
X013699Y011328D01*
X013736Y011365D01*
X013740Y011365D01*
X013740Y008565D01*
X010323Y008565D01*
X010523Y008765D01*
X012023Y008765D01*
X013023Y009765D01*
X013140Y009883D01*
X013140Y013839D01*
X013223Y013921D01*
X013223Y013853D01*
X013232Y013818D01*
X013251Y013786D01*
X013277Y013760D01*
X013309Y013741D01*
X013344Y013732D01*
X013511Y013732D01*
X013511Y013981D01*
X013569Y013981D01*
X013569Y014038D01*
X013857Y014038D01*
X013857Y014166D01*
X013848Y014201D01*
X013829Y014233D01*
X013811Y014251D01*
X013877Y014317D01*
X013877Y014725D01*
X013783Y014819D01*
X013782Y014819D01*
X013820Y014910D01*
X013820Y015021D01*
X013777Y015124D01*
X013699Y015203D01*
X013596Y015245D01*
X013484Y015245D01*
X013397Y015209D01*
X013411Y015223D01*
X013411Y016086D01*
X013391Y016106D01*
X013391Y016135D01*
X013391Y016163D01*
X013411Y016183D01*
X013411Y016566D01*
X013317Y016660D01*
X013144Y016660D01*
X013138Y016665D01*
X012257Y016665D01*
X012140Y016548D01*
X011940Y016348D01*
X011940Y016027D01*
X011896Y016045D01*
X011784Y016045D01*
X011688Y016005D01*
X011581Y016005D01*
X011581Y016246D01*
X011561Y016266D01*
X011561Y016295D01*
X011561Y016323D01*
X011581Y016343D01*
X011581Y016566D01*
X011487Y016660D01*
X010985Y016660D01*
X010891Y016566D01*
X010891Y016343D01*
X010911Y016323D01*
X010911Y016295D01*
X010940Y016295D01*
X010940Y016295D01*
X010940Y016295D01*
X010911Y016295D01*
X010911Y016266D01*
X010891Y016246D01*
X010891Y015543D01*
X010911Y015523D01*
X010911Y015495D01*
X010940Y015495D01*
X010940Y015495D01*
X010940Y015495D01*
X010911Y015495D01*
X010911Y015466D01*
X010891Y015446D01*
X000500Y015446D01*
X000500Y015368D02*
X010891Y015368D01*
X010891Y015446D02*
X010891Y015223D01*
X010911Y015203D01*
X010911Y015175D01*
X010940Y015175D01*
X010940Y015175D01*
X010940Y015175D01*
X010911Y015175D01*
X010911Y015146D01*
X010891Y015126D01*
X010891Y014903D01*
X010940Y014855D01*
X010940Y014661D01*
X010903Y014624D01*
X010860Y014521D01*
X010860Y014410D01*
X010903Y014307D01*
X010981Y014228D01*
X011084Y014185D01*
X011196Y014185D01*
X011299Y014228D01*
X011345Y014275D01*
X011369Y014251D01*
X011351Y014233D01*
X011332Y014201D01*
X011323Y014166D01*
X011323Y014038D01*
X011611Y014038D01*
X011611Y013981D01*
X011323Y013981D01*
X011323Y013853D01*
X011332Y013818D01*
X011351Y013786D01*
X011377Y013760D01*
X011409Y013741D01*
X011444Y013732D01*
X011611Y013732D01*
X011611Y013981D01*
X011669Y013981D01*
X011669Y013732D01*
X011836Y013732D01*
X011871Y013741D01*
X011903Y013760D01*
X011929Y013786D01*
X011940Y013805D01*
X011940Y010048D01*
X011857Y009965D01*
X010357Y009965D01*
X010240Y009848D01*
X009040Y008648D01*
X009040Y008565D01*
X008256Y008565D01*
X008317Y008627D01*
X008360Y008730D01*
X008360Y008841D01*
X008317Y008944D01*
X008239Y009023D01*
X008136Y009065D01*
X008102Y009065D01*
X008120Y009110D01*
X008120Y009221D01*
X008077Y009324D01*
X007999Y009403D01*
X007896Y009445D01*
X007820Y009445D01*
X007820Y009521D01*
X007777Y009624D01*
X007699Y009703D01*
X007596Y009745D01*
X007484Y009745D01*
X007381Y009703D01*
X007344Y009665D01*
X006157Y009665D01*
X006129Y009637D02*
X002918Y009637D01*
X002922Y009651D02*
X002937Y009767D01*
X002937Y009785D01*
X002087Y009785D01*
X002087Y008935D01*
X002105Y008935D01*
X002221Y008951D01*
X002334Y008981D01*
X002442Y009025D01*
X002543Y009084D01*
X002635Y009155D01*
X002718Y009237D01*
X002789Y009330D01*
X002847Y009431D01*
X002892Y009539D01*
X002922Y009651D01*
X002930Y009715D02*
X007412Y009715D01*
X007540Y009465D02*
X006240Y009465D01*
X006040Y009265D01*
X006152Y009009D02*
X006196Y009009D01*
X006258Y009087D02*
X006379Y009087D01*
X006302Y009166D02*
X006458Y009166D01*
X006536Y009244D02*
X006320Y009244D01*
X006109Y008930D02*
X000962Y008930D01*
X000962Y008852D02*
X006073Y008852D01*
X006060Y008773D02*
X000962Y008773D01*
X000962Y008695D02*
X006066Y008695D01*
X005928Y009009D02*
X002402Y009009D01*
X002548Y009087D02*
X005822Y009087D01*
X005778Y009166D02*
X002646Y009166D01*
X002723Y009244D02*
X005760Y009244D01*
X005761Y009323D02*
X002783Y009323D01*
X002830Y009401D02*
X005793Y009401D01*
X005859Y009480D02*
X002867Y009480D01*
X002897Y009558D02*
X006050Y009558D01*
X006740Y009165D02*
X006340Y008765D01*
X006540Y008565D02*
X007840Y008565D01*
X008080Y008785D01*
X008360Y008773D02*
X009165Y008773D01*
X009087Y008695D02*
X008346Y008695D01*
X008307Y008616D02*
X009040Y008616D01*
X009240Y008565D02*
X010440Y009765D01*
X011940Y009765D01*
X012140Y009965D01*
X012140Y016265D01*
X012340Y016465D01*
X013055Y016465D01*
X013066Y016455D01*
X013066Y016135D02*
X013409Y016135D01*
X013440Y016104D01*
X013440Y015265D01*
X013349Y015175D01*
X013066Y015175D01*
X013057Y015325D02*
X013066Y015335D01*
X013075Y015325D01*
X013057Y015325D02*
X012820Y015325D01*
X012740Y015245D01*
X012740Y014865D01*
X012840Y014765D01*
X013240Y014765D01*
X013484Y014521D01*
X013540Y014521D01*
X012984Y013965D01*
X012940Y013965D01*
X012940Y009965D01*
X011940Y008965D01*
X010440Y008965D01*
X010031Y008556D01*
X010031Y007655D01*
X009834Y007655D02*
X009834Y008559D01*
X010440Y009165D01*
X011940Y009165D01*
X012740Y009965D01*
X012740Y014265D01*
X012840Y014465D01*
X013177Y013876D02*
X013223Y013876D01*
X013244Y013797D02*
X013140Y013797D01*
X013140Y013719D02*
X014160Y013719D01*
X014160Y013797D02*
X013836Y013797D01*
X013829Y013786D02*
X013848Y013818D01*
X013857Y013853D01*
X013857Y013981D01*
X013569Y013981D01*
X013569Y013732D01*
X013736Y013732D01*
X013771Y013741D01*
X013803Y013760D01*
X013829Y013786D01*
X013857Y013876D02*
X014160Y013876D01*
X014160Y013954D02*
X013857Y013954D01*
X013857Y014111D02*
X014160Y014111D01*
X014160Y014033D02*
X013569Y014033D01*
X013569Y013954D02*
X013511Y013954D01*
X013511Y013876D02*
X013569Y013876D01*
X013569Y013797D02*
X013511Y013797D01*
X013140Y013640D02*
X014160Y013640D01*
X014160Y013562D02*
X013140Y013562D01*
X013140Y013483D02*
X014160Y013483D01*
X014160Y013405D02*
X013140Y013405D01*
X013140Y013326D02*
X014160Y013326D01*
X014160Y013248D02*
X013140Y013248D01*
X013140Y013169D02*
X014160Y013169D01*
X014160Y013091D02*
X013140Y013091D01*
X013140Y013012D02*
X014160Y013012D01*
X014160Y012934D02*
X013140Y012934D01*
X013140Y012855D02*
X014160Y012855D01*
X014160Y012777D02*
X013140Y012777D01*
X013140Y012698D02*
X014160Y012698D01*
X014160Y012620D02*
X013140Y012620D01*
X013140Y012541D02*
X014160Y012541D01*
X014160Y012463D02*
X013140Y012463D01*
X013140Y012384D02*
X014160Y012384D01*
X014160Y012306D02*
X013140Y012306D01*
X013140Y012227D02*
X014160Y012227D01*
X014160Y012149D02*
X013140Y012149D01*
X013140Y012070D02*
X014160Y012070D01*
X014160Y011992D02*
X013140Y011992D01*
X013140Y011913D02*
X014160Y011913D01*
X014160Y011835D02*
X013621Y011835D01*
X013459Y011835D02*
X013140Y011835D01*
X013140Y011756D02*
X013335Y011756D01*
X013284Y011678D02*
X013140Y011678D01*
X013140Y011599D02*
X013260Y011599D01*
X013260Y011521D02*
X013140Y011521D01*
X013140Y011442D02*
X013288Y011442D01*
X013345Y011364D02*
X013140Y011364D01*
X013140Y011128D02*
X013740Y011128D01*
X013740Y011050D02*
X013140Y011050D01*
X013140Y010971D02*
X013740Y010971D01*
X013740Y010893D02*
X013140Y010893D01*
X013140Y010814D02*
X013740Y010814D01*
X013740Y010736D02*
X013140Y010736D01*
X013140Y010657D02*
X013740Y010657D01*
X013740Y010579D02*
X013140Y010579D01*
X013140Y010500D02*
X013740Y010500D01*
X013740Y010422D02*
X013140Y010422D01*
X013140Y010343D02*
X013740Y010343D01*
X013740Y010265D02*
X013140Y010265D01*
X013140Y010186D02*
X013740Y010186D01*
X013740Y010108D02*
X013140Y010108D01*
X013140Y010029D02*
X013740Y010029D01*
X013740Y009951D02*
X013140Y009951D01*
X013130Y009872D02*
X013740Y009872D01*
X013740Y009794D02*
X013051Y009794D01*
X012973Y009715D02*
X013740Y009715D01*
X013740Y009637D02*
X012894Y009637D01*
X012816Y009558D02*
X013740Y009558D01*
X013740Y009480D02*
X012737Y009480D01*
X012659Y009401D02*
X013740Y009401D01*
X013740Y009323D02*
X012580Y009323D01*
X012502Y009244D02*
X013740Y009244D01*
X013740Y009166D02*
X012423Y009166D01*
X012345Y009087D02*
X013740Y009087D01*
X013740Y009009D02*
X012266Y009009D01*
X012188Y008930D02*
X013740Y008930D01*
X013740Y008852D02*
X012109Y008852D01*
X012031Y008773D02*
X013740Y008773D01*
X013740Y008695D02*
X010452Y008695D01*
X010374Y008616D02*
X013740Y008616D01*
X014140Y008616D02*
X014160Y008616D01*
X014160Y008695D02*
X014140Y008695D01*
X014140Y008773D02*
X014160Y008773D01*
X014160Y008852D02*
X014140Y008852D01*
X014140Y008930D02*
X014160Y008930D01*
X014160Y009009D02*
X014140Y009009D01*
X014140Y009087D02*
X014160Y009087D01*
X014160Y009166D02*
X014140Y009166D01*
X014140Y009244D02*
X014160Y009244D01*
X014160Y009323D02*
X014140Y009323D01*
X014140Y009401D02*
X014160Y009401D01*
X014160Y009480D02*
X014140Y009480D01*
X014140Y009558D02*
X014160Y009558D01*
X014160Y009637D02*
X014140Y009637D01*
X014140Y009715D02*
X014160Y009715D01*
X014160Y009794D02*
X014140Y009794D01*
X014140Y009872D02*
X014160Y009872D01*
X014160Y009951D02*
X014140Y009951D01*
X014140Y010029D02*
X014160Y010029D01*
X014160Y010108D02*
X014140Y010108D01*
X014140Y010186D02*
X014160Y010186D01*
X014160Y010265D02*
X014140Y010265D01*
X014140Y010343D02*
X014160Y010343D01*
X014160Y010422D02*
X014140Y010422D01*
X014140Y010500D02*
X014160Y010500D01*
X014160Y010579D02*
X014140Y010579D01*
X014140Y010657D02*
X014160Y010657D01*
X014160Y010736D02*
X014140Y010736D01*
X014140Y010814D02*
X014160Y010814D01*
X014160Y010893D02*
X014140Y010893D01*
X014140Y010971D02*
X014160Y010971D01*
X014160Y011050D02*
X014140Y011050D01*
X014140Y011128D02*
X014160Y011128D01*
X014160Y011207D02*
X014140Y011207D01*
X014140Y011285D02*
X014160Y011285D01*
X014160Y011364D02*
X014140Y011364D01*
X014140Y011442D02*
X014160Y011442D01*
X014160Y011521D02*
X014140Y011521D01*
X014140Y011599D02*
X014160Y011599D01*
X014160Y011678D02*
X014110Y011678D01*
X014160Y011756D02*
X014032Y011756D01*
X013940Y011565D02*
X013940Y008110D01*
X013940Y004765D01*
X013740Y004565D01*
X011440Y004565D01*
X011340Y004665D01*
X011340Y005665D01*
X011240Y005765D01*
X010739Y005765D01*
X010729Y005775D01*
X010720Y005765D01*
X010540Y005765D01*
X010470Y005695D01*
X010470Y005455D01*
X010360Y005345D01*
X008640Y005345D01*
X008653Y005333D01*
X008653Y005076D01*
X008640Y005063D01*
X008640Y004905D01*
X008540Y004805D01*
X008280Y004805D01*
X008240Y004765D01*
X008240Y004551D01*
X008210Y004521D01*
X007880Y004705D02*
X007740Y004565D01*
X007402Y004565D01*
X007389Y004579D01*
X007880Y004705D02*
X007880Y005495D01*
X007940Y005555D01*
X007940Y005565D01*
X007953Y005578D01*
X008151Y005578D01*
X008151Y005381D02*
X008396Y005381D01*
X008430Y005415D01*
X008500Y005345D01*
X008640Y005345D01*
X008430Y005415D02*
X008430Y005765D01*
X008421Y005775D01*
X008311Y005775D01*
X008430Y005765D02*
X008430Y007275D01*
X008340Y007365D01*
X008166Y007365D01*
X008151Y007350D02*
X007791Y007710D01*
X007440Y007710D01*
X007140Y007465D02*
X007340Y007265D01*
X007540Y007265D01*
X007890Y006965D01*
X007890Y006245D01*
X007940Y006175D01*
X007940Y006165D01*
X008147Y006165D01*
X008151Y006169D01*
X008151Y005972D02*
X007934Y005972D01*
X007710Y006195D01*
X007670Y006195D01*
X007340Y006440D02*
X007340Y005907D01*
X007389Y005858D01*
X007293Y005858D01*
X007340Y006440D02*
X006768Y006440D01*
X006740Y006411D01*
X006742Y006410D01*
X006740Y006411D02*
X006694Y006365D01*
X005640Y006365D01*
X005384Y006721D01*
X005384Y007565D01*
X005258Y007439D01*
X005028Y007439D01*
X005384Y007565D02*
X005384Y007710D01*
X005440Y007765D01*
X005796Y007810D02*
X005840Y007765D01*
X005796Y007810D02*
X005796Y008065D01*
X006340Y008110D02*
X006384Y008065D01*
X006340Y008110D02*
X006340Y008365D01*
X006540Y008565D01*
X006340Y008365D02*
X006240Y008465D01*
X004840Y008465D01*
X004515Y008140D01*
X004334Y008140D01*
X003704Y008140D01*
X003704Y007702D01*
X003740Y007665D01*
X004708Y008616D02*
X000962Y008616D01*
X000962Y009009D02*
X001692Y009009D01*
X001653Y009025D02*
X001760Y008981D01*
X001873Y008951D01*
X001989Y008935D01*
X002007Y008935D01*
X002007Y009785D01*
X002087Y009785D01*
X002087Y009865D01*
X002937Y009865D01*
X002937Y009884D01*
X002922Y009999D01*
X002892Y010112D01*
X002847Y010220D01*
X002789Y010321D01*
X002718Y010413D01*
X002635Y010496D01*
X002543Y010567D01*
X002442Y010625D01*
X002334Y010670D01*
X002221Y010700D01*
X002105Y010715D01*
X002087Y010715D01*
X002087Y009865D01*
X002007Y009865D01*
X002007Y009785D01*
X001157Y009785D01*
X001157Y009767D01*
X001172Y009651D01*
X001203Y009539D01*
X001247Y009431D01*
X001306Y009330D01*
X001377Y009237D01*
X001459Y009155D01*
X001552Y009084D01*
X001653Y009025D01*
X001547Y009087D02*
X000962Y009087D01*
X000962Y009166D02*
X001448Y009166D01*
X001371Y009244D02*
X000962Y009244D01*
X000962Y009323D02*
X001311Y009323D01*
X001264Y009401D02*
X000962Y009401D01*
X000962Y009480D02*
X001227Y009480D01*
X001197Y009558D02*
X000962Y009558D01*
X000962Y009637D02*
X001176Y009637D01*
X001164Y009715D02*
X000962Y009715D01*
X000962Y009794D02*
X002007Y009794D01*
X002007Y009865D02*
X001157Y009865D01*
X001157Y009884D01*
X001172Y009999D01*
X001203Y010112D01*
X001247Y010220D01*
X001306Y010321D01*
X001377Y010413D01*
X001459Y010496D01*
X001552Y010567D01*
X001653Y010625D01*
X001760Y010670D01*
X001873Y010700D01*
X001989Y010715D01*
X002007Y010715D01*
X002007Y009865D01*
X002007Y009872D02*
X002087Y009872D01*
X002087Y009794D02*
X010186Y009794D01*
X010264Y009872D02*
X002937Y009872D01*
X002928Y009951D02*
X010343Y009951D01*
X010107Y009715D02*
X007668Y009715D01*
X007764Y009637D02*
X010029Y009637D01*
X009950Y009558D02*
X007805Y009558D01*
X007820Y009480D02*
X009872Y009480D01*
X009793Y009401D02*
X008000Y009401D01*
X008078Y009323D02*
X009715Y009323D01*
X009636Y009244D02*
X008110Y009244D01*
X008120Y009166D02*
X009558Y009166D01*
X009479Y009087D02*
X008111Y009087D01*
X008252Y009009D02*
X009401Y009009D01*
X009322Y008930D02*
X008323Y008930D01*
X008356Y008852D02*
X009244Y008852D01*
X009240Y008565D02*
X009243Y008562D01*
X009243Y007655D01*
X009440Y007655D02*
X009440Y008565D01*
X010440Y009565D01*
X011940Y009565D01*
X012340Y009965D01*
X012340Y015565D01*
X012540Y015765D01*
X012740Y015485D02*
X013057Y015485D01*
X013066Y015495D01*
X012740Y015485D02*
X012540Y015285D01*
X012540Y009965D01*
X011940Y009365D01*
X010440Y009365D01*
X009637Y008562D01*
X009637Y007655D01*
X010160Y007395D02*
X008550Y007395D01*
X008430Y007275D01*
X008151Y007153D02*
X007953Y007153D01*
X007780Y007325D01*
X007780Y007365D01*
X007340Y006951D02*
X007142Y007120D01*
X006740Y007120D01*
X006686Y007065D01*
X006052Y007065D01*
X006052Y007439D02*
X006078Y007465D01*
X007140Y007465D01*
X007440Y008221D02*
X007928Y008221D01*
X007984Y008165D01*
X007984Y008210D01*
X008440Y008665D01*
X008496Y008165D02*
X008456Y008125D01*
X008456Y007655D01*
X008640Y007667D02*
X008640Y007865D01*
X008740Y007865D01*
X008940Y008065D01*
X008940Y008165D01*
X008640Y007667D02*
X008653Y007655D01*
X009440Y006365D02*
X009834Y005972D01*
X009834Y006859D01*
X010440Y007465D01*
X010440Y007639D01*
X010424Y007655D01*
X010240Y007667D02*
X010240Y007475D01*
X010160Y007395D01*
X010227Y007655D02*
X010240Y007667D01*
X010240Y008165D01*
X010284Y008165D01*
X010745Y007365D02*
X010729Y007350D01*
X010745Y007365D02*
X010840Y007365D01*
X011040Y007565D01*
X011940Y007565D01*
X012140Y007365D01*
X012184Y007365D01*
X012184Y007865D02*
X011140Y007865D01*
X011210Y008265D02*
X011210Y008365D01*
X011260Y007245D02*
X011020Y007245D01*
X010940Y007165D01*
X010742Y007165D01*
X010729Y007153D01*
X010739Y006965D02*
X010729Y006956D01*
X010739Y006965D02*
X011090Y006985D01*
X011246Y006759D02*
X010729Y006759D01*
X010733Y006565D02*
X010729Y006562D01*
X010733Y006565D02*
X011240Y006565D01*
X011440Y006365D01*
X013240Y006365D01*
X013440Y006565D01*
X013440Y008265D01*
X013184Y007865D02*
X012696Y007865D01*
X012440Y008265D02*
X012440Y006665D01*
X012340Y006565D01*
X011440Y006565D01*
X011246Y006759D01*
X011540Y006865D02*
X012184Y006865D01*
X012696Y006865D02*
X013184Y006865D01*
X013184Y007365D02*
X012696Y007365D01*
X013696Y007365D02*
X013696Y006865D01*
X013696Y007365D02*
X013696Y007865D01*
X013940Y008110D01*
X013140Y006165D02*
X011440Y006165D01*
X011240Y006365D01*
X010729Y006365D01*
X010729Y006169D02*
X010733Y006165D01*
X011140Y006165D01*
X011505Y005800D01*
X011640Y005800D01*
X011740Y005900D01*
X012222Y005900D01*
X012287Y005765D01*
X012590Y005415D02*
X012590Y005340D01*
X012287Y005037D01*
X012312Y005037D01*
X012287Y005037D02*
X012194Y005131D01*
X011640Y005131D01*
X011060Y005205D02*
X010845Y005265D01*
X010729Y005381D01*
X010729Y005578D02*
X011027Y005578D01*
X011040Y005535D01*
X010829Y005076D02*
X011040Y004865D01*
X010829Y005076D02*
X010424Y005076D01*
X010227Y005076D02*
X010227Y004878D01*
X010340Y004765D01*
X010740Y004765D01*
X011040Y004465D01*
X010740Y004365D02*
X010540Y004565D01*
X010340Y004565D01*
X010031Y004875D01*
X010031Y005076D01*
X009834Y005076D02*
X009834Y004872D01*
X010380Y004325D01*
X010584Y003965D02*
X009840Y003965D01*
X009740Y004065D01*
X009740Y004565D01*
X009440Y004865D01*
X009440Y005076D01*
X009637Y005076D02*
X009637Y004869D01*
X009990Y004515D01*
X009990Y004315D01*
X010040Y004265D01*
X010020Y003785D02*
X009770Y003785D01*
X009540Y004015D01*
X009540Y004565D01*
X009243Y004862D01*
X009243Y005076D01*
X009046Y005076D02*
X009040Y005070D01*
X009040Y004601D01*
X009110Y004531D01*
X008740Y004601D02*
X008740Y004765D01*
X008840Y004865D01*
X008840Y005067D01*
X008849Y005076D01*
X008740Y004601D02*
X008660Y004521D01*
X008660Y004010D02*
X008540Y003965D01*
X008740Y003765D01*
X009140Y003765D01*
X009240Y003665D01*
X009240Y003410D01*
X009284Y003365D01*
X009540Y003365D02*
X009540Y003765D01*
X009296Y004010D01*
X009110Y004020D01*
X009028Y003365D02*
X009028Y002977D01*
X009130Y002885D01*
X008540Y002865D02*
X008540Y003565D01*
X008240Y003865D01*
X008210Y004010D01*
X008040Y003315D02*
X007954Y003280D01*
X007389Y003280D01*
X007389Y002847D02*
X007921Y002847D01*
X008040Y002965D01*
X008540Y002865D02*
X008040Y002365D01*
X007457Y002365D01*
X007389Y002433D01*
X008240Y005065D02*
X008251Y005076D01*
X008456Y005076D01*
X009834Y005972D02*
X010729Y005972D01*
X010020Y003785D02*
X010040Y003765D01*
X010040Y003377D01*
X010052Y003365D01*
X011040Y003365D01*
X012440Y003372D02*
X013034Y003965D01*
X012897Y005037D02*
X012897Y005123D01*
X013240Y005465D01*
X013475Y005231D01*
X013640Y005131D01*
X013546Y005137D01*
X013240Y005465D02*
X013240Y006065D01*
X013140Y006165D01*
X011921Y010029D02*
X002914Y010029D01*
X002893Y010108D02*
X011940Y010108D01*
X011940Y010186D02*
X002861Y010186D01*
X002821Y010265D02*
X011940Y010265D01*
X011940Y010343D02*
X002771Y010343D01*
X002709Y010422D02*
X011940Y010422D01*
X011940Y010500D02*
X002629Y010500D01*
X002522Y010579D02*
X011940Y010579D01*
X011940Y010657D02*
X002364Y010657D01*
X002087Y010657D02*
X002007Y010657D01*
X002007Y010579D02*
X002087Y010579D01*
X002087Y010500D02*
X002007Y010500D01*
X002007Y010422D02*
X002087Y010422D01*
X002087Y010343D02*
X002007Y010343D01*
X002007Y010265D02*
X002087Y010265D01*
X002087Y010186D02*
X002007Y010186D01*
X002007Y010108D02*
X002087Y010108D01*
X002087Y010029D02*
X002007Y010029D01*
X002007Y009951D02*
X002087Y009951D01*
X002087Y009715D02*
X002007Y009715D01*
X002007Y009637D02*
X002087Y009637D01*
X002087Y009558D02*
X002007Y009558D01*
X002007Y009480D02*
X002087Y009480D01*
X002087Y009401D02*
X002007Y009401D01*
X002007Y009323D02*
X002087Y009323D01*
X002087Y009244D02*
X002007Y009244D01*
X002007Y009166D02*
X002087Y009166D01*
X002087Y009087D02*
X002007Y009087D01*
X002007Y009009D02*
X002087Y009009D01*
X001157Y009872D02*
X000962Y009872D01*
X000962Y009951D02*
X001166Y009951D01*
X001180Y010029D02*
X000962Y010029D01*
X000962Y010108D02*
X001201Y010108D01*
X001233Y010186D02*
X000962Y010186D01*
X000962Y010265D02*
X001273Y010265D01*
X001323Y010343D02*
X000962Y010343D01*
X000962Y010422D02*
X001385Y010422D01*
X001465Y010500D02*
X000904Y010500D01*
X000500Y010579D02*
X001573Y010579D01*
X001731Y010657D02*
X000500Y010657D01*
X000500Y013248D02*
X011940Y013248D01*
X011940Y013326D02*
X000500Y013326D01*
X000500Y013405D02*
X011940Y013405D01*
X011940Y013483D02*
X000500Y013483D01*
X000500Y013562D02*
X011940Y013562D01*
X011940Y013640D02*
X000500Y013640D01*
X000500Y013719D02*
X011940Y013719D01*
X011936Y013797D02*
X011940Y013797D01*
X011669Y013797D02*
X011611Y013797D01*
X011611Y013876D02*
X011669Y013876D01*
X011669Y013954D02*
X011611Y013954D01*
X011611Y014033D02*
X000500Y014033D01*
X000500Y014111D02*
X011323Y014111D01*
X011329Y014190D02*
X011207Y014190D01*
X011073Y014190D02*
X000500Y014190D01*
X000500Y014268D02*
X010941Y014268D01*
X010886Y014347D02*
X000500Y014347D01*
X000500Y014425D02*
X010860Y014425D01*
X010860Y014504D02*
X000500Y014504D01*
X000500Y014582D02*
X010885Y014582D01*
X010940Y014661D02*
X000500Y014661D01*
X000500Y014739D02*
X010940Y014739D01*
X010940Y014818D02*
X000500Y014818D01*
X000500Y014896D02*
X010898Y014896D01*
X010891Y014975D02*
X000500Y014975D01*
X000500Y015054D02*
X010891Y015054D01*
X010897Y015132D02*
X000500Y015132D01*
X000500Y015211D02*
X010904Y015211D01*
X010849Y015175D02*
X010840Y015165D01*
X010849Y015175D02*
X011236Y015175D01*
X011245Y015325D02*
X011236Y015335D01*
X011245Y015325D02*
X011760Y015325D01*
X011840Y015245D01*
X011840Y015065D01*
X011640Y014521D02*
X011384Y014521D01*
X011140Y014765D01*
X011140Y014465D01*
X011339Y014268D02*
X011352Y014268D01*
X011323Y013954D02*
X000500Y013954D01*
X000500Y013876D02*
X011323Y013876D01*
X011344Y013797D02*
X000500Y013797D01*
X000500Y015289D02*
X010891Y015289D01*
X010740Y015465D02*
X010769Y015495D01*
X011236Y015495D01*
X011245Y015805D02*
X011236Y015815D01*
X011245Y015805D02*
X011760Y015805D01*
X011800Y015765D01*
X011840Y015765D01*
X011940Y016074D02*
X011581Y016074D01*
X011581Y016153D02*
X011940Y016153D01*
X011940Y016231D02*
X011581Y016231D01*
X011561Y016295D02*
X011532Y016295D01*
X011532Y016295D01*
X011532Y016295D01*
X011561Y016295D01*
X011561Y016310D02*
X011940Y016310D01*
X011980Y016388D02*
X011581Y016388D01*
X011581Y016467D02*
X012058Y016467D01*
X012137Y016545D02*
X011581Y016545D01*
X011524Y016624D02*
X012215Y016624D01*
X011530Y016295D02*
X010830Y016295D01*
X010911Y016310D02*
X000500Y016310D01*
X000500Y016388D02*
X010891Y016388D01*
X010891Y016467D02*
X000500Y016467D01*
X000500Y016545D02*
X010891Y016545D01*
X010949Y016624D02*
X000500Y016624D01*
X000500Y016702D02*
X014160Y016702D01*
X014160Y016624D02*
X013354Y016624D01*
X013411Y016545D02*
X014160Y016545D01*
X014160Y016467D02*
X013411Y016467D01*
X013411Y016388D02*
X014160Y016388D01*
X014160Y016310D02*
X013411Y016310D01*
X013411Y016231D02*
X014160Y016231D01*
X014160Y016153D02*
X013391Y016153D01*
X013391Y016135D02*
X013362Y016135D01*
X013362Y016135D01*
X013362Y016135D01*
X013391Y016135D01*
X013409Y016135D02*
X013440Y016165D01*
X013411Y016074D02*
X014160Y016074D01*
X014160Y015996D02*
X013411Y015996D01*
X013411Y015917D02*
X014160Y015917D01*
X014160Y015839D02*
X013411Y015839D01*
X013411Y015760D02*
X014160Y015760D01*
X014160Y015682D02*
X013411Y015682D01*
X013411Y015603D02*
X014160Y015603D01*
X014160Y015525D02*
X013411Y015525D01*
X013411Y015446D02*
X014160Y015446D01*
X014160Y015368D02*
X013411Y015368D01*
X013411Y015289D02*
X014160Y015289D01*
X014160Y015211D02*
X013680Y015211D01*
X013769Y015132D02*
X014160Y015132D01*
X014160Y015054D02*
X013807Y015054D01*
X013820Y014975D02*
X014160Y014975D01*
X014160Y014896D02*
X013815Y014896D01*
X013785Y014818D02*
X014160Y014818D01*
X014160Y014739D02*
X013863Y014739D01*
X013877Y014661D02*
X014160Y014661D01*
X014160Y014582D02*
X013877Y014582D01*
X013877Y014504D02*
X014160Y014504D01*
X014160Y014425D02*
X013877Y014425D01*
X013877Y014347D02*
X014160Y014347D01*
X014160Y014268D02*
X013828Y014268D01*
X013851Y014190D02*
X014160Y014190D01*
X013540Y014965D02*
X013115Y014965D01*
X013066Y015015D01*
X013398Y015211D02*
X013400Y015211D01*
X014160Y016781D02*
X000500Y016781D01*
X000500Y016859D02*
X014160Y016859D01*
X014160Y016938D02*
X000500Y016938D01*
X000500Y017016D02*
X014160Y017016D01*
X014160Y017095D02*
X000500Y017095D01*
X000500Y017173D02*
X014160Y017173D01*
X014160Y017252D02*
X000500Y017252D01*
X000500Y017330D02*
X014160Y017330D01*
X014160Y017409D02*
X000500Y017409D01*
X000500Y017487D02*
X014160Y017487D01*
X014160Y017566D02*
X000500Y017566D01*
X000500Y017644D02*
X014160Y017644D01*
X014160Y017723D02*
X000500Y017723D01*
X000500Y017801D02*
X014160Y017801D01*
X014160Y017880D02*
X000500Y017880D01*
X000500Y017958D02*
X014160Y017958D01*
X014160Y018037D02*
X000500Y018037D01*
X000500Y018115D02*
X014160Y018115D01*
X014160Y018194D02*
X000500Y018194D01*
X000500Y018272D02*
X014160Y018272D01*
X014160Y018351D02*
X000500Y018351D01*
X000500Y018429D02*
X014160Y018429D01*
X014160Y018508D02*
X000500Y018508D01*
X000500Y018586D02*
X014160Y018586D01*
X014160Y018665D02*
X000500Y018665D01*
X000500Y018743D02*
X014160Y018743D01*
X014160Y018822D02*
X002327Y018822D01*
X002334Y018823D02*
X002442Y018868D01*
X002543Y018926D01*
X002635Y018997D01*
X002718Y019080D01*
X002789Y019172D01*
X002847Y019273D01*
X002892Y019381D01*
X002922Y019494D01*
X002937Y019609D01*
X002937Y019628D01*
X002087Y019628D01*
X002087Y019708D01*
X002007Y019708D01*
X002007Y020558D01*
X001989Y020558D01*
X001873Y020543D01*
X001760Y020512D01*
X001653Y020468D01*
X001552Y020409D01*
X001459Y020338D01*
X001377Y020256D01*
X001306Y020163D01*
X001247Y020062D01*
X001203Y019955D01*
X001172Y019842D01*
X001157Y019726D01*
X001157Y019708D01*
X002007Y019708D01*
X002007Y019628D01*
X001157Y019628D01*
X001157Y019609D01*
X001172Y019494D01*
X001203Y019381D01*
X001247Y019273D01*
X001306Y019172D01*
X001377Y019080D01*
X001459Y018997D01*
X001552Y018926D01*
X001653Y018868D01*
X001760Y018823D01*
X001873Y018793D01*
X001989Y018778D01*
X002007Y018778D01*
X002007Y019628D01*
X002087Y019628D01*
X002087Y018778D01*
X002105Y018778D01*
X002221Y018793D01*
X002334Y018823D01*
X002497Y018900D02*
X014160Y018900D01*
X014160Y018979D02*
X002611Y018979D01*
X002695Y019057D02*
X014160Y019057D01*
X014160Y019136D02*
X002760Y019136D01*
X002813Y019214D02*
X014160Y019214D01*
X014160Y019293D02*
X002855Y019293D01*
X002887Y019371D02*
X014160Y019371D01*
X014160Y019450D02*
X002910Y019450D01*
X002926Y019528D02*
X014160Y019528D01*
X014160Y019607D02*
X002937Y019607D01*
X002937Y019708D02*
X002937Y019726D01*
X002922Y019842D01*
X014160Y019842D01*
X014160Y019764D02*
X002932Y019764D01*
X002937Y019708D02*
X002087Y019708D01*
X002087Y020558D01*
X002105Y020558D01*
X002221Y020543D01*
X002334Y020512D01*
X002442Y020468D01*
X002543Y020409D01*
X002635Y020338D01*
X002718Y020256D01*
X002789Y020163D01*
X002847Y020062D01*
X002892Y019955D01*
X002922Y019842D01*
X002901Y019921D02*
X014160Y019921D01*
X014160Y019999D02*
X002873Y019999D01*
X002838Y020078D02*
X014160Y020078D01*
X014160Y020156D02*
X002793Y020156D01*
X002734Y020235D02*
X014160Y020235D01*
X014160Y020313D02*
X002661Y020313D01*
X002566Y020392D02*
X014160Y020392D01*
X014160Y020470D02*
X002436Y020470D01*
X002176Y020549D02*
X014160Y020549D01*
X014152Y020627D02*
X000502Y020627D01*
X000500Y020549D02*
X001918Y020549D01*
X002007Y020549D02*
X002087Y020549D01*
X002087Y020470D02*
X002007Y020470D01*
X002007Y020392D02*
X002087Y020392D01*
X002087Y020313D02*
X002007Y020313D01*
X002007Y020235D02*
X002087Y020235D01*
X002087Y020156D02*
X002007Y020156D01*
X002007Y020078D02*
X002087Y020078D01*
X002087Y019999D02*
X002007Y019999D01*
X002007Y019921D02*
X002087Y019921D01*
X002087Y019842D02*
X002007Y019842D01*
X002007Y019764D02*
X002087Y019764D01*
X002087Y019685D02*
X014160Y019685D01*
X014130Y020706D02*
X000510Y020706D01*
X000541Y020784D02*
X014093Y020784D01*
X014055Y020863D02*
X000574Y020863D01*
X000632Y020941D02*
X013981Y020941D01*
X013893Y021020D02*
X000711Y021020D01*
X000872Y021098D02*
X013746Y021098D01*
X011530Y016295D02*
X011511Y016295D01*
X011236Y016295D01*
X010891Y016231D02*
X000500Y016231D01*
X000500Y016153D02*
X010891Y016153D01*
X010891Y016074D02*
X000500Y016074D01*
X000500Y015996D02*
X010891Y015996D01*
X010891Y015917D02*
X000500Y015917D01*
X000500Y015839D02*
X010891Y015839D01*
X010891Y015760D02*
X000500Y015760D01*
X000500Y015682D02*
X010891Y015682D01*
X010891Y015603D02*
X000500Y015603D01*
X000500Y015525D02*
X010910Y015525D01*
X011236Y015015D02*
X011140Y014919D01*
X011140Y014765D01*
X013540Y011565D02*
X013940Y011565D01*
X013740Y011364D02*
X013735Y011364D01*
X013596Y011285D02*
X013484Y011285D01*
X007840Y009165D02*
X006740Y009165D01*
X006052Y007477D02*
X006052Y007439D01*
X002087Y018822D02*
X002007Y018822D01*
X002007Y018900D02*
X002087Y018900D01*
X002087Y018979D02*
X002007Y018979D01*
X002007Y019057D02*
X002087Y019057D01*
X002087Y019136D02*
X002007Y019136D01*
X002007Y019214D02*
X002087Y019214D01*
X002087Y019293D02*
X002007Y019293D01*
X002007Y019371D02*
X002087Y019371D01*
X002087Y019450D02*
X002007Y019450D01*
X002007Y019528D02*
X002087Y019528D01*
X002087Y019607D02*
X002007Y019607D01*
X002007Y019685D02*
X000500Y019685D01*
X000500Y019607D02*
X001158Y019607D01*
X001168Y019528D02*
X000500Y019528D01*
X000500Y019450D02*
X001184Y019450D01*
X001207Y019371D02*
X000500Y019371D01*
X000500Y019293D02*
X001239Y019293D01*
X001281Y019214D02*
X000500Y019214D01*
X000500Y019136D02*
X001334Y019136D01*
X001399Y019057D02*
X000500Y019057D01*
X000500Y018979D02*
X001483Y018979D01*
X001597Y018900D02*
X000500Y018900D01*
X000500Y018822D02*
X001767Y018822D01*
X001162Y019764D02*
X000500Y019764D01*
X000500Y019842D02*
X001172Y019842D01*
X001193Y019921D02*
X000500Y019921D01*
X000500Y019999D02*
X001221Y019999D01*
X001256Y020078D02*
X000500Y020078D01*
X000500Y020156D02*
X001301Y020156D01*
X001360Y020235D02*
X000500Y020235D01*
X000500Y020313D02*
X001434Y020313D01*
X001528Y020392D02*
X000500Y020392D01*
X000500Y020470D02*
X001658Y020470D01*
D34*
X006896Y008065D02*
X006896Y007921D01*
X006740Y007765D01*
X005840Y007765D01*
X005440Y007765D01*
X006896Y008065D02*
X007252Y007710D01*
X007440Y007710D01*
X008151Y007350D02*
X008166Y007365D01*
X008151Y005775D02*
X008311Y005775D01*
X008155Y005385D02*
X008151Y005381D01*
X008653Y005076D02*
X008660Y005083D01*
X012440Y003372D02*
X012440Y003265D01*
D35*
X013034Y003965D02*
X013034Y002222D01*
X013140Y002115D01*
X006790Y002115D01*
X006740Y002165D01*
D36*
X003649Y005445D02*
X002247Y005445D01*
M02*
